<?xml version="1.0" encoding="UTF-8"?>
<svg width="363.84" height="258.12" version="1.1" viewBox="0 0 3638.4 2581.2" xmlns="http://www.w3.org/2000/svg">
 <g id="l7HL9CduLwKBjgWx3Yr8flj" transform="translate(-674.62 -1007.8)" fill="#fffeff">
  <path id="pQi4kkCDX" d="m2337 3180c-4-49-14-85-33-120-40-73-144-183-253-268-53-42-98-78-101-81-3-4-36-33-73-66-83-71-117-120-157-219-38-94-46-162-60-496-22-546-30-706-36-742-5-31-11-39-47-53-142-57-334-59-537-5-138 37-215 71-290 132-62 50-91 27-54-43 33-65 219-157 384-191 108-22 306-27 408-10 80 14 165 53 186 85 22 33 30 115 62 680 16 268 31 492 35 498 14 23 149-66 149-98 0-19 34-16 53 5 10 10 17 35 17 54 0 35-2 37-79 74l-79 39 25 50c14 27 54 78 89 112 35 35 64 66 64 69 0 4-7 12-15 18-13 9 0 22 72 73 136 96 224 187 269 278 33 67 38 88 42 164 4 83-6 131-27 131-4 0-11-32-14-70z"/>
  <path id="pPvNQCMkB" d="m2880 3185v-35h150v70h-150z"/>
  <path id="p5wEltkmO" d="m2710 3169c-13-6-33-17-42-26-11-10-18-12-18-5s-7 12-15 12c-18 0-30-58-22-107 17-105 121-230 303-365 75-55 83-64 68-75s-10-20 49-82c68-73 124-157 112-169-3-4-23-14-43-22-85-36-102-52-102-95 0-23 5-46 12-53 18-18 49-15 46 4-3 18 113 94 143 94 22 0 26-29 34-235 6-158 27-508 45-759 7-90 17-160 25-176 9-18 35-38 67-53 86-41 160-50 340-44 133 4 180 10 256 31 185 52 324 137 334 206 4 26 1 30-18 30-13 0-26-5-30-11-26-42-183-109-350-150-131-32-351-33-450-2-39 13-76 28-81 35-18 22-24 87-17 168l7 79 56 3c53 3 56 5 59 31 2 15 9 27 18 27s14 11 14 34v33l48-5c50-4 122 18 122 37 0 6 5 11 10 11 6 0 10-21 10-46 0-37 5-50 25-66 14-11 25-25 25-32 0-25 105-35 143-14 28 14 57 47 57 64 0 7 14 26 30 42 58 59 29 162-46 162-19 0-37-6-39-13-4-8-24-11-64-9-33 2-67-1-78-6-17-10-18-3-18 121 0 95-3 131-12 134-7 3-13 13-13 24 0 10-4 19-10 19-5 0-10 7-10 15 0 10-11 15-35 15-33 0-35-2-35-35 0-19 5-35 10-35 6 0 10-9 10-19 0-11 5-21 10-23 6-2 13-33 16-69 8-78-6-126-46-170-25-28-32-30-69-24-23 4-41 11-41 16s-5 9-11 9c-14 0-39 25-39 39 0 6-16 11-35 11-33 0-35-2-35-35 0-19-4-35-10-35-5 0-10-16-10-35 0-27 4-35 18-35 21 0 52-29 52-48 0-20-44-13-63 9-10 11-20 43-23 72s-7 67-9 85c-4 31-3 32 36 32 38 0 39 1 39 35 0 33-2 35-34 35-37 0-46 12-46 61 0 27 3 29 35 29s35 2 35 30c0 23 4 30 20 30 17 0 20 7 20 40 0 39-1 40-35 40-33 0-35-2-35-35 0-28-4-35-19-35-14 0-21-8-23-27-2-16-9 71-16 192-22 366-48 421-298 636-27 24-66 56-85 71-93 75-170 148-204 197l-39 54 39 34c21 18 44 33 52 33s13 12 13 35c0 33-2 35-32 34-18 0-44-5-58-10z"/>
  <path id="ppwjHadro" d="m2680 2190c0-5-11-10-25-10s-25-4-25-10c0-5-7-10-15-10s-15-9-15-20c0-13-7-20-20-20-19 0-20-4-15-37 12-72 26-102 64-136 81-73 194-86 298-34 46 24 103 77 103 97 0 5 3 15 6 24 9 25-51 21-74-4s-111-60-151-60c-39 0-74 14-133 52-50 33-65 68-28 68 11 0 20 5 20 10 0 6 7 10 15 10s15 5 15 10c0 6 14 10 30 10 28 0 30 3 30 35 0 34-1 35-40 35-22 0-40-4-40-10z"/>
  <path d="m2350 2045c-38-40-118-75-172-75-49 0-108 23-157 61-28 23-81 26-81 5 0-28 66-100 115-125 67-35 189-37 250-4 57 30 92 71 103 121 9 40 9 42-12 42-13 0-33-11-46-25z"/>
  <path id="pspO8qSOZ" d="m1370 2010c0-5-9-10-20-10-16 0-20-7-20-35 0-33 2-35 35-35 19 0 35 5 35 10 0 6 9 10 20 10 16 0 20 7 20 35 0 33-2 35-35 35-19 0-35-4-35-10z"/>
  <path d="m1260 1815c0-33 2-35 35-35s35 2 35 35-2 35-35 35-35-2-35-35z"/>
  <path d="m1146 1564c-19-19-22-104-4-122s103-15 122 4 22 104 4 122-103 15-122-4z"/>
 </g>
 <g id="lXOlE8AmlHRElXqa6jykQW" transform="translate(-674.62 -1007.8)" fill="#fff4fc">
  <path id="pcXi6VSak" d="m3201 3242c-42-36-48-38-85-31-60 12-247 11-305-2-28-6-67-21-86-35-20-13-43-24-51-24s-17-7-20-15c-4-8-12-15-20-15-15 0-18-18-8-44 5-13 13-10 48 18 59 47 79 56 29 12-26-23-43-46-43-59 0-50 104-169 249-285 133-105 242-209 284-270 37-54 74-155 82-222 20-166 47-689 46-905-1-176 4-215 25-215 11 0 14 16 14 65 0 36 2 65 3 65 2 0 48-7 103-15 175-26 379-15 533 29l76 21v225c0 124-4 234-9 245s-10 66-12 122-8 150-14 210c-5 59-10 190-10 291v183l-53 52c-59 58-77 102-77 191 0 39-4 56-13 56-7 0-19 9-27 20s-22 20-32 20-33 15-51 34c-17 19-43 37-57 41-14 3-40 19-57 36-18 16-41 29-53 29-11 0-31 11-44 25s-28 25-35 25c-6 0-30 18-53 40-24 22-49 40-55 40-7 0-13 3-13 8 0 8-26 23-72 42-16 7-28 16-28 21s-15 9-32 9c-24 0-46-11-77-38zm-213-59c-10-2-26-2-35 0-10 3-2 5 17 5s27-2 18-5zm582-1231c35-17 89-98 90-134 0-9 4-18 9-20 11-4-6-132-19-136-6-2-10-9-10-16s-20-22-44-35l-45-22-40 28c-48 34-101 126-104 180 0 21 8 59 18 86 16 36 29 51 60 67 48 23 42 23 85 2zm137-179c-2-16-4-5-4 22 0 28 2 40 4 28 2-13 2-35 0-50zm273-184c0-6-13-24-30-41-16-16-30-35-30-41 0-7-4-18-9-26s-7 4-4 33c4 31 2 46-6 46-6 0-11-9-11-20 0-25-43-68-76-76-19-5-32-1-46 14-19 19-20 24-8 54 19 49 36 58 89 51 42-6 45-5 32 10-12 15-11 17 3 17 9 0 24 9 34 20l17 21 23-26c12-14 22-31 22-36zm-126 33c2-4-11-6-29-4-26 3-40-2-60-22-30-30-37-32-29-11 13 32 103 60 118 37zm-293-52c16 0 29-5 29-10 0-13-70-2-85 13-7 7-4 8 8 3 10-3 32-6 48-6zm-131-45c9-11 9-18-3-35-14-20-14-20-32 0-15 16-15 22-5 35 16 19 24 19 40 0z"/>
  <path id="pABeHgOBO" d="m2983 2603c-29-11-13-33 24-33 35 0 36 0 18 20-19 21-22 22-42 13z"/>
  <path d="m3070 2508c0-21 5-38 10-38 6 0 10-7 10-15 0-7 6-18 14-22 21-13 31-53 12-53-9 0-16-3-16-7 0-9-57-43-72-43-19 0-48-43-48-71 0-45 10-59 41-59 26 0 28 2 17 20-7 10-10 20-8 22 3 2 19 13 36 24 17 12 54 30 82 40 29 10 52 24 52 30 0 22-60 130-95 169l-34 40z"/>
  <path id="p10qPkHYUF" d="m2683 2201c-86-22-128-71-113-131 4-19 9-28 9-20 1 10 5 8 14-7 11-20 59-57 107-83 12-6 46-15 76-20 45-7 67-5 120 11 36 11 74 29 84 39s27 23 37 29c23 12 48 81 29 81-7 0-25 14-42 31-46 49-106 71-204 75-47 2-99 0-117-5z"/>
  <path id="pGq0xCj1h" d="m1460 1995c0-33 2-35 35-35s35 2 35 35-2 35-35 35-35-2-35-35z"/>
  <path d="m1260 1805c0-33 2-35 35-35s35 2 35 35-2 35-35 35-35-2-35-35z"/>
  <path id="pFNIewJky" d="m4220 1219v-30l30 21c44 31 45 40 6 40-33 0-36-2-36-31z"/>
  <path id="paSJpXBgR" d="m4128 1193c-10-2-18-9-18-14s-13-9-30-9c-16 0-30-4-30-8s-52-19-115-32c-94-20-115-28-115-42 0-23 10-22 117 2 135 32 273 83 273 102 0 8-52 9-82 1z"/>
  <path id="pTNmBZzLK" d="m3342 1129c6-20 121-56 206-64 69-7 72-7 72 14 0 18-6 21-43 21-23 0-67 7-97 15-88 25-143 31-138 14z"/>
  <path id="p60Nty1kC" d="m3700 1080c0-16 7-20 33-20 47 0 77 10 77 26 0 10-15 14-55 14-48 0-55-2-55-20z"/>
 </g>
 <g id="l5KzKUdkf0SAx1a2sxJh4es" transform="translate(-674.62 -1007.8)" fill="#8ffcff">
  <path id="pEyQFUbSe" d="m1643 3273c-18-2-33-9-33-14 0-6-13-15-30-20-19-7-30-18-30-30 0-11-11-24-25-31-14-6-25-15-25-20 0-4-9-8-20-8s-20-4-20-10c0-5-16-10-35-10-28 0-35-4-35-20 0-11-6-20-14-20-7 0-16-8-19-19-3-12-17-20-45-24-22-4-42-13-45-21s-20-17-37-21-34-13-37-21-18-14-33-14c-21 0-29-6-34-25-4-16-13-25-26-25-17 0-19-7-17-77 2-98-26-167-87-218l-41-34-8-218c-5-120-12-220-16-223-15-9-36-757-23-805 7-26 17-32 81-52 154-48 431-56 611-18 25 5 25 5 22-55-3-55-6-62-32-75-40-21-146-45-197-45-36 0-43-3-43-20 0-16 7-20 34-20 49 0 174 25 223 45 36 14 42 22 47 53 6 36 14 196 36 742 14 334 22 402 60 496 40 99 74 148 157 219 37 33 70 62 73 66 3 3 48 39 101 80 104 81 205 186 246 256 29 51 56 163 47 199-9 33-34 31-34-3 0-71-4-72-83-34-70 34-77 35-207 39-74 2-154-1-178-6-41-10-44-8-89 29-48 40-59 42-140 32zm-130-1324c30-14 64-72 73-126 11-69-47-172-118-209-39-20-53-18-91 16-67 59-71 173-10 268 38 59 90 77 146 51zm-290-397c31-32 34-54 11-76-22-23-48-20-83 10-36 30-38 43-11 72 28 29 51 28 83-6zm377-28c11-12 10-18-3-32-16-15-18-15-34 0-13 14-14 20-3 32 7 9 16 16 20 16s13-7 20-16z"/>
  <path d="m1910 2542c-80-80-149-222-108-222 17 0 158-71 158-80 0-4-9-15-20-25s-20-26-20-37 7-18 20-18c15 0 20 7 20 25 0 15 6 25 15 25 27 0 55 33 55 65 0 40-51 115-77 115-7 0-13 5-13 10 0 6-13 10-28 10-16 0-31 2-34 5-11 12 5 53 23 58 14 4 19 14 19 36 0 28 3 31 30 31s30 3 30 30c0 17-3 30-6 30s-32-26-64-58z"/>
  <path id="pwq1JcW0x" d="m2082 2192c-55-18-112-57-137-95-12-18-12-31-4-62 7-23 14-34 18-26 6 8 14 7 32-7 93-73 212-87 312-38 75 36 117 85 117 136 0 32-5 43-31 61-70 49-206 63-307 31z"/>
  <path id="pY4fgtzrz" d="m680 1272c0-10 61-60 110-89 93-56 340-123 458-123 25 0 32 4 32 19s-11 19-72 24c-89 8-207 37-309 77-42 17-83 30-92 30-10 0-17 7-17 15 0 9-9 15-25 15-18 0-25 5-25 20 0 16-7 20-30 20-16 0-30-4-30-8z"/>
 </g>
 <g id="l3z0DWXnycVR8iXDrEbjaGk" transform="translate(-674.62 -1007.8)" fill="#fbbbc2">
  <path d="m3263 3305c-7-8-13-21-13-30 0-8-9-15-20-15-15 0-20-7-20-25 0-30-11-31-140-14-113 14-250 4-250-19 0-15 16-17 137-17 89 0 151-5 175-13 38-13 38-13 89 31 51 45 52 45 72 26 11-10 24-16 28-13 4 2 14-5 23-17 8-12 19-18 25-14 6 3 11-1 11-9 0-9 6-13 13-10 8 3 20-3 28-12 9-12 10-15 2-10-8 4-13 2-13-4s8-10 17-8c10 2 32-12 51-30 18-19 40-35 48-36 9-1 19-8 23-14 4-7 19-13 34-14 14-1 24-4 22-7-3-2 5-9 18-16 12-6 21-17 19-24-1-7 2-10 8-6 5 3 10 2 10-3 0-6 7-13 16-16 10-4 13-1 9 7-3 6 2 2 11-10 9-13 21-23 26-23 6 0 4 8-3 18-7 9 6-2 30-26s49-41 56-38c6 2 18-4 26-15 7-10 19-19 26-19s13-7 13-15 8-15 19-15c14 0 20 10 25 38 10 61 7 92-8 92-7 0-22 11-32 25s-23 25-29 25-17 9-25 20-22 20-32 20-18 4-18 8-48 33-107 63c-60 29-119 66-131 82-13 15-30 27-38 27s-14 5-14 10c0 6-9 10-20 10s-20 4-20 10c0 5-11 12-25 16-14 3-25 12-25 19 0 24-108 33-127 10z"/>
  <path id="pdbLwY4Mt" d="m2703 3173c-18-9-33-23-33-30s-11-13-25-13c-26 0-33-22-16-48 6-10 14-8 37 11 16 13 53 36 82 51 28 14 52 31 52 36 0 15-61 11-97-7z"/>
  <path id="pJ9H3MMUl" d="m3874 2739c10-54 38-100 81-136l42-35 1-195c1-107 5-227 8-267 4-39 7-106 8-148 1-43 5-78 9-78 5 0 5-5 1-12-11-18-5-90 9-107 9-12 9-13 0-7-18 10-17-15 2-50 9-19 11-32 5-38s-10-17-10-26c0-12 2-12 9-1 6 9 9 5 9-14 0-20-3-24-10-14-9 13-7 2 9-55 3-10-1-22-8-27-8-5-9-9-4-9 6 0 10-36 10-87v-87l-60-18c-33-10-91-23-130-29-38-6-85-12-102-15-22-3-33-11-33-21 0-14 10-15 78-9 97 8 190 28 265 56l57 21v107c0 260-36 978-56 1119-3 23-12 35-34 45-17 7-30 16-30 20 0 5-11 8-25 8-20 0-25 5-25 25 0 14-4 25-9 25-4 0-14 20-21 45-10 34-17 45-33 45s-19-5-13-31z"/>
  <path id="pxhMRobsx" d="m2974 2595c-18-13-18-14 6-33 49-39 99-92 102-109 2-11-7-19-30-25-40-11-114-62-124-86-4-9-7-29-7-45-1-35 53-86 92-87 27 0 27 1 12 23-14 22-14 26 4 45 10 12 24 22 30 22 13 0 63 30 72 44 4 4 18 9 32 9 26 0 26 0 11 36-18 45-66 114-113 164-48 52-64 59-87 42z"/>
  <path id="p18nbDPXqG" d="m2655 2195c-22-8-41-15-42-15-2 0-3-11-3-25 0-20-5-25-25-25-18 0-25-5-24-17 1-25 17-71 18-55 3 46 78 102 154 116 23 4 37 13 37 21 0 20-61 19-115 0z"/>
  <path id="p1FElmS2Xm" d="m2790 2197c0-10 16-19 50-26 66-14 97-31 139-75 19-20 41-36 48-36 17 0 33 33 33 71v32l-50-6c-40-5-50-3-50 8 0 9-10 15-24 15-13 0-26 5-28 10-2 6-29 14-61 17-47 5-57 3-57-10z"/>
  <path id="pBD2hWEOV" d="m1415 1988c-70-24-110-91-121-201-6-64-6-67 15-67 18 0 21 6 21 48 0 26 9 67 20 91s20 52 20 62c0 14 7 19 25 19 14 0 25 5 25 10 0 6 23 10 50 10 36 0 50 4 50 14 0 25-54 32-105 14z"/>
  <path id="p7FiWhTRt" d="m3468 1987c-50-19-34-38 30-36 31 1 80-2 107-6 47-8 49-7 36 9-33 40-116 56-173 33z"/>
  <path id="pYNmhkoon" d="m3653 1849c4-30 7-71 7-91 0-31 4-38 20-38 18 0 20 6 19 53 0 61-18 119-38 125-11 4-13-5-8-49z"/>
  <path id="pJa17C1Fq" d="m3320 1304c0-44 11-74 26-74 8 0 14 11 14 26 0 24 3 25 28 19 49-12 136-25 175-25 26 0 37 4 37 15 0 9-14 16-37 20-61 9-196 34-220 41-20 6-23 3-23-22z"/>
  <path id="paADNB6VB" d="m4233 1258c-4-7-28-24-53-37-25-14-47-27-50-31-3-3-25-11-50-17-25-7-90-23-145-37s-110-26-122-26c-16 0-23-6-23-20 0-26 15-25 135 1 91 19 227 63 276 89 36 19 99 70 99 81 0 14-58 11-67-3z"/>
  <path id="pMdHbRvKF" d="m3330 1151c0-10 6-23 13-28 17-14 103-41 155-49 38-6 42-5 42 15 0 14-6 21-19 21-31 0-151 40-151 50 0 6-9 10-20 10-13 0-20-7-20-19z"/>
  <path id="pGKg6EIRH" d="m3560 1086c0-18 31-26 100-26s100 8 100 26c0 11-22 14-100 14s-100-3-100-14z"/>
 </g>
 <g transform="translate(-674.62 -1007.8)" fill="#fcaab5">
  <path d="m3289 3338c-7-13-20-30-31-39-18-16-26-69-9-69 4 0 20 14 34 31s28 26 31 21c3-6 16-8 28-4 14 3 19 1 14-6-7-11 9-25 34-29 8-1 16-7 18-12 2-6 12-11 23-11 10 0 19-7 19-15s6-12 14-9c7 3 25-9 39-25 14-17 29-31 33-31s19-10 32-22c14-13 22-18 18-11s11 3 34-9c22-12 40-26 40-30 0-5-6-6-12-2-7 4-9 3-5-1 11-13 38-15 31-3-4 6-3 9 2 6 44-20 64-33 64-41 0-5-7-4-15 3-10 9-15 9-15 1 0-12 9-14 50-12 14 0 19-2 12-5-18-8-4-24 15-17 11 4 14 3 9-5s1-12 16-12c18 0 20-2 8-10s-10-10 9-10c20 0 22-2 11-15s-10-14 4-9c9 3 16 1 16-5s7-8 16-4c12 5 15 1 11-13-3-10-9-36-13-56-5-33-4-38 12-38 15 0 23 15 37 73 24 101 23 117-8 117-14 0-33 8-43 18s-26 21-36 25c-9 4-95 58-190 122-95 63-178 115-184 115-5 0-12 6-15 13-7 19-85 57-118 57-19 0-32-7-40-22z"/>
  <path id="peLP1I0hA" d="m2890 3210c0-21 10-24 48-14 36 10 27 34-13 34-28 0-35-4-35-20z"/>
  <path d="m2970 3216c0-7 10-16 23-20 41-11 57-7 57 14 0 17-7 20-40 20-27 0-40-4-40-14z"/>
  <path id="prNVHMoEU" d="m2768 3203c-11-3-18-14-18-28v-23l50 16c57 18 68 43 18 41-18-1-41-3-50-6z"/>
  <path id="paClwg4gM" d="m3130 3186c0-19 33-26 53-11 25 18 21 25-18 25-23 0-35-5-35-14z"/>
  <path id="pRYyVs68m" d="m2621 3123c0-10 3-26 7-35 6-15 12-13 47 17l40 34-47 1c-39 0-48-3-47-17z"/>
  <path id="p17U56xq0V" d="m3870 2768c0-30 13-58 26-58 9 0 14 12 14 35 0 28-4 35-20 35-11 0-20-6-20-12z"/>
  <path id="p1HW2ofkUK" d="m3890 2694c0-12 34-64 42-64 4 0 8 16 8 35 0 31-3 35-25 35-14 0-25-3-25-6z"/>
  <path id="pi6xPyMNp" d="m4e3 2580c0-5 8-13 17-19 13-7 18-24 20-68 1-32 7-113 13-179 14-159 22-342 34-781 4-144 3-172-9-177-27-10-16-26 18-26 61 0 59-6 53 261-11 449-47 977-68 991-18 11-78 10-78-2z"/>
  <path id="p1WFbdYPY" d="m3020 2550c0-25 4-30 25-30s25-5 25-29c0-22-6-32-22-37-54-16-128-57-128-70 0-8-9-19-20-26-13-9-20-24-20-45 0-26 5-34 25-39 14-3 25-10 25-15s17-9 38-9l37 1-26 22c-16 14-23 29-20 39 8 23 86 77 119 84 15 3 38 13 51 23l23 17-49 61c-26 34-56 66-65 72-16 10-18 7-18-19z"/>
  <path id="pFjvGNjmk" d="m3010 2213c0-23-5-33-15-33-8 0-15-4-15-10 0-5-9-10-20-10s-20 7-20 15c0 15-57 35-102 35-48 0-31-25 29-43 32-10 76-34 100-53l42-35 14 54 19-22 18-23v50c0 40-5 57-25 79l-24 28z"/>
  <path id="p7poPOikQ" d="m2653 2199c-18-5-33-16-33-24s-9-15-20-15c-25 0-43-41-34-76l6-25 18 29c25 41 67 71 117 83 52 14 59 39 11 38-18 0-48-5-65-10z"/>
  <path id="ptkOXkAQU" d="m1421 1987c-64-22-48-35 44-35 64 0 85 3 85 13 0 25-82 38-129 22z"/>
  <path d="m3498 1993c-10-2-18-11-18-19 0-10 13-14 50-14 36 0 50 4 50 14 0 20-41 30-82 19z"/>
  <path id="p14xKWlCWu" d="m3590 1959c0-12 8-29 18-38 11-9 22-28 26-43 5-21 12-28 31-28 22 0 24 3 15 25-19 50-41 85-59 95-27 14-31 13-31-11z"/>
  <path id="p1EymsB5Ci" d="m1299 1798c-1-7-3-25-5-40-2-22 1-28 17-28s19 7 19 40c0 29-4 40-15 40-8 0-16-6-16-12z"/>
  <path id="p13yJfSKAP" d="m3993 1328c-45-15-43-38 2-38 31 0 35 3 35 25 0 14-1 25-2 24-2-1-18-6-35-11z"/>
  <path id="pwXtDJByO" d="m3340 1302c0-20 52-36 163-48 48-6 57-4 57 9 0 11-12 18-37 22-21 3-66 13-100 21-79 18-83 18-83-4z"/>
  <path d="m3850 1295c-8-2-32-6-52-10-24-4-38-11-38-20 0-17 22-18 94-9 36 5 46 11 46 25 0 18-12 21-50 14z"/>
  <path d="m4254 1276c-3-8-4-24-2-36 3-22 3-22 31 3 15 15 27 31 27 37 0 15-50 12-56-4z"/>
  <path id="pxJdlWboe" d="m4088 1183c-10-2-18-9-18-14s-13-9-30-9c-23 0-30-4-30-20 0-25 10-25 89 3 73 25 92 48 39 46-18-1-41-3-50-6z"/>
  <path id="p99ROttgA" d="m3330 1153c1-19 19-34 59-48 56-19 71-19 71 3 0 12-15 23-49 35-52 18-81 22-81 10z"/>
  <path id="p1CvqhSXAg" d="m3480 1096c0-13 28-26 58-26 6 0 12 9 12 20 0 16-7 20-35 20-23 0-35-5-35-14z"/>
  <path id="prWlpqQUB" d="m3780 1090c0-21 10-24 48-14 36 10 27 34-13 34-28 0-35-4-35-20z"/>
 </g>
 <g id="l7IzkdepRFj6QxWQlS4XxzB" transform="translate(-674.62 -1007.8)" fill="#fe9fae">
  <path id="pW0TpdcZm" d="m3310 3355c0-8-7-15-15-15-10 0-15-11-15-35 0-32-2-35-30-35-27 0-30-3-30-30s2-29 19-18c11 6 36 33 57 59l37 47 40-22c22-11 42-27 44-33 3-7 10-13 15-13 13 0 199-122 223-146 10-11 20-18 22-17 6 5 103-59 103-68 0-6 4-8 9-4 5 3 12 1 16-5s10-8 15-5 11-4 15-15 10-18 15-15c4 3 13-2 20-10 10-12 16-13 27-4 11 10 12 8 3-15s-8-27 6-24c27 5 56 53 61 102l6 46h-47c-34 0-46-4-46-15 0-8-3-15-6-15-10 0-67 42-89 65-32 35-96 77-170 113-22 11-51 31-64 46-14 14-30 26-37 26s-21 11-32 25c-12 15-30 25-45 25-14 0-29 5-32 10-3 6-26 10-51 10-32 0-44-4-44-15z"/>
  <path id="pHvXjVk0s" d="m2843 3223c-25-3-33-9-33-25 0-18 4-19 43-13 83 12 97 17 97 31s-32 16-107 7z"/>
  <path id="plP3ozYCG" d="m2990 3217c0-11 12-18 38-22 20-3 56-10 79-16 57-13 63-12 63 10 0 20-15 25-117 37-54 6-63 4-63-9z"/>
  <path id="pthfwo2Au" d="m2624 3118c7-37 11-42 25-33 6 3 11 19 11 36 0 23-4 29-21 29-19 0-21-4-15-32z"/>
  <path id="pcrDb93Aq" d="m3875 2753c16-89 79-167 157-195 29-10 27-5 43-173 12-129 30-497 40-826l6-185-68-27c-63-25-145-46-235-61-42-8-54-36-15-36 42 0 197 32 197 41 0 5 14 9 30 9 17 0 30 5 30 10 0 6 11 10 25 10 16 0 25 6 25 15s9 15 25 15c15 0 39 7 55 15 25 13 30 22 30 50 0 23-7 41-20 52-17 15-20 30-20 108 0 49-5 155-10 235s-16 279-25 444c-9 188-19 303-26 312-6 8-24 14-40 14s-29 5-29 10c0 6-7 10-15 10s-15 5-15 10c0 6-7 10-15 10s-15 5-15 10c0 6-7 10-15 10s-15 7-15 15-7 15-15 15c-9 0-15 9-15 25 0 14-4 25-10 25-5 0-10 16-10 35 0 29-4 35-21 35-19 0-21-4-14-37z"/>
  <path d="m2915 2557c-97-67-248-193-278-232-55-69-87-173-73-231l7-28 18 28c36 54 84 79 163 84 91 5 144-9 203-53 36-28 45-32 45-17 0 9 4 23 9 31 7 11 14 7 30-20 17-28 21-30 21-13 0 63-12 82-73 121-40 25-55 39-44 41 25 5 21 21-8 34-24 11-25 11-5 25 11 8 20 20 20 27 0 17 103 67 153 73 20 3 37 8 37 12 0 3-17 29-38 56l-37 50-5-35c-5-32-8-35-35-33-16 1-54 0-83-3-44-5-55-10-62-29-5-13-14-26-20-30-5-3-20-25-31-48-26-51-66-88-136-124-58-30-74-26-49 11 9 14 16 32 16 41 0 8 6 15 13 15 6 0 36 23 66 50 30 28 58 50 63 50 4 0 16 8 26 18 11 11 40 34 66 51 26 18 50 39 53 47s11 14 19 14 14 5 14 10c0 6 14 10 32 10 30 0 31 0 13 20-25 28-42 25-110-23z"/>
  <path id="p1DlaxN9nw" d="m4217 2593c-3-5 0-142 6-305 10-287 11-298 30-298 20 0 20 5 14 182-4 99-7 237-7 305 0 115-1 123-19 123-11 0-22-3-24-7z"/>
  <path id="pVYANv43O" d="m1453 1993c-28-11-13-33 22-33 24 0 35 5 35 15 0 8-4 15-9 15s-15 2-23 4c-7 3-19 2-25-1z"/>
  <path id="pFPTEfhzN" d="m3570 1966c0-21 5-26 25-26s25-5 25-25c0-16 6-25 15-25 10 0 15-11 15-35 0-28 4-35 20-35 26 0 25 18-5 83-23 48-35 60-87 85-5 2-8-8-8-22z"/>
  <path id="pJ9tv5Pwm" d="m1351 1944c-27-35-26-44 4-44 22 0 25 4 25 35 0 19-2 35-4 35-3 0-14-12-25-26z"/>
  <path d="m4235 1950c-8-13 2-241 17-382 10-98 13-108 31-108 19 0 19 5 14 68-4 37-9 135-12 217-7 183-12 215-30 215-8 0-17-5-20-10z"/>
  <path id="p06up8VzZ" d="m1306 1858c-10-38-7-48 14-48 16 0 20 7 20 35 0 40-24 49-34 13z"/>
  <path d="m3330 1309c0-12 7-19 20-19 11 0 20-4 20-10 0-5 16-10 35-10 55 0 43 24-20 42-52 15-55 14-55-3z"/>
  <path id="p138jaQyPW" d="m3480 1270c0-16 7-20 35-20 40 0 49 24 13 34-38 10-48 7-48-14z"/>
  <path id="p12ijxAysx" d="m4120 1175c0-24 1-25 32-12 46 19 48 37 4 37-32 0-36-3-36-25z"/>
  <path id="pNTACvbkw" d="m3330 1167c0-23 17-47 32-47 4 0 8 16 8 35 0 28-4 35-20 35-14 0-20-7-20-23z"/>
  <path id="pWpm2JXi" d="m3905 1130c-38-10-87-19-107-19-32-1-38-5-38-22 0-19 4-20 53-14 105 13 227 46 227 61 0 19-46 17-135-6z"/>
  <path id="p1EabbH0KT" d="m3430 1106c0-15 17-21 93-31 42-7 47-5 47 12s-9 21-52 27c-76 9-88 8-88-8z"/>
 </g>
 <g id="lqiRgFvMYd5eOgPwnV4u4P" transform="translate(-674.62 -1007.8)" fill="#ff94a7">
  <path id="p1EXdzTMXD" d="m3342 3458c-13-35-29-78-35-95-7-18-18-33-24-33-7 0-13-11-13-25 0-18-5-25-20-25-16 0-20-7-20-30 0-28-3-30-35-30-31 0-35-3-35-25 0-14 4-25 10-25 12 0 86 65 115 100 60 74 63 76 84 63 12-7 30-13 42-13s30-11 41-25 25-25 32-25 23-12 37-26c13-15 42-35 64-46 76-37 133-75 181-123 47-45 113-78 130-64 8 6 14 17 14 24 0 6 6 12 14 12 13 0 13-5-1-36-20-46-43-120-43-138 0-7 8-13 18-13 19 0 42 64 42 115 0 14 6 25 13 25 13 0 67 90 67 111 0 8-65 52-143 98s-187 113-242 148c-91 58-264 163-268 163-1 0-13-28-25-62z"/>
  <path id="pZf0j0JxC" d="m2700 3155c0-29 2-30 40-10 40 21 38 35-5 35-31 0-35-3-35-25z"/>
  <path id="p12Ww6WNd" d="m2630 3088c0-20 1-21 20-3 11 10 20 20 20 22 0 1-9 3-20 3-14 0-20-7-20-22z"/>
  <path id="pwhKx9cXc" d="m4185 2589c-16-5-63-7-104-3-59 5-72 3-69-8 3-7 19-18 36-24 18-5 36-14 42-20 9-9 23-220 35-523 3-79 7-147 10-151 2-4 7-96 9-205 5-182 7-199 26-217 11-10 20-21 20-24s-38-23-85-45-85-44-85-49c0-6 16-10 35-10s35 5 35 10c0 6 10 10 23 10 12 0 59 21 105 47 90 51 88 47 72 148-15 95-20 184-25 425-8 386-15 592-20 601-3 4-1 10 5 14 5 3 10 13 10 21 0 16-30 17-75 3z"/>
  <path id="pmPPjmSpZ" d="m2924 2557c-21-18-55-44-74-57-19-14-42-31-50-38s-45-37-82-67c-81-67-103-96-128-172-37-109-20-122 64-48 6 6 36 22 66 38 72 36 113 72 139 124 11 23 26 45 31 48 6 4 15 17 20 30 10 26 44 35 98 24 26-6 93 5 110 17 7 5-22 49-60 90-50 55-79 57-134 11z"/>
  <path id="pXTnM7Hvj" d="m2886 2295c-9-9-16-20-16-24 0-11 38-43 93-78 47-31 78-63 90-93 3-8 6 7 6 34 1 54-23 96-82 140-45 34-72 40-91 21z"/>
  <path id="pz6EtD2st" d="m1448 1992c-34-7-20-32 17-32 23 0 35 5 35 14 0 15-25 24-52 18z"/>
  <path d="m3600 1945c0-20 5-25 25-25 29 0 32 12 9 34-22 23-34 20-34-9z"/>
  <path id="pe0e9ny5d" d="m1314 1792c-6-4-15-22-19-41l-7-34 38 6c22 4 45 7 52 7s12 14 12 35c0 33-2 35-32 35-18 0-38-4-44-8z"/>
  <path id="pn20Lnizs" d="m3620 1755c0-33 2-35 35-35s35 2 35 35-2 35-35 35-35-2-35-35z"/>
  <path d="m3410 1282c0-15 9-21 46-26 69-9 84-8 84 8 0 14-11 18-92 32-33 5-38 4-38-14z"/>
  <path id="paqLiNcUX" d="m4e3 1140c0-21 10-24 48-14 36 10 27 34-13 34-28 0-35-4-35-20z"/>
  <path id="pgrguCy0f" d="m3750 1090c0-21 10-24 48-14 36 10 27 34-13 34-28 0-35-4-35-20z"/>
 </g>
 <g id="l2kr1oPmh8g2MNbeBM7eSrr" transform="translate(-674.62 -1007.8)" fill="#ff848f">
  <path id="pedxDh9MB" d="m3330 3404c0-44 18-42 37 4 13 31 12 32-12 32-22 0-25-4-25-36z"/>
  <path id="pnm4WCbJD" d="m2860 3385c-123-37-161-55-208-102l-34-35 4-79c3-43 7-82 10-85s28 10 55 29c121 86 260 104 463 61 30-6 90 41 151 119 46 57 48 67 14 67-18 0-25-5-25-20 0-27-26-26-103 6-137 57-230 68-327 39z"/>
  <path d="m3986 3124c-9-23-8-24 19-24 30 0 33 15 6 29-15 8-20 7-25-5z"/>
  <path id="ph7Eciwku" d="m3926 3011c-3-4-10-20-15-35-10-24-8-26 14-26s25 4 25 35c0 33-12 46-24 26z"/>
  <path id="pO5RANXIR" d="m3874 2845c-23-125 67-268 184-291 28-6 32-4 32 15 0 17-6 21-30 21h-30v88c0 81-14 142-33 142-4 0-26 14-49 30-53 39-66 38-74-5z"/>
  <path d="m4183 2593c-24-5-33-43-10-43 32 0 87 22 87 35 0 15-27 18-77 8z"/>
  <path id="pF57amPxS" d="m2892 2298c-20-20-14-28 23-28 24 0 35-5 35-15 0-8-7-15-15-15-26 0-16-14 35-48l50-32v30c0 22-5 30-17 31-16 0-16 1 1 8 18 7 16 10-15 33-32 24-73 48-81 48-2 0-9-5-16-12z"/>
  <path id="ppuwqMGVT" d="m1393 1976c-48-22-87-95-87-168-1-32-4-58-8-58-5 0-8-5-8-11 0-18 114-4 152 18 18 10 47 42 64 71 33 54 52 141 34 152-20 12-115 10-147-4z"/>
  <path id="p1DzxbmJFB" d="m3461 1983c-22-4-23-8-17-49 15-116 119-214 226-214h28l-5 63c-7 83-42 161-85 187-32 19-87 24-147 13z"/>
  <path id="p1DsrMhEME" d="m4280 1471c0-6-25-25-55-43s-55-36-55-40c0-14 68-8 84 7 8 8 19 15 24 15s12 10 16 23c8 32 7 47-4 47-5 0-10-4-10-9z"/>
  <path id="paIx4TpkP" d="m4050 1343c-113-44-230-63-390-63-133 0-166 4-307 37-22 5-23 3-23-70 0-112 6-122 92-149 65-20 93-23 248-23 158 1 186 4 285 29 146 37 252 79 295 115l35 30-37 1c-21 0-38-4-38-8s-16-14-35-21-35-17-35-22-9-9-19-9c-14 0-21 9-25 30-3 17-9 43-12 59-4 24-1 31 15 36 14 4 21 15 21 31 0 13-1 24-2 23-2 0-32-12-68-26z"/>
 </g>
 <g id="l2StgU4KzN8ORKtQHVMaKrP" transform="translate(-674.62 -1007.8)" fill="#ff7084">
  <path id="pJlj4vRlK" d="m3344 3463c-4-21-13-43-20-50s-14-18-16-24c-3-8-29-3-84 18-125 48-178 63-226 63-70 0-157-20-210-47-27-14-60-25-73-25-21 0-30-11-55-62-16-33-33-76-36-95-6-31-5-32 12-23 10 6 36 26 57 46 21 19 53 40 70 46 18 6 46 18 64 25 67 29 150 40 201 27 79-21 202-75 202-89 0-7 10-13 23-13 29 0 78 66 113 150 29 72 30 90 4 90-14 0-21-9-26-37z"/>
  <path d="m3956 3068c-39-72-76-175-76-214 0-15 3-24 7-21 3 4 21-4 39-18s36-25 41-25c21 0 35-63 30-136-5-83-3-86 66-99 31-6 37-5 37 10 0 18-35 55-52 55-4 0-8 47-8 105 0 123-13 159-66 181-19 8-34 17-34 20 0 13 56 130 70 147 8 9 21 17 29 17 11 0 10 4-4 20-28 31-42 24-79-42z"/>
  <path id="p2jqYwX8e" d="m4183 2597c-31-8-43-16-43-29 0-21 14-22 76-7 32 8 44 16 44 30 0 21-11 22-77 6z"/>
  <path id="p1B0PHNCHb" d="m2880 2266c0-8 27-31 61-52 33-20 74-55 90-77l29-40v36c0 48-9 67-31 67-10 0-19 7-19 15s-7 15-15 15-15 4-15 10c0 5-11 12-25 16-14 3-25 10-25 15s-11 9-25 9c-15 0-25-6-25-14z"/>
  <path id="p1CEhJyBpK" d="m1516 1974c-3-9-6-26-6-38s-15-48-34-79l-35-57h30c16 0 29 5 29 11s7 17 15 25c8 9 15 31 15 50s5 34 10 34c6 0 10 13 10 29 0 31-25 49-34 25z"/>
  <path id="pfeQtdueH" d="m3500 1829c0-42 25-69 63-69 17 0 27-5 27-15 0-12 13-15 55-15 30 0 55 5 55 10 0 6-8 10-19 10-35 0-96 32-138 73l-43 41z"/>
  <path id="p13tf4Spqm" d="m1370 1769c-14-4-37-10-52-13-17-4-28-13-28-23 0-13 8-15 51-10 60 7 62 9 57 35-2 15-8 17-28 11z"/>
  <path id="pL1rfaSKN" d="m4276 1461c-11-12-66-45-124-74l-104-52 6-67c7-83 20-118 43-118 27 0 143 57 143 71 0 7-14 10-40 7-36-3-40-1-40 20 0 13-4 32-10 42-15 27-4 45 41 65 21 10 39 24 39 32 0 7 10 13 23 13 36 0 49 14 45 50l-3 32z"/>
  <path id="pRQ50xNMS" d="m4270 1273c0-35 0-36 20-18 11 10 20 26 20 37s-7 18-20 18c-16 0-20-7-20-37z"/>
 </g>
 <g id="l2SrB5DLco8TygIjRUJ74I" transform="translate(-674.62 -1007.8)" fill="#ff627f">
  <path id="p1G8z3y0vg" d="m2995 3580c-103-19-161-48-243-122-52-47-74-81-66-102 8-20 38-21 54-1 7 8 18 15 24 15s32 11 57 24c25 14 76 30 114 37 74 13 101 7 256-52 41-16 87-30 101-31 16-1 24-7 21-15-3-7-2-13 1-13 9 0 52 90 67 139 12 40 11 45-6 58-64 46-276 81-380 63z"/>
  <path id="pvpXRahAU" d="m3980 3100c-23-32-74-141-82-177-5-18 2-25 38-42 66-31 78-63 71-183-6-97-6-99 18-110 13-6 22-15 19-19-14-23 131-22 193 2l25 9-4 133c-4 124-6 136-36 199-33 67-121 160-190 201l-30 17z"/>
  <path id="pD23gVWSG" d="m2887 2293c-19-18 0-42 67-85 47-30 79-58 89-79l15-32v39c0 21-9 53-19 71-37 60-128 111-152 86z"/>
  <path id="pGyTSvZDV" d="m1508 1925c-15-55-15-55 7-55 25 0 35 22 35 78 0 52-25 39-42-23z"/>
  <path id="pPeS0ZKIy" d="m3440 1948c1-40 25-111 40-116 5-2 10-10 10-18s10-14 25-14c20 0 25-5 25-24 0-26 16-36 61-36 41 0 36 16-12 40-46 24-94 92-111 158-13 51-38 58-38 10z"/>
  <path id="p129u2h4sE" d="m1415 1788c-16-10-49-23-72-29-53-14-58-39-8-39 19 0 35 5 35 10 0 6 12 10 28 10 38 0 54 13 50 42l-3 25z"/>
  <path id="prbZzkxeO" d="m4203 1411c-97-55-111-73-92-127 7-22 13-49 14-61 0-13 6-28 13-35 18-18 89 10 135 54l40 38-6 74c-8 111-8 111-104 57z"/>
 </g>
 <g transform="translate(-674.62 -1007.8)" fill="#15c7df">
  <path d="m1915 3389c-39-5-78-17-90-27-48-41-106-55-121-31-8 13-93 6-103-9-3-5-30-20-58-32-29-12-53-26-53-31s-13-9-28-9c-22 0-30-7-39-30s-18-30-37-30c-14 0-26-4-26-10 0-5-7-10-15-10s-15-7-15-15-6-15-14-15-28-13-46-30c-18-16-41-30-51-30s-19-4-19-10c0-5-5-10-10-10-6 0-27-16-47-35-22-21-46-35-61-35-24 0-25-2-19-47 4-27 9-58 13-70 5-17 2-23-10-23-9 0-21-11-26-25-5-13-18-30-30-37-11-7-20-20-20-30 0-9-4-20-10-23-5-3-10-37-10-74v-69l-66-12v-118c0-64-6-144-12-176-7-33-12-104-12-158 0-59-4-98-10-98-15 0-12-67 3-73 9-4 9-7-1-14-15-11-29-113-16-113 10 0 8-80-8-292-9-120-8-152 3-177 8-17 19-31 25-31 5 0 18-6 28-13 15-11 16-22 11-74l-7-60-45 5c-36 4-45 2-41-9 10-31 222-92 383-110 146-16 336 5 414 45 27 14 28 19 35 112 4 53 6 98 3 100-2 2-26-3-53-11-90-27-268-40-395-27-128 12-264 50-264 72 0 8-4 20-8 27-4 6-3 14 3 18s7 13 1 23c-6 11-4 31 4 54 7 21 10 39 8 42-13 12-13 99-1 114 10 12 10 14 1 8-7-4-13-2-13 3 0 6 5 11 12 11 6 0 3 10-8 22-15 19-16 20-1 9 14-11 17-11 17 1 0 8-3 18-7 22-11 11-14 46-3 46 6 0 10-8 11-17 0-12 2-13 6-5 3 7-1 19-7 27-9 11-9 15-1 15 16 0 14 16-4 34-16 16-20 30-6 22 5-3 12 1 15 10 4 10 2 13-7 8s-9-4 1 7c14 15 17 33 4 25-5-3-9 1-9 9s4 12 9 9 8 19 7 50c-1 37-6 53-13 49-6-3 0 6 13 20 14 15 20 27 15 27s-10 9-11 20 2 18 6 16c9-6 8 24-1 39-7 13-4 52 5 61 4 4 2 13-4 21-8 9-8 13-1 13s8 10 2 30c-5 18-5 28 0 25s9 7 8 22 1 39 6 53c5 17 4 21-2 11-7-10-10-4-9 22 0 20 5 33 10 30s4 4-2 15c-8 15-8 23 0 28 8 4 7 9-2 15-8 5-9 9-4 9 6 0 10 11 10 25s-3 25-7 25c-17 0 8 42 38 65 54 42 94 136 96 229 0 28 5 43 12 40 15-5 28 5 49 39 10 15 22 25 27 22 6-4 11-1 11 4 1 6 2 16 3 21 0 6 4 10 9 10h12c3 0 0-10-6-22-12-23-12-23 10-4 12 11 19 26 17 33-7 17 11 17 18 1 3-10 9-8 19 5 15 18 16 18 26 0 8-14 9-11 4 17-6 33-5 34 12 20 10-8 16-10 12-4-4 7 1 14 13 17 10 3 20 1 22-4 2-4 10-4 18 1 13 8 12 10-2 10-10 0-18 7-18 16 0 14 2 15 17 3 9-8 14-9 11-4-4 6-3 17 3 25 5 9 9 10 9 4 0-7 7-14 14-17 11-4 13-1 9 10-5 12-2 15 10 10 9-3 17-2 17 4s5 7 12 3c8-5 9 0 5 16-4 17-3 20 6 11 14-14 30-15 22-1-3 6 2 10 12 10 15 0 16 2 3 10-10 6-11 10-2 10 23 0 27-2 24-12-1-5 2-7 8-3 6 3 8 10 5 15-3 4-2 15 1 24 5 12 10 13 26 5 16-9 19-8 12 3-12 19-14 39-3 32 5-3 7-10 4-15-4-5 1-9 9-9 9 0 16 5 16 11 0 5 5 7 12 3s8-3 4 4c-6 10 8 18 17 10 7-7 34 28 29 37-6 9 11-2 80-58l35-27 64 16c46 12 92 15 169 12 96-4 112-7 182-41 42-20 86-48 96-62l20-25 11 50c21 96 12 157-24 166-13 3-25 14-28 25s-14 19-26 19c-14 0-21 6-21 19 0 15-11 19-67 24-37 4-70 12-74 18-9 15-119 20-204 8zm-745-488c0-5-6-14-14-20-12-10-13-8-9 8 5 21 23 30 23 12z"/>
  <path id="pF4HodV6T" d="m1933 2562c-58-55-97-106-113-146-9-24-8-27 5-22 9 3 18-1 22-10 3-8 12-13 19-10s16 1 19-4c4-6 1-10-6-10s-9-3-5-7c4-5 15 1 23 12 12 16 14 16 10 3-7-20 9-35 16-16 5 15 31-9 61-54 14-21 15-28 4-35-18-11-68-73-68-84 0-5 11-9 25-9 20 0 25 5 25 25 0 18 5 25 20 25 11 0 20 6 20 13 0 8 18 20 40 27 38 13 40 15 40 57 0 29-4 43-13 43-7 0-28 16-47 35s-40 35-48 35-25 9-39 20-32 20-39 20c-8 0-14 5-14 10 0 6 8 10 18 10 23 0 62 40 62 63 0 11 8 17 25 17 29 0 33 15 7 29-16 8-28 1-69-37z"/>
  <path id="pQfWgFZNN" d="m2083 2199c-18-5-33-14-33-19 0-6-9-10-20-10s-20-4-20-9-20-6-45-3c-25 2-45 1-45-3 0-29 23-135 30-135 4 0 11 11 14 24 11 43 90 102 161 121 39 11 65 23 65 31 0 16-57 17-107 3z"/>
  <path d="m2220 2196c0-8 19-18 48-25 26-7 64-23 85-37l37-24v30c0 20-5 30-15 30-8 0-15 4-15 8 0 12-70 32-109 32-20 0-31-5-31-14z"/>
  <path id="p8lZukS0r" d="m2397 2080c3-11 9-20 14-20s9 9 9 20-6 20-14 20c-9 0-12-7-9-20z"/>
  <path id="pxMzLvYre" d="m1520 1970c0-10 6-25 13-32 16-17 47-85 47-103 0-9 9-15 21-15 19 0 21 4 14 38-9 51-43 108-71 121-21 9-24 8-24-9z"/>
  <path id="pmlA2pl0V" d="m3420 1950-21-30h29c29 0 42 14 42 46 0 24-28 15-50-16z"/>
  <path id="pvXGjWtrG" d="m1576 1758c-3-13-6-33-6-45 0-14-6-23-15-23-11 0-15-11-15-36 0-33 2-35 17-23 19 17 63 107 63 132 0 26-36 22-44-5z"/>
  <path id="pHhlNJxAM" d="m1290 1719c0-28 25-90 42-105 17-16 18-15 18 19 0 21-4 37-10 37-5 0-10 14-10 30 0 23-4 30-20 30-11 0-20-5-20-11z"/>
  <path id="pjXNk2hF" d="m3660 1685c0-40 24-49 34-12s7 47-14 47c-16 0-20-7-20-35z"/>
  <path id="pPdhIWcYZ" d="m1129 1607c-32-25-51-66-44-94 14-57 85-101 85-53 0 13-7 20-19 20-13 0-20 10-25 31-9 45-8 49 9 49 8 0 15 5 15 10 0 6 7 10 15 10s15 9 15 20c0 23-26 26-51 7z"/>
  <path id="paCnNyFDg" d="m1190 1597c0-13 13-33 31-48 26-21 31-31 25-52-4-17-15-29-31-33-14-3-25-10-25-15 0-30 67 24 75 61 7 32-23 91-52 101-19 7-23 5-23-14z"/>
  <path id="pAqgZk7AM" d="m3460 1612c0-7 17-18 63-40 4-2 7 8 7 22 0 23-4 26-35 26-19 0-35-4-35-8z"/>
  <path id="p10g3IahrP" d="m3777 1609c-9-5-24-23-32-39-31-60 13-130 81-130 31 0 34 3 34 30 0 35-10 38-28 10-15-25-44-26-65-2-22 25-21 37 5 62 16 14 18 20 7 21-8 0-2 4 12 9 44 13 79 1 79-26 0-17 6-24 20-24 29 0 25 32-9 69-30 32-69 40-104 20z"/>
  <path id="pZF1h28Ox" d="m1440 1590c0-23 17-25 54-9 33 15 24 29-20 29-27 0-34-4-34-20z"/>
  <path id="pX4v5Evto" d="m3580 1590c0-23 26-26 53-6 25 20 21 26-18 26-28 0-35-4-35-20z"/>
  <path id="pniYoCzuF" d="m1530 1554c-34-40-1-114 51-114 55 0 84 73 47 117-15 18-83 16-98-3zm80-49c0-21-5-25-30-25-31 0-39 17-18 38 22 22 48 14 48-13z"/>
  <path id="pdOGgnZWy" d="m3430 1512c0-34 4-62 8-62 35 0 43 77 12 105-20 18-20 17-20-43z"/>
  <path id="p9URmlKOR" d="m678 1281c7-21 106-101 123-101 5 0 9 11 9 25 0 16-6 25-15 25-8 0-15 5-15 10 0 6-11 10-24 10-18 0-25 6-28 23-2 16-11 23-30 25-24 3-27 1-20-17z"/>
 </g>
 <g id="l6VRRmFp74fxRZ7zoyS4Vux" transform="translate(-674.62 -1007.8)" fill="#0dacc2">
  <path id="pwy26oD3N" d="m1488 3447c-65-39-163-101-219-137s-116-73-133-83c-91-51-166-103-166-114 0-14 66-19 72-5 5 11 66 52 78 52 5 0 10 5 10 10 0 6 9 10 19 10 11 0 26 7 35 15 8 8 20 15 27 15 15 0 82 40 91 56 4 6 22 17 40 24 18 8 60 35 93 60 78 61 90 65 104 33 12-26 7-43-11-43-6 0-20-10-32-23-12-12-47-31-78-41-47-14-64-26-94-66-21-27-50-54-66-61-16-6-37-22-47-35-11-13-28-24-40-24s-24-6-27-14c-3-7-26-24-51-37l-45-23 5-46c3-25 9-55 12-67 6-19 3-23-14-23-12 0-21-6-21-15s-11-20-24-25c-32-12-46-62-46-167v-82l-75-12c-72-12-75-14-75-40 0-14 7-44 16-65 14-33 15-70 9-274-4-129-14-298-23-375-8-77-16-178-17-225-1-84-15-140-35-140-5 0-10-15-10-33 0-29 6-36 56-65 31-18 60-32 64-32 14 0 24-91 13-109-6-9-19-14-29-13-97 18-118 11-64-21 30-18 141-59 146-54 2 1 6 48 10 105l7 102-34 14c-19 9-30 15-25 16 5 0 1 9-9 20-18 20-18 21 1 14s19-7 0 15c-17 18-17 21-3 15 19-7 20-3 8 48-5 22-5 36 0 32 5-3 9-1 9 5 0 5-4 13-10 16-5 3-10 11-10 16 0 6 5 7 10 4 6-3 10 4 10 17 0 19-2 20-10 8-7-11-9-6-8 20 2 19 10 41 18 48 11 10 11 12 1 6-10-5-12-3-5 7 12 19 13 71 1 86-5 7-6 21-2 30 9 20 13 66 17 165 1 38 6 68 11 68s4 6-2 14c-12 14-11 66 1 66 4 0 8 5 8 11 0 5-4 8-8 5-5-3-9 2-9 10 0 9 6 13 15 9 12-4 12-3 3 9-6 8-11 18-10 22 1 5 0 11-1 14s-3 15-4 27c-2 19 0 21 12 10 13-10 14-9 3 11-10 18-9 23 4 28 14 6 14 8-2 20-10 7-13 14-8 14 6 0 10 21 11 47 0 27 3 82 7 123 4 51 2 79-6 89-10 12-8 13 11 9 12-4 20-2 16 3-3 5 1 9 9 9s22 10 33 22c10 12 13 18 7 14-16-9-19 99-3 109 6 3 10 14 10 23s16 28 35 41c32 22 51 52 23 35-8-4-9-3-5 2 5 5 16 9 25 9 18 0 19 5 9 75-7 52 1 70 31 73 12 0 19 3 17 5s8 17 23 32c19 20 31 25 40 18 9-8 12-5 12 11 0 20 1 21 16 7 8-9 21-16 27-15 9 0 8 2 0 6-20 8-15 23 7 23 11 0 20 5 20 11 0 5-6 7-12 3-8-5-7-1 2 10 8 11 16 14 18 7 2-6 8-11 13-11 4 0 6 6 3 14-7 18 16 32 26 16s40-6 40 14c0 8-6 16-12 19-7 2-5 3 5 1 10-1 27 6 38 17s24 17 29 14c6-3 7 1 4 9-3 9-1 16 5 16s8 8 5 18c-5 14-4 15 5 2 7-10 11-11 11-3 0 9 7 10 27 2 15-6 24-7 20-3-9 10 44 36 60 29 8-2 11 0 8 5-3 6-1 10 4 10 6 0 10 6 8 13-1 6 4 11 11 10 6-2 12 4 12 12 0 18 16 20 23 3 3-7 6-4 6 7 1 16 7 13 35-17 32-34 37-36 60-25 14 7 26 17 26 23s11 10 25 9c14-2 23 1 19 6-3 5-10 6-16 3-6-4-8-2-4 4 3 6 15 9 26 7 12-2 18 0 16 4-3 5 4 17 17 27 15 13 18 14 9 3-10-14-9-17 8-22 11-3 18-2 15 3-3 4 5 10 16 13 13 4 18 10 14 17s5 4 19-5c26-17 28-17 47 4 11 11 23 21 26 21 4 0 2-5-5-12-16-16-16-33 1-21 20 17 56 22 51 9-3-7 2-13 10-13s12 7 10 16c-3 9 0 7 6-4 9-17 51-38 98-48 7-2 18-9 24-15 7-7 16-12 20-12s17-9 28-20 31-20 45-20 25-4 25-9c0-10 30-24 37-17 2 2-1 25-8 51-9 34-18 49-35 56-13 4-24 15-24 24 0 8-7 15-16 15s-22 7-28 16c-7 8-31 18-54 21s-42 10-42 15c0 6-18 8-40 6-28-2-40 0-40 9 0 10-25 13-95 13-52 0-95-3-95-7 0-11-50-33-71-33-10 0-21-4-24-10-3-5-15-10-26-10-10 0-19-4-19-10 0-5-13-10-29-10-37 0-53 22-82 107-11 35-24 63-27 63-4 0-60-33-124-73z"/>
  <path id="ph6XXkKfd" d="m1477 3193c-10-9-9-23 2-23 5 0 11 7 15 15 5 15-5 20-17 8z"/>
  <path id="pdUwF0D0P" d="m1918 2543c-31-32-61-68-67-80-10-20-9-23 8-23 30 0 52-11 44-23-3-5-1-7 5-3 6 3 13 2 17-4 3-5 14-10 24-10 9 0 32-16 51-35s40-35 47-35 13-7 13-15-6-15-14-15-28-11-43-25l-28-24 25-1h25l-29-19c-17-11-34-17-39-14-14 8-36-30-36-62 0-34 17-82 18-53 1 9 5 19 10 22s9 0 8-7c-1-48 2-50 38-18 42 36 97 66 143 76 20 4 32 13 32 23 0 23-23 82-32 82-4 0-8 17-8 38 0 30-7 45-32 69-37 35-101 73-123 73-8 0-15 4-15 9s-11 12-25 15c-30 8-33 26-5 26 12 0 35 10 52 23 22 16 32 18 35 10 5-14 73-18 73-5 0 10-84 62-101 62-8 0-40-26-71-57z"/>
  <path id="p12XjmjlnZ" d="m2110 2503c0-33 16-53 42-53 10 0 18-7 18-15 0-10 10-15 30-15 25 0 30-4 30-25 0-22 4-25 35-25 19 0 35 2 35 4 0 3-129 111-177 149-10 7-13 2-13-20z"/>
  <path id="p05JVMeCW" d="m726 2398c-3-13-6-51-6-85 0-56 2-63 20-63s20 7 20 85c0 66-3 85-14 85-7 0-16-10-20-22z"/>
  <path id="pIlMGsMiX" d="m2330 2306c0-33 2-36 31-36h30l-21 30c-31 44-40 45-40 6z"/>
  <path id="puotwyEki" d="m2270 2186c0-8 14-17 30-21 30-7 84-52 107-90 11-18 12-16 12 18 1 31-2 37-19 37-15 0-20 7-20 25s-5 25-20 25c-11 0-20 5-20 10 0 6-16 10-35 10-24 0-35-5-35-14z"/>
  <path id="p1C9JjhECR" d="m716 2068c-12-48-7-78 14-78 17 0 20 7 20 50 0 36-4 50-14 50-7 0-16-10-20-22z"/>
  <path d="m706 1808c-11-42-7-58 14-58 17 0 20 7 20 40 0 45-23 57-34 18z"/>
  <path id="pztXgMLwj" d="m3370 1798c0-30 13-58 26-58 9 0 14 12 14 35 0 28-4 35-20 35-11 0-20-6-20-12z"/>
  <path id="p7Hm5qeui" d="m1580 1755c0-40 24-49 34-12s7 47-14 47c-16 0-20-7-20-35z"/>
  <path id="p15aFLCAHU" d="m1290 1728c0-30 13-58 26-58 9 0 14 12 14 35 0 28-4 35-20 35-11 0-20-6-20-12z"/>
  <path id="pq05SWsH" d="m696 1648c-10-38-7-48 14-48 16 0 20 7 20 35 0 40-24 49-34 13z"/>
  <path id="pAJpRgMeR" d="m1480 1605c0-31 11-32 47 0l28 24-37 1c-34 0-38-3-38-25z"/>
  <path id="pxNn0EbDA" d="m1160 1600c0-16 7-20 35-20 39 0 46 14 16 30-31 16-51 12-51-10z"/>
  <path d="m3810 1601c0-15-8-21-32-23-31-3-33-6-36-44-4-54 20-83 75-91 35-5 45-2 67 20 32 32 35 67 6 67-11 0-20-4-20-10 0-5-6-10-14-10s-17-11-20-25c-8-30-45-34-69-7-26 28-21 52 13 65 17 6 30 17 30 24 0 8 13 13 35 13 39 0 43 6 18 26-27 20-53 17-53-5z"/>
  <path id="pzG0azdoh" d="m1600 1540c0-23 4-30 20-30 13 0 20 7 20 20 0 10-9 24-20 30-18 10-20 8-20-20z"/>
  <path id="p1EnZi2lnM" d="m1132 1503 3-58 38-3c41-4 49 8 15 23-31 14-34 48-7 74l23 21h-75z"/>
  <path id="phpjqsWLe" d="m1520 1492c0-19 18-42 32-42 4 0 8 14 8 30 0 23-4 30-20 30-13 0-20-7-20-18z"/>
 </g>
 <g id="l4FRNAF2U26hSpcMGoyTRYN" transform="translate(-674.62 -1007.8)" fill="#129fb8">
  <path d="m1640 3534c-30-14-56-26-57-28-8-8 60-162 88-197 30-38 34-40 45-24 7 10 15 23 17 29s8 7 13 3 3-12-5-16c-10-7-10-9 1-14 8-3 20 4 26 14 7 10 20 19 30 20 15 0 14 2-3 10-15 7-12 8 15 4 25-4 31-2 20 5-8 5-13 10-10 11 44 7 55 11 66 20 6 5 18 8 25 7 8-2 13 2 12 9-2 7 4 10 12 7 8-4 15-13 15-21s4-12 10-8c5 3 7 13 4 23-5 14-4 15 5 2 10-13 12-13 21 0 8 13 10 13 10-1 0-9 6-16 14-16s12 6 10 12c-3 6 2 12 11 12 8 0 15-8 15-16 0-18 60-23 72-6 5 6 8 3 8-7 0-12 5-15 16-11 9 3 20 0 25-8 7-12 9-12 9 0 0 8 8 3 20-11 14-19 26-24 45-21 18 4 25 1 25-10 0-9 16-24 36-33s40-27 45-38c7-16 8-12 5 17-6 48-45 127-63 127-8 0-23 9-35 20s-28 20-35 20-13 5-13 10c0 6-11 10-24 10s-26 4-28 10c-1 5-49 13-104 16-115 8-262-10-271-32-3-8-16-14-28-14-15 0-26-8-30-20-11-36-44-24-64 23-37 84-37 87 3 87 32 0 36 3 36 25 0 14-1 25-2 25-2 0-28-12-58-26z"/>
  <path id="ppLU87RLe" d="m1485 3437c-11-7-47-33-80-58s-75-51-93-59c-18-7-36-18-40-24-10-17-77-56-95-56-8 0-17-5-19-10-2-6-14-12-28-15s-26-9-28-15c-2-5-8-10-13-10-11 0-70-40-81-55-4-5-8-6-8-2 0 10-40-11-40-22 0-4 20-43 45-87 43-76 50-112 22-123-5-2-18-12-28-22-11-11-23-19-28-19-13 0-22-101-15-184 6-68 5-76-12-83-24-10-115-9-171 2l-43 8v-114c0-132-26-746-39-929-5-69-6-127-2-130 23-19 119-78 134-83 17-6 18-17 16-93-3-92-2-95 52-107 19-5 26-3 26 8 0 8-5 15-11 15s-4 6 4 13c19 15 23 55 11 108-8 33-7 39 5 35 8-3 14-1 14 4s-28 23-62 40c-73 37-107 60-91 60 7 0 19 16 29 35 15 32 17 49 14 150-1 22 6 103 14 180s18 259 22 405c5 219 4 271-8 300l-14 35 75 15 76 15-1 88c0 48 4 87 9 87s7 9 4 20c-6 23 15 56 31 46 5-3 12-2 14 3 1 6 15 11 30 13s31 8 35 13c4 4 2 5-4 1-9-5-11 1-7 21 3 15-2 50-10 77-14 46-14 51 2 62 9 8 22 14 28 14 7 0 22 11 35 25 13 13 32 25 43 25 10 0 26 11 37 24 10 13 31 29 47 35 16 7 45 34 66 61 30 40 47 52 94 66 31 10 67 29 80 43 12 13 25 21 29 18 3-4 14 6 24 23 18 29 18 30-7 75-27 48-49 56-89 32z"/>
  <path d="m1976 2585c-9-9-16-14-16-11s-20-14-45-38c-25-25-45-51-45-59 0-13 33-31 53-28 4 1 7-3 7-9 0-5 7-10 15-10s31-9 52-21c83-46 137-123 78-111-19 3-25 0-26-14 0-11-3-14-6-6-8 19-20 15-63-24-41-37-67-101-55-132 5-13 11-10 31 16 25 31 134 112 151 112 5 0 15-16 22-35 12-35 13-35 74-35 99-1 158-29 198-95l19-30v65c0 100-23 153-105 235-78 78-198 174-274 217-45 26-50 27-65 13z"/>
  <path id="p5NRWOBNp" d="m1520 1960c0-11 5-20 10-20 6 0 10-7 10-15s6-15 14-15c9 0 16-18 20-50 6-42 10-50 27-50 19 0 20 4 14 37-12 64-54 133-82 133-7 0-13-9-13-20z"/>
  <path id="p11soakZQD" d="m3445 1972c-5-4-16-15-24-24-12-16-11-18 18-18 26 0 31 4 31 25 0 25-7 30-25 17z"/>
  <path id="pRbUtjCQG" d="m3388 1898c-7-13-12-53-12-89 0-75 36-164 81-199 34-26 43-25 43 5 0 16-6 25-15 25-8 0-15 7-15 15s-4 15-10 15c-5 0-10 7-10 15s-6 15-14 15c-17 0-28 91-20 165 7 59-5 73-28 33z"/>
  <path id="p1DwEiEv7I" d="m1580 1765c0-19-4-35-10-35-5 0-12-11-16-25-3-14-10-25-15-25s-9-13-9-30c0-28-3-30-35-30-30 0-35-3-35-24 0-20 4-23 22-18 41 10 106 86 122 143 21 68 20 79-4 79-16 0-20-7-20-35z"/>
  <path id="pCufiFfPF" d="m1295 1708c9-55 28-91 61-117 35-27 64-27 64-1 0 15-9 22-30 27-21 4-30 11-30 24 0 11-4 19-9 19-6 0-13 20-17 45-5 36-10 45-26 45-18 0-19-4-13-42z"/>
  <path id="p13YDyWNoz" d="m3650 1680c-8-28-19-50-27-50-7 0-13-11-13-25s4-25 10-25c17 0 60 55 70 90 14 50 12 60-8 60-14 0-22-13-32-50z"/>
  <path id="p1VbxNVyn" d="m1122 1595c-33-28-43-65-17-65 10 0 15-11 15-35 0-31 3-35 25-35 14 0 25-4 25-10 0-5 9-10 20-10 26 0 70 43 70 67-1 11-7 5-15-15-13-29-19-33-47-30-29 3-33 7-36 35-3 27 1 35 23 45 21 9 31 9 46 0 25-16 29-15 29 6 0 25-40 60-76 68-24 4-37 0-62-21zm28-40c0-14-4-25-10-25-5 0-10 11-10 25s5 25 10 25c6 0 10-11 10-25z"/>
  <path id="phB2SwRyy" d="m3760 1590c-28-28-25-42 8-38 21 2 28 9 30 31 4 32-10 35-38 7z"/>
  <path id="pOtBCsEdA" d="m3362 1558c-17-17-15-48 4-48 20 0 44 24 44 44 0 19-31 21-48 4z"/>
  <path id="pCTGyPBZi" d="m1600 1480c0-32 9-37 28-18s15 48-8 48c-16 0-20-7-20-30z"/>
  <path id="pzlkVLU7m" d="m3417 1493c-11-10-8-53 3-53 13 0 50 37 50 50 0 11-43 14-53 3z"/>
  <path id="pL5vSpyFu" d="m3746 1487c8-22 54-47 87-47 23 0 67 33 67 50 0 20-43 9-66-15-21-23-27-24-46-14-13 7-29 19-36 28-11 14-11 14-6-2z"/>
  <path d="m1526 1475c6-14 35-35 48-35 3 0 6 11 6 25 0 21-5 25-30 25-22 0-28-4-24-15z"/>
  <path id="pUUMpWhIj" d="m701 1253c15-18 98-73 111-73 4 0 8 11 8 25 0 18-7 26-24 31-14 3-27 12-30 20s-20 14-42 14c-33 0-35-2-23-17z"/>
 </g>
 <g id="l2TLsUIe33R49B7rm5gcLMt" transform="translate(-674.62 -1007.8)" fill="#0b88a1">
  <path d="m1770 3574c-36-7-89-24-119-35-53-22-53-22-48-61 7-52 64-171 77-163 6 4 9 13 6 21-6 17 15 19 31 3 9-9 16-4 30 17 11 18 25 28 35 26 9-2 22 6 28 18 7 14 17 19 27 16 9-4 22-1 30 5 10 9 20 9 38 1s24-8 22 0c-1 6 4 13 12 16 8 2 11 0 8-6-4-6 6-8 26-6 17 1 32 3 32 4s10 3 23 4c12 2 22-2 22-8s21-12 47-13c32-2 52-8 60-20 12-16 13-16 13 3 0 11 3 15 8 8 4-6 16-14 27-18 16-6 17-9 5-17-11-8-10-9 8-4 15 5 22 2 22-8 0-18 30-31 31-14 0 7 5 3 10-8s23-28 40-37c30-18 30-18 23 5-23 74-124 186-206 228-58 30-183 59-247 58-31 0-85-7-121-15z"/>
  <path id="pRifK5cfU" d="m963 3123c-19-7-16-25 10-53 27-31 55-91 50-107-3-7-11-13-18-13-24 0-52-39-75-103-18-49-21-72-16-121 9-80 7-130-4-134-6-2-10-13-10-24 0-18 4-19 37-13 21 4 42 9 46 12 5 3 8 51 8 107-1 156-1 156 13 156 8 0 17 7 20 16 4 9 13 14 22 10 8-3 12-2 9 4s-1 10 4 10c6 0 11 7 11 15s6 15 14 15c22 0 1 67-48 151-41 73-50 82-73 72z"/>
  <path id="pTjpPk94c" d="m730 2592c0-13 12-22 39-30 52-16 61-15 61 6 0 13-12 22-39 30-52 16-61 15-61-6z"/>
  <path id="pBiUaYGhx" d="m2004 2271c-22-15-47-40-57-54-16-24-16-26 1-30 12-3 11-5-5-6-18-1-23-7-23-30 0-40 14-46 31-14 7 14 41 44 74 66 71 48 77 55 64 79-14 26-40 22-85-11z"/>
  <path id="p1Db1AKsvP" d="m3411 1934c-27-35-26-44 4-44 22 0 25 4 25 35 0 19-2 35-4 35-3 0-14-12-25-26z"/>
  <path id="p1H5ZeTCid" d="m1580 1835c0-28 4-35 20-35 21 0 24 10 14 48-10 36-34 27-34-13z"/>
  <path id="p161pK7njL" d="m3376 1835c-8-33 3-75 20-75 10 0 14 14 14 50 0 55-23 71-34 25z"/>
  <path id="pb7ZbMsIr" d="m1570 1725c0-39 14-46 30-16 16 31 12 51-10 51-16 0-20-7-20-35z"/>
  <path id="pHq9F68Vc" d="m1294 1734c3-9 6-20 6-25s7-9 15-9c9 0 15 9 15 25 0 19-5 25-21 25-15 0-19-4-15-16z"/>
  <path id="p1Az4bMopt" d="m3660 1710c0-45 23-57 34-17 11 41 7 57-14 57-17 0-20-7-20-40z"/>
  <path id="p1F6xDIf3x" d="m3390 1724c0-21 18-54 30-54 6 0 10 16 10 35 0 28-4 35-20 35-11 0-20-7-20-16z"/>
  <path d="m1307 1663c10-28 43-73 54-73 5 0 9 14 9 30 0 17-4 30-10 30-5 0-10 7-10 15 0 9-9 15-25 15-19 0-23-4-18-17z"/>
  <path d="m3436 1635c8-19 84-65 107-65 10 0 17 8 17 20 0 16-7 20-35 20s-35 4-35 20-7 20-30 20c-22 0-28-4-24-15z"/>
  <path id="pYOv5wfRL" d="m1490 1625c0-10-10-15-30-15-23 0-30-4-30-20 0-11 7-20 15-20 21 0 88 35 104 54 12 14 9 16-23 16-25 0-36-4-36-15z"/>
  <path id="pFYDNKtok" d="m1145 1610c-12-4-27-15-34-23-11-14-4-16 65-16 75 0 77 1 58 18-23 23-62 32-89 21z"/>
  <path d="m3788 1609c-27-15-21-29 12-29 17 0 39-9 50-20 19-19 19-20 2-20-15 0-17-6-14-34 3-26-1-37-19-50l-23-16h31c34 0 60 24 55 52-2 11 3 18 12 18 35 0 4 79-39 98-31 14-44 15-67 1z"/>
  <path id="pRtDIxC0L" d="m1535 1550c-18-19-17-20 6-20 13 0 41-3 62-6 40-7 48 4 21 30-22 22-67 20-89-4z"/>
  <path id="pi9Xeux0z" d="m3400 1550c0-11 7-20 15-20s15-9 15-20c0-13 7-20 20-20 24 0 26 26 4 58-19 28-54 30-54 2z"/>
  <path id="pGY5CD8di" d="m1120 1516c0-13-6-27-12-30-20-8 30-46 61-46 14 0 33 5 41 10 12 8 9 10-12 10-33 0-49 25-37 57 7 20 5 23-16 23-20 0-25-5-25-24z"/>
  <path id="pYg1mnA3i" d="m3350 1491c0-22 35-51 62-51 25 0 23 37-2 45-11 3-20 11-20 16s-9 9-20 9c-13 0-20-7-20-19z"/>
  <path id="psIVzhOPX" d="m1520 1490c0-13 41-50 56-50 23 0 45 12 55 32 10 19 8 20-25 16-20-2-36 0-36 4s-11 8-25 8-25-4-25-10z"/>
  <path id="p1DXEsUhNE" d="m686 1458c-15-72-15-165-1-185 17-24 110-88 157-108l33-13-1 69c-1 37 3 66 7 63 5-3 9 9 9 25 0 18-5 31-12 31-10 0-10 2 0 8 8 6-6 18-44 38-31 16-73 44-94 62-45 38-48 39-54 10zm72-127-15-21-11 26c-7 13-12 35-12 47 0 21 1 21 26-5 24-24 25-28 12-47z"/>
 </g>
 <g id="l59vNo89ms7GPpKaj0iGe4m" transform="translate(-674.62 -1007.8)" fill="#097d96">
  <path id="pT2xdK3Jc" d="m898 3071c-132-106-168-186-168-377v-114l28-12c36-14 123-22 165-14 32 6 34 8 35 54 1 26-3 72-9 102-8 45-7 62 5 92 9 21 16 40 16 43-2 17 38 67 57 71 13 4 26 18 32 36 9 26 7 38-20 89-53 99-55 100-141 30z"/>
  <path id="p85jiezwW" d="m2040 2293c-50-20-120-104-120-144 0-36 12-37 34-4 9 13 42 42 74 63 44 29 57 43 57 62 0 25-17 34-45 23z"/>
  <path id="p6X8tNORa" d="m1530 1950c0-17 4-30 8-30 14 0 42-93 42-137 0-31 4-43 15-43 21 0 28 56 15 115-20 88-80 160-80 95z"/>
  <path id="p1HnebLPPj" d="m3422 1944c-42-51-47-74-16-74 21 0 24 5 24 35 0 28 4 35 20 35 13 0 20 7 20 20 0 29-15 25-48-16z"/>
  <path id="p10Fu3rthj" d="m3660 1715c0-42 24-49 34-10 8 30 1 45-20 45-9 0-14-11-14-35z"/>
  <path id="p13eDd6Y0E" d="m3398 1702c17-41 46-79 76-100 41-28 46-28 46 3 0 18-5 25-20 25-11 0-20 7-20 15s-9 15-20 15c-16 0-20 7-20 30 0 25-4 30-25 30-19 0-23-4-17-18z"/>
  <path id="pwQ3M0mNB" d="m1300 1694c0-9 10-34 22-56 33-59 108-92 108-48 0 13-7 20-19 20-10 0-21 7-25 15-3 8-15 15-26 15-16 0-20 6-20 35 0 28-4 35-20 35-12 0-20-7-20-16z"/>
  <path d="m1540 1665c0-43 10-44 33-6 22 38 22 41-8 41-22 0-25-4-25-35z"/>
  <path d="m3797 1613c-14-4-17-11-13-26 3-12 6-25 6-29 0-5 6-8 14-8 20 0 46-39 39-59-3-9-13-24-21-33-27-32 26-22 59 11 34 34 38 66 9 74-13 3-22 17-26 36-4 17-10 31-14 31-5 0-14 2-22 4-7 2-21 1-31-1z"/>
  <path id="pj8pKeMtw" d="m3570 1590c0-22 20-26 51-10 30 16 23 30-16 30-28 0-35-4-35-20z"/>
  <path d="m1106 1578c-22-31-20-38 9-38 21 0 25 5 25 30 0 36-13 38-34 8z"/>
  <path id="p1DWgLIpDu" d="m1210 1576c0-16 7-27 21-31 29-10 34 0 15 30-21 32-36 32-36 1z"/>
  <path id="phYiToU7r" d="m1570 1550c0-11 7-20 15-20s15-4 15-9c0-25-14-41-36-41-29 0-31-15-4-30 21-11 57 1 72 24 14 20 8 63-10 79-26 23-52 22-52-3z"/>
  <path id="przYJHvZE" d="m3366 1554c-23-22-20-34 9-34 20 0 25 5 25 25 0 29-12 32-34 9z"/>
  <path id="p9yJoWKYm" d="m1532 1548c-19-19-15-48 8-48 16 0 20 7 20 30 0 32-9 37-28 18z"/>
  <path id="pXG04Sh9a" d="m1090 1516c0-40 43-76 91-76 21 0 21 1-5 25-16 14-25 32-23 39 4 9-3 16-16 20-35 9-47 7-47-8z"/>
  <path id="pD05nzUYV" d="m3430 1500c0-13-7-20-20-20-24 0-27-28-4-37 19-7 64 34 64 59 0 11-7 18-20 18s-20-7-20-20z"/>
  <path d="m692 1446c-9-21-5-81 10-146 6-27 19-40 31-33 7 4 18 8 25 9 28 5 60 69 49 97-3 8-27 32-55 55l-49 41z"/>
 </g>
 <g id="l5hvPwuQ9cCY05WL2x022mT" transform="translate(-674.62 -1007.8)" fill="#255f76">
  <path id="p19TakWWMX" d="m1520 1957c0-36-48-123-85-155-18-16-56-36-84-43-46-12-51-15-51-41 0-40 22-88 55-118 20-19 37-25 74-25 136 0 227 183 164 326-32 71-73 103-73 56z"/>
  <path id="p1Fg6ISgWc" d="m3442 1964c-66-46-83-179-34-274 15-30 44-67 64-83 42-34 109-45 148-25 39 21 70 75 70 123v41l-50 13c-82 21-140 83-164 177-11 43-12 44-34 28z"/>
  <path id="pfrdExicW" d="m1115 1584c-53-57-12-144 66-144 18 0 17 3-8 24-27 24-27 26-13 53 21 38 69 39 87 3l13-25v31c0 75-94 113-145 58z"/>
  <path id="pgG3dYQrR" d="m3762 1587c-14-15-22-36-22-58 0-34 0-34 13-9 17 34 71 40 87 11 6-11 8-31 4-45-8-33 13-43 39-17 29 29 28 83-3 116s-88 34-118 2z"/>
  <path id="pwauuYMnj" d="m1540 1550c-25-25-26-62-2-83 39-35 102-9 102 41 0 28-34 62-60 62-11 0-29-9-40-20z"/>
  <path id="poxdnOujC" d="m3367 1552c-10-10-17-29-17-43 1-67 79-87 110-29 32 59-49 121-93 72z"/>
 </g>
</svg>
