<svg xmlns="http://www.w3.org/2000/svg" width="325" height="382" viewBox="0 0 3250 3820"><g id="l2YsqesYQoEyzepH473AGmZ" fill="rgb(254,254,254)" style="transform: none;"><g style="transform: none;"><path id="pZg46h23e" d="M0 3750 c0 -63 2 -70 20 -70 11 0 20 6 20 14 0 20 49 76 66 76 8 0 14 5 14 10 0 6 68 10 185 10 158 0 185 2 185 15 0 13 -34 15 -245 15 l-245 0 0 -70z"></path><path id="p1X1rMG3a" d="M2720 3805 c0 -13 28 -15 195 -15 142 0 200 -3 212 -12 44 -36 73 -68 73 -82 0 -9 5 -16 10 -16 7 0 10 -150 10 -430 0 -236 -4 -430 -9 -430 -4 0 -11 -22 -14 -49 -6 -54 -51 -150 -91 -198 -52 -61 -138 -95 -853 -336 -34 -11 -65 -19 -68 -16 -2 3 -18 58 -34 123 -38 148 -168 637 -230 861 l-47 170 -35 3 -35 3 -49 -288 c-62 -367 -64 -394 -33 -432 14 -15 30 -42 37 -59 11 -26 10 -35 -7 -68 -24 -48 -47 -69 -95 -89 -35 -15 -41 -14 -81 3 -97 43 -124 161 -52 221 24 20 20 59 -29 372 -59 374 -50 339 -90 339 -38 0 -32 16 -101 -245 -20 -77 -70 -261 -110 -410 -40 -148 -82 -308 -94 -355 -37 -147 -39 -152 -66 -146 -14 4 -147 48 -297 100 -149 51 -310 105 -357 121 -123 40 -190 77 -239 130 -59 64 -93 143 -99 233 -4 62 -7 72 -23 72 -18 0 -19 -40 -19 -1440 l0 -1440 1625 0 1625 0 0 1910 0 1910 -265 0 c-229 0 -265 -2 -265 -15z m-909 -1705 c79 -28 163 -58 187 -67 l42 -16 0 -78 c0 -45 4 -79 10 -79 5 0 38 -35 72 -77 59 -76 129 -207 142 -268 5 -23 19 -37 56 -58 57 -32 95 -75 122 -137 31 -69 27 -111 -16 -175 l-36 -55 0 -218 c0 -244 -6 -281 -65 -404 -87 -180 -242 -307 -467 -382 -160 -54 -285 -57 -443 -11 -161 47 -247 97 -356 205 -81 80 -103 108 -138 181 -60 126 -71 188 -71 430 l0 207 -35 52 c-25 38 -35 63 -35 91 0 76 75 185 152 222 27 13 37 26 47 59 30 101 115 240 190 312 29 28 31 34 31 107 l0 77 43 15 c23 9 92 33 152 55 61 22 124 44 140 50 65 22 127 14 276 -38z"></path><path id="p1GoXvLrN5" d="M1493 1909 c-175 -34 -346 -206 -414 -414 -21 -66 -23 -90 -27 -409 l-4 -338 49 6 c146 17 330 18 423 2 184 -32 336 -101 452 -205 45 -41 63 -51 91 -51 32 0 39 6 75 60 60 89 65 138 59 495 -6 332 -16 415 -65 518 -56 118 -177 249 -279 301 -80 40 -251 57 -360 35z"></path></g></g><g id="l5bdyBeFjKke48JSCayspKM" fill="rgb(76,67,60)" style="transform: none;"><g style="transform: none;"><path id="pNE2S8XZL" d="M274 3810 c-183 -4 -204 -7 -224 -25 -49 -43 -50 -57 -50 -492 1 -467 7 -563 43 -645 51 -114 131 -175 307 -233 47 -15 193 -65 325 -110 287 -98 406 -137 410 -133 1 2 17 59 35 128 17 69 64 247 104 395 41 149 90 333 110 410 21 77 44 164 53 194 l15 55 13 -30 12 -29 7 30 c4 17 11 46 17 65 33 119 69 309 69 365 l0 65 -522 -2 c-288 -1 -614 -4 -724 -8z"></path><path id="pCV8G3wMS" d="M1700 3789 c0 -32 53 -306 80 -411 7 -26 21 -54 31 -64 18 -16 19 -16 19 11 0 76 19 14 185 -610 43 -159 91 -344 107 -410 17 -66 33 -123 37 -127 8 -9 68 10 501 157 328 111 433 157 476 208 42 49 83 141 94 208 6 37 10 251 10 509 0 495 0 494 -67 533 -30 17 -77 19 -752 24 l-721 6 0 -34z"></path></g></g><g id="l6EXkkLwVIggDVZi2LpxFkF" fill="rgb(42,56,68)" style="transform: none;"><g style="transform: none;"><path id="pfL7YLdnU" d="M1472 3813 c14 -3 17 -15 16 -59 -1 -30 -5 -57 -9 -60 -4 -2 -5 -13 -2 -23 3 -10 0 -22 -6 -25 -5 -4 -8 -13 -5 -20 3 -8 1 -17 -4 -20 -6 -3 -8 -15 -5 -25 3 -10 0 -22 -6 -25 -5 -4 -8 -13 -5 -20 3 -8 1 -17 -4 -20 -6 -3 -8 -15 -5 -26 3 -11 0 -20 -6 -20 -5 0 -8 -7 -5 -15 4 -8 2 -15 -2 -15 -21 0 -11 -102 36 -402 l51 -319 -25 -30 c-39 -46 -52 -100 -36 -151 18 -61 47 -97 94 -119 50 -23 95 -24 143 -4 48 20 71 41 94 87 33 64 20 136 -34 195 -15 17 -18 30 -14 55 90 513 106 638 85 638 -5 0 -6 9 -3 20 3 11 2 20 -3 20 -6 0 -8 9 -5 20 3 12 0 20 -7 20 -7 0 -10 8 -7 20 3 11 2 22 -3 25 -6 4 -20 65 -25 110 -1 6 -4 19 -8 30 -3 11 -9 36 -11 55 -3 19 -8 49 -11 67 -6 25 -4 32 11 36 11 3 -51 5 -136 5 -85 0 -147 -2 -138 -5z"></path><path id="p10cZL0xil" d="M1580 2184 c-43 -7 -102 -25 -215 -66 -60 -22 -129 -46 -152 -55 l-43 -15 0 -77 c0 -73 -2 -79 -31 -107 -75 -72 -160 -211 -190 -312 -10 -33 -20 -46 -47 -59 -48 -23 -97 -74 -127 -133 -20 -39 -25 -65 -25 -119 0 -62 3 -74 35 -121 l35 -52 0 -207 c0 -242 11 -304 71 -430 35 -73 57 -101 138 -181 79 -79 111 -103 181 -137 280 -136 548 -135 827 4 135 67 253 187 318 321 59 123 65 160 65 404 l0 218 35 53 c45 68 54 126 29 203 -23 75 -67 131 -131 169 -39 23 -54 37 -59 60 -13 62 -83 193 -142 268 -34 42 -67 77 -72 77 -6 0 -10 34 -10 79 l0 78 -42 16 c-258 97 -382 130 -448 121z m148 -309 c35 -8 77 -22 95 -31 102 -52 223 -183 279 -301 47 -99 59 -188 65 -487 7 -325 0 -378 -59 -466 -22 -33 -42 -60 -45 -60 -3 0 -30 23 -61 51 -117 104 -268 173 -452 205 -73 12 -135 15 -265 11 -93 -2 -178 -8 -188 -12 -18 -8 -19 4 -15 301 4 287 6 314 27 379 43 132 123 247 224 322 129 96 249 122 395 88z"></path></g></g><g id="l2gAzaRwI2iwbmUGdZyrR8K" fill="rgb(168,165,163)" style="transform: none;"><g style="transform: none;"><path id="p10jJ0Q5Qe" d="M1038 3813 c316 -2 829 -2 1140 0 312 1 54 2 -573 2 -627 0 -882 -1 -567 -2z"></path><path id="p1pQ80srs" d="M5 3260 c0 -228 1 -322 2 -208 2 115 2 301 0 415 -1 115 -2 21 -2 -207z"></path></g></g></svg>
