<svg xmlns="http://www.w3.org/2000/svg" width="286" height="367" viewBox="0 0 2860 3670"><g id="l3CrBpGMsWkT7MLDG3j928E" fill="rgb(35,37,51)" style="transform: none;"><g><path id="pZjuyhuUd" d="M100 3641 c0 -16 11 -19 108 -24 148 -9 1312 -9 1675 -1 280 6 297 8 297 25 0 18 -33 19 -1040 19 -1010 0 -1040 -1 -1040 -19z"></path><path id="p7G72FhjG" d="M2220 3641 c0 -33 101 -47 235 -31 57 6 141 8 196 4 l96 -6 26 -57 c15 -31 27 -64 27 -73 0 -11 8 -18 20 -18 18 0 20 7 20 58 0 66 -25 117 -66 132 -14 6 -142 10 -290 10 -252 0 -264 -1 -264 -19z"></path><path id="pT4KdJraI" d="M1058 3563 c-13 -3 -18 -15 -18 -39 0 -30 3 -34 28 -34 57 0 72 10 72 46 0 32 -2 34 -32 33 -18 -1 -41 -3 -50 -6z"></path><path id="pk11dpww1" d="M1210 3535 c0 -33 2 -35 35 -35 33 0 35 2 35 35 0 33 -2 35 -35 35 -33 0 -35 -2 -35 -35z"></path><path id="p8sQeJpCi" d="M1190 3446 c0 -21 -6 -36 -15 -40 -8 -3 -15 -12 -15 -21 0 -8 -21 -104 -46 -212 -25 -109 -63 -274 -84 -368 -21 -93 -53 -229 -69 -302 -39 -166 -39 -184 -4 -200 35 -17 43 -16 43 2 0 8 13 70 29 137 16 68 50 215 76 328 25 113 66 293 91 400 24 107 44 205 44 218 0 12 5 22 10 22 6 0 10 16 10 35 0 33 -2 35 -35 35 -33 0 -35 -2 -35 -34z"></path><path id="prTZqF0Kk" d="M1590 3360 c0 -39 1 -40 35 -40 34 0 35 1 35 40 0 39 -1 40 -35 40 -34 0 -35 -1 -35 -40z"></path><path id="p5fapxMk3" d="M200 3325 l0 -55 35 0 35 0 0 55 0 55 -35 0 -35 0 0 -55z"></path><path id="p1yBI5jXM" d="M1950 3345 c0 -33 2 -35 35 -35 33 0 35 2 35 35 0 33 -2 35 -35 35 -33 0 -35 -2 -35 -35z"></path><path id="p1GL6Gf1Mf" d="M2020 3235 c0 -33 2 -35 35 -35 33 0 35 2 35 35 0 33 -2 35 -35 35 -33 0 -35 -2 -35 -35z"></path><path id="pcWPTR0Zp" d="M200 3155 l0 -85 35 0 35 0 0 85 0 85 -35 0 -35 0 0 -85z"></path><path id="pbwPVy7BC" d="M1542 3189 c-20 -86 -17 -99 21 -99 32 0 34 2 45 51 20 86 17 99 -21 99 -32 0 -34 -2 -45 -51z"></path><path id="p1HJgeTWuP" d="M1650 3204 c0 -14 10 -68 22 -120 l21 -94 34 0 c29 0 33 3 33 27 0 15 -10 69 -22 120 l-23 93 -32 0 c-29 0 -33 -3 -33 -26z"></path><path id="p9HzkxMaG" d="M10 2965 c0 -58 2 -65 20 -65 18 0 20 7 20 65 0 58 -2 65 -20 65 -18 0 -20 -7 -20 -65z"></path><path id="p13smeyxef" d="M1500 2956 c0 -33 7 -52 25 -74 20 -24 25 -41 25 -86 l0 -56 36 0 37 0 -5 91 c-5 74 -9 94 -27 113 -11 12 -21 30 -21 39 0 13 -9 17 -35 17 -35 0 -35 0 -35 -44z"></path><path id="pSLJj4Qjy" d="M1710 2946 c0 -30 22 -138 86 -418 l18 -78 33 0 c40 0 42 13 14 133 -46 196 -70 305 -76 345 -6 40 -8 42 -41 42 -29 0 -34 -3 -34 -24z"></path><path id="pgUVjoUNd" d="M200 2929 c0 -44 32 -69 87 -69 43 0 43 0 43 35 0 28 -4 35 -19 35 -11 0 -26 7 -35 15 -8 8 -28 15 -45 15 -28 0 -31 -3 -31 -31z"></path><path id="p0Bkm8vXM" d="M10 2825 c0 -28 4 -35 20 -35 16 0 20 7 20 35 0 28 -4 35 -20 35 -16 0 -20 -7 -20 -35z"></path><path id="pc4n9B4AU" d="M1508 2662 c-38 -37 -48 -54 -48 -80 0 -30 2 -32 33 -32 45 0 127 84 127 130 0 27 -3 30 -32 29 -25 0 -44 -11 -80 -47z"></path><path id="p4uAsfw2J" d="M1934 2608 c4 -35 11 -65 15 -68 5 -3 10 -34 13 -69 3 -37 10 -67 16 -69 7 -2 12 -10 12 -18 0 -9 11 -14 35 -14 l35 0 0 50 c0 28 -4 50 -9 50 -5 0 -12 16 -15 35 -4 19 -11 35 -15 35 -5 0 -12 29 -16 65 l-7 65 -35 0 -36 0 7 -62z"></path><path id="ppUjFkxSG" d="M2338 2578 c-46 -10 -48 -12 -48 -44 0 -39 8 -41 102 -22 57 12 58 13 58 45 0 31 -2 33 -32 32 -18 -1 -54 -6 -80 -11z"></path><path id="pM8u3IsOS" d="M490 2535 c0 -33 2 -35 35 -35 33 0 35 2 35 35 0 33 -2 35 -35 35 -33 0 -35 -2 -35 -35z"></path><path id="p1BZ4o3Qus" d="M820 2535 c0 -33 2 -35 35 -35 33 0 35 2 35 35 0 33 -2 35 -35 35 -33 0 -35 -2 -35 -35z"></path><path id="pBSJYwM95" d="M1830 2395 c0 -33 2 -35 35 -35 33 0 35 2 35 35 0 33 -2 35 -35 35 -33 0 -35 -2 -35 -35z"></path><path id="pQkF6YI9q" d="M760 2377 c0 -8 16 -18 35 -24 33 -11 35 -10 35 13 0 21 -5 24 -35 24 -22 0 -35 -5 -35 -13z"></path><path id="pVM1kBmXE" d="M1860 2320 c0 -26 3 -29 18 -21 9 5 25 12 35 15 32 10 20 36 -18 36 -32 0 -35 -2 -35 -30z"></path><path id="pY2SKw25T" d="M800 1525 c0 -33 2 -35 35 -35 33 0 35 2 35 35 0 33 -2 35 -35 35 -33 0 -35 -2 -35 -35z"></path><path id="p19LRvu0F7" d="M1980 1345 l0 -105 35 0 35 0 0 105 0 105 -35 0 -35 0 0 -105z"></path><path id="ppaKcDY1c" d="M800 1405 c0 -33 2 -35 35 -35 33 0 35 2 35 35 0 33 -2 35 -35 35 -33 0 -35 -2 -35 -35z"></path><path id="p6bgt3gHY" d="M634 1254 c3 -9 6 -24 6 -35 0 -16 7 -19 40 -19 39 0 40 1 40 35 0 35 0 35 -46 35 -38 0 -45 -3 -40 -16z"></path><path id="p13w4nwn9k" d="M2120 1235 c0 -35 0 -35 44 -35 43 0 44 1 48 35 l4 35 -48 0 -48 0 0 -35z"></path><path id="pUOwqbtO7" d="M1230 1155 c0 -33 2 -35 35 -35 33 0 35 2 35 35 0 33 -2 35 -35 35 -33 0 -35 -2 -35 -35z"></path><path id="pP2PYXPT9" d="M2070 665 c0 -33 2 -35 35 -35 33 0 35 2 35 35 0 33 -2 35 -35 35 -33 0 -35 -2 -35 -35z"></path><path id="pWCq3oL0R" d="M2000 565 c0 -33 2 -35 35 -35 33 0 35 2 35 35 0 33 -2 35 -35 35 -33 0 -35 -2 -35 -35z"></path><path id="poIRr1uzS" d="M1420 245 c0 -33 2 -35 35 -35 33 0 35 2 35 35 0 33 -2 35 -35 35 -33 0 -35 -2 -35 -35z"></path><path id="pMhqEkzZX" d="M930 205 c0 -33 2 -35 35 -35 33 0 35 2 35 35 0 33 -2 35 -35 35 -33 0 -35 -2 -35 -35z"></path><path id="p40D7wDQg" d="M1030 176 c0 -32 2 -34 46 -40 81 -11 84 -10 84 28 0 32 -2 34 -46 40 -81 11 -84 10 -84 -28z"></path><path id="pVZkqiaJf" d="M1170 155 c0 -33 2 -35 35 -35 33 0 35 2 35 35 0 33 -2 35 -35 35 -33 0 -35 -2 -35 -35z"></path></g></g><g id="l7jM8o9cQFgr4JgsXic1SUu" fill="rgb(40,34,53)" style="transform: none;"><g><path id="pcajXbi9D" d="M85 3650 c-11 -4 -31 -20 -45 -35 l-25 -27 0 -421 0 -422 29 -58 c36 -74 99 -140 157 -166 25 -12 165 -52 310 -91 145 -38 293 -79 329 -89 36 -11 77 -23 92 -27 15 -3 33 -12 39 -20 15 -18 29 -2 29 35 0 14 12 74 26 135 41 180 100 436 149 656 25 113 52 216 59 230 7 14 18 52 25 85 7 33 15 66 17 73 3 10 37 12 146 10 l143 -3 17 -75 c10 -41 22 -84 27 -95 6 -11 15 -42 21 -70 6 -27 24 -106 41 -175 16 -69 36 -159 45 -200 9 -41 27 -120 39 -175 13 -55 40 -176 60 -270 21 -93 40 -172 42 -174 2 -3 9 4 17 14 7 10 24 19 37 21 13 1 109 26 214 54 104 28 252 67 327 86 228 57 291 96 353 219 l30 60 2 390 c2 368 1 391 -17 422 -10 18 -20 40 -22 50 -2 10 -12 26 -22 35 -17 16 -38 17 -205 13 -102 -3 -197 -6 -211 -6 -14 -1 -43 2 -65 6 -22 4 -137 6 -255 5 -399 -6 -1855 -4 -1895 2 -22 4 -49 3 -60 -2z m115 -439 c0 -268 2 -312 16 -325 38 -38 129 -32 144 10 6 14 10 159 10 325 l0 299 265 0 c146 0 265 -2 265 -5 0 -18 -179 -321 -221 -374 -11 -14 -19 -40 -19 -62 0 -33 9 -49 65 -113 l66 -75 -73 -34 c-41 -18 -95 -42 -121 -52 -43 -16 -47 -21 -47 -50 0 -17 8 -56 18 -86 11 -30 22 -67 26 -83 8 -34 14 -34 -166 12 -132 35 -169 51 -215 95 -58 54 -62 86 -66 456 -3 184 -2 343 1 353 2 11 13 18 28 18 l24 0 0 -309z m2280 -9 c5 -296 6 -314 24 -328 26 -19 96 -18 124 2 22 15 22 16 22 330 0 300 1 314 19 314 41 0 42 -13 39 -377 -3 -392 0 -373 -83 -457 -36 -35 -61 -50 -113 -65 -141 -42 -262 -69 -262 -58 0 1 9 31 20 67 11 36 20 85 20 111 l0 45 -115 49 c-63 27 -115 52 -115 55 1 3 30 37 65 75 59 64 65 74 65 114 0 34 -6 51 -29 77 -35 39 -119 174 -178 285 l-43 79 268 -2 267 -3 5 -313z m-574 12 l56 -105 -23 -25 c-12 -13 -24 -23 -25 -21 -5 5 -71 257 -68 257 2 0 28 -48 60 -106z m-936 -12 c-16 -56 -30 -108 -30 -117 0 -22 -15 -19 -32 7 -14 21 -11 29 36 119 28 54 52 96 54 95 1 -2 -11 -48 -28 -104z m145 -232 c-4 -23 -9 -39 -12 -36 -3 2 -2 23 2 46 4 23 9 39 12 36 3 -2 2 -23 -2 -46z m-21 -94 c-3 -21 -8 -35 -11 -32 -2 2 -1 20 3 40 3 21 8 35 11 32 2 -2 1 -20 -3 -40z m-43 -181 c-16 -66 -30 -113 -30 -105 -2 21 52 246 56 234 1 -5 -10 -63 -26 -129z m-197 -22 c-7 -27 -21 -74 -29 -105 -17 -62 -24 -69 -41 -40 -17 26 -46 133 -39 140 3 4 32 16 63 29 31 12 58 22 59 22 0 1 -5 -20 -13 -46z m1239 3 c20 -6 19 -11 -14 -102 -11 -27 -25 -59 -33 -69 -15 -20 -19 -8 -50 151 l-12 61 45 -18 c25 -10 54 -20 64 -23z m-1078 -146 c-9 -41 -17 -33 -9 9 4 17 9 30 11 27 3 -2 2 -19 -2 -36z m-21 -84 c-3 -21 -8 -35 -11 -32 -2 2 -1 20 3 40 3 21 8 35 11 32 2 -2 1 -20 -3 -40z"></path><path id="pQ7K8NNHY" d="M1550 2736 l0 -64 35 0 35 0 0 64 c0 49 -3 64 -14 64 -8 0 -17 -8 -19 -17 -4 -17 -5 -17 -6 0 0 9 -8 17 -16 17 -12 0 -15 -14 -15 -64z"></path><path id="p1E1oCScVs" d="M1427 2592 c-18 -19 -27 -39 -27 -60 0 -30 3 -32 33 -32 39 0 87 43 87 79 0 21 -2 22 -17 10 -15 -11 -14 -10 1 9 l19 22 -35 0 c-25 0 -42 -8 -61 -28z"></path><path id="pKLa7uxLF" d="M712 1624 c-21 -15 -22 -21 -22 -185 l0 -169 -37 0 c-29 0 -34 -3 -25 -12 8 -8 12 -55 12 -144 0 -121 -2 -136 -26 -188 -42 -91 -51 -179 -30 -278 38 -176 138 -383 218 -449 115 -95 182 -120 419 -153 469 -66 551 -44 730 193 42 54 61 69 127 102 111 54 175 117 197 194 26 89 16 184 -33 319 l-40 108 4 142 c3 77 7 147 9 154 3 8 -6 12 -25 12 l-30 0 0 169 c0 164 -1 170 -22 185 -31 22 -110 21 -137 -1 -20 -18 -21 -25 -23 -443 -3 -416 -3 -426 -25 -466 -23 -43 -46 -62 -103 -84 -19 -7 -43 -20 -53 -28 -16 -14 -20 -13 -45 6 -42 34 -148 92 -205 114 -101 39 -187 48 -438 48 l-239 0 0 415 c0 402 -1 416 -20 435 -25 25 -105 27 -138 4z m1444 -981 c-3 -10 -10 -37 -16 -61 -21 -80 -123 -155 -181 -134 -22 9 -21 10 21 29 54 24 124 93 147 146 17 37 39 52 29 20z m-705 -81 c81 -33 359 -248 359 -278 0 -7 -25 -33 -55 -58 l-55 -45 -44 25 c-57 32 -278 104 -452 148 -120 30 -374 86 -390 86 -5 0 -46 89 -58 128 l-8 23 324 -3 c308 -3 326 -4 379 -26z"></path><path id="pUBZ0QGTX" d="M932 1228 c-7 -7 -12 -38 -12 -70 0 -86 12 -91 193 -86 103 2 149 7 160 17 20 16 24 120 5 139 -8 8 -61 12 -173 12 -112 0 -165 -4 -173 -12z"></path><path id="pLZMVfKpn" d="M1560 1221 c-18 -34 -12 -109 10 -131 18 -18 33 -20 170 -20 178 0 190 6 190 88 0 79 -8 82 -198 82 -149 0 -162 -1 -172 -19z"></path></g></g><g id="l37bsR6hbUbKqnTjI5qRQFi" fill="rgb(48,51,72)" style="transform: none;"><g><path id="pupCszEzZ" d="M1067 3509 c-19 -30 -58 -97 -87 -149 -29 -52 -72 -130 -96 -172 -24 -43 -44 -80 -44 -83 0 -14 100 -106 109 -101 5 3 13 21 16 39 4 17 38 140 76 271 38 132 67 241 65 244 -3 2 -20 -20 -39 -49z"></path><path id="pEn0b43Bt" d="M115 3518 c-3 -18 -3 -190 -1 -383 3 -293 7 -357 20 -395 20 -53 57 -95 108 -121 35 -18 371 -109 402 -109 11 0 5 30 -25 122 -21 67 -37 123 -36 124 3 2 165 72 224 97 59 25 65 37 28 61 -20 13 -25 14 -25 3 0 -12 -215 -117 -240 -117 -23 0 -22 -73 3 -154 14 -44 24 -82 23 -83 -1 -1 -68 15 -149 35 -168 44 -214 69 -262 147 l-30 48 -3 359 -3 358 41 0 c33 0 40 3 40 20 0 18 -7 20 -55 20 -53 0 -54 0 -60 -32z"></path><path id="p13DXbXDI5" d="M340 3530 c0 -19 7 -20 155 -20 148 0 155 1 155 20 0 19 -7 20 -155 20 -148 0 -155 -1 -155 -20z"></path><path id="p18Jjsn4V8" d="M750 3530 c0 -17 7 -20 45 -20 38 0 45 3 45 20 0 17 -7 20 -45 20 -38 0 -45 -3 -45 -20z"></path><path id="pUjEczlNt" d="M850 3530 c0 -13 7 -20 20 -20 16 0 20 -7 20 -35 0 -19 4 -35 9 -35 10 0 61 83 61 99 0 7 -23 11 -55 11 -48 0 -55 -2 -55 -20z"></path><path id="ppqkDo7fz" d="M1244 3523 c-3 -16 -14 -58 -23 -95 l-18 -68 22 0 c18 0 24 10 39 75 l18 76 141 -3 140 -3 14 -58 c12 -55 11 -64 -27 -219 -22 -89 -40 -173 -40 -187 0 -40 -12 -49 -65 -53 l-50 -3 0 -80 0 -80 42 -3 c36 -3 44 -7 49 -28 7 -29 -21 -65 -66 -84 -26 -11 -27 -14 -33 -107 -4 -52 -4 -99 -1 -104 12 -19 66 -9 86 16 11 14 23 25 28 25 4 0 33 25 63 55 l55 56 0 127 c-1 122 -2 128 -26 155 l-26 27 35 143 c18 78 35 132 37 120 4 -24 42 -34 42 -10 0 29 -14 57 -27 57 -12 0 -13 3 -3 15 12 15 6 65 -12 95 -5 8 -17 49 -26 90 l-17 75 -172 3 -173 2 -6 -27z m343 -765 c-2 -18 -4 -4 -4 32 0 36 2 50 4 33 2 -18 2 -48 0 -65z m-47 -132 c0 -2 -26 -25 -57 -51 l-58 -47 55 51 c54 50 60 55 60 47z"></path><path id="p1GuiHGc6r" d="M1888 3545 c-13 -13 216 -402 255 -434 25 -20 21 -38 -19 -84 l-35 -42 26 -3 c18 -2 36 4 51 19 33 31 35 126 4 154 -11 10 -33 38 -48 62 -15 24 -35 43 -44 43 -13 0 -18 8 -18 30 0 20 -5 30 -15 30 -9 0 -15 9 -15 25 0 14 -4 25 -10 25 -5 0 -10 8 -10 17 0 9 -14 40 -30 70 l-30 53 281 0 c262 0 280 1 277 18 -3 16 -27 17 -309 20 -168 1 -308 0 -311 -3z"></path><path id="pwnU77NvU" d="M2620 3530 c0 -17 7 -20 40 -20 l40 0 0 -355 c0 -287 -3 -361 -14 -383 -15 -30 -100 -113 -132 -130 -20 -11 -144 -44 -245 -66 l-56 -12 24 76 c13 41 23 91 23 111 0 36 0 36 -87 73 -49 20 -96 36 -105 36 -10 0 -18 5 -18 10 0 6 -7 10 -15 10 -11 0 -15 11 -15 37 l0 37 -35 -34 c-19 -19 -35 -37 -35 -41 0 -3 61 -33 135 -65 90 -39 135 -64 135 -74 0 -8 -12 -53 -26 -100 -35 -114 -38 -130 -26 -130 16 0 260 59 334 81 52 15 77 29 113 65 83 84 80 62 83 487 2 280 0 382 -9 393 -7 9 -30 14 -60 14 -42 0 -49 -3 -49 -20z"></path><path id="p8lObLt2F" d="M1750 3528 c0 -7 16 -72 36 -143 20 -72 51 -188 70 -259 18 -71 36 -131 39 -134 6 -6 115 97 115 109 0 20 -232 423 -250 434 -6 4 -10 0 -10 -7z"></path><path id="prWJiyO3Z" d="M2470 3415 c0 -78 2 -85 20 -85 18 0 20 7 20 85 0 78 -2 85 -20 85 -18 0 -20 -7 -20 -85z"></path><path id="pUJIBfIkB" d="M850 3405 c0 -16 -6 -25 -15 -25 -8 0 -15 -7 -15 -15 0 -8 -4 -15 -10 -15 -5 0 -10 -11 -10 -25 0 -15 -6 -25 -15 -25 -8 0 -17 -11 -21 -25 -3 -14 -10 -25 -15 -25 -5 0 -9 -11 -9 -25 0 -16 -6 -25 -15 -25 -8 0 -15 -6 -15 -14 0 -8 -7 -16 -15 -20 -8 -3 -15 -12 -15 -21 0 -8 -4 -15 -10 -15 -5 0 -10 -22 -10 -50 0 -27 5 -50 10 -50 6 0 10 -6 10 -13 0 -25 46 -59 75 -55 l26 3 -45 53 c-25 30 -46 57 -46 61 0 5 8 19 19 32 21 27 181 287 188 307 3 8 -4 12 -21 12 -21 0 -26 -5 -26 -25z"></path><path id="p1GL0GenJ8" d="M2620 3350 c0 -63 2 -70 20 -70 18 0 20 7 20 70 0 63 -2 70 -20 70 -18 0 -20 -7 -20 -70z"></path><path id="p9Yzrg0FN" d="M340 3360 c0 -33 3 -40 20 -40 17 0 20 7 20 40 0 33 -3 40 -20 40 -17 0 -20 -7 -20 -40z"></path><path id="pfKKxxXmh" d="M1186 3298 c-10 -38 -7 -48 14 -48 16 0 20 7 20 35 0 40 -24 49 -34 13z"></path><path id="pRJ1hv3yS" d="M2470 3270 c0 -33 3 -40 20 -40 17 0 20 7 20 40 0 33 -3 40 -20 40 -17 0 -20 -7 -20 -40z"></path><path id="psiU4Jtol" d="M2620 3085 c0 -48 2 -55 20 -55 18 0 20 7 20 55 0 48 -2 55 -20 55 -18 0 -20 -7 -20 -55z"></path><path id="pX8tyqFkR" d="M1136 3088 c-10 -38 -7 -48 14 -48 16 0 20 7 20 35 0 40 -24 49 -34 13z"></path><path id="p6d4Gw98E" d="M1690 3025 c0 -13 7 -58 17 -100 13 -60 20 -75 35 -75 22 0 23 -4 -3 108 -14 61 -26 92 -35 92 -8 0 -14 -10 -14 -25z"></path><path id="p1FjiAtcW8" d="M335 2940 c-4 -16 -14 -34 -23 -40 -13 -7 -9 -9 21 -10 37 0 37 0 37 40 0 49 -25 56 -35 10z"></path><path id="p177WqddzO" d="M1106 2938 c-10 -38 -7 -48 14 -48 16 0 20 7 20 35 0 40 -24 49 -34 13z"></path><path id="p8ktO00yU" d="M2480 2925 c0 -24 5 -35 15 -35 8 0 15 -7 15 -15 0 -12 13 -15 55 -15 55 0 55 0 55 30 0 30 0 30 -25 14 -33 -21 -71 -6 -81 31 -10 39 -34 32 -34 -10z"></path><path id="p1GDUM57nI" d="M1240 2895 c0 -33 2 -35 35 -35 33 0 35 2 35 35 0 33 -2 35 -35 35 -33 0 -35 -2 -35 -35z"></path><path id="p1D3A0T3oN" d="M1076 2808 c-10 -38 -7 -48 14 -48 16 0 20 7 20 35 0 40 -24 49 -34 13z"></path><path id="pYdp8CDRL" d="M1930 2775 c0 -9 32 -136 61 -242 10 -40 19 -80 19 -88 0 -10 5 -13 12 -9 8 5 9 2 5 -9 -3 -9 -2 -19 3 -22 12 -7 67 103 101 203 l28 83 -22 8 c-21 8 -168 67 -194 78 -7 3 -13 2 -13 -2z m163 -101 c13 -5 13 -13 -5 -65 -11 -32 -22 -59 -24 -59 -2 0 -4 29 -4 65 0 64 4 71 33 59z"></path><path id="pF0915rTf" d="M810 2739 c-41 -16 -85 -33 -96 -38 l-22 -10 25 -86 c14 -48 41 -114 61 -147 l36 -60 12 43 c7 24 21 76 32 114 31 109 54 189 59 203 8 19 -24 13 -107 -19z m-20 -131 c0 -82 -10 -81 -34 4 -20 71 -21 68 9 68 24 0 25 -2 25 -72z"></path><path id="p8RXE64T4" d="M1750 2746 c0 -52 12 -86 31 -86 22 0 23 6 8 66 -12 47 -39 61 -39 20z"></path><path id="pQ6vUW8E7" d="M1031 2610 c-14 -67 -14 -70 8 -70 18 0 31 39 31 98 0 44 -28 23 -39 -28z"></path><path id="pw4CiaGsB" d="M1006 2508 c-10 -38 -7 -48 14 -48 16 0 20 7 20 35 0 40 -24 49 -34 13z"></path><path id="p1BXCZHCXF" d="M1820 2435 c0 -28 4 -35 20 -35 21 0 24 10 14 48 -10 36 -34 27 -34 -13z"></path><path id="p11NQ59kAj" d="M976 2378 c-10 -38 -7 -48 14 -48 16 0 20 7 20 35 0 40 -24 49 -34 13z"></path><path id="pfkN0uHy6" d="M2170 1260 c0 -12 7 -20 18 -20 9 0 23 9 30 20 11 18 10 20 -18 20 -23 0 -30 -4 -30 -20z"></path><path id="pQA5YDP6t" d="M1840 1226 c0 -9 6 -16 14 -16 8 0 23 -11 34 -25 27 -34 34 -31 30 13 -3 35 -5 37 -40 40 -29 2 -38 0 -38 -12z"></path><path id="pPvYiuk66" d="M1260 1176 c12 -33 -11 -62 -55 -70 -21 -4 -35 -13 -35 -21 0 -24 85 -20 110 5 14 14 20 33 20 65 0 41 -2 45 -25 45 -22 0 -23 -3 -15 -24z"></path><path id="pi4Lp1qpc" d="M1550 1135 c0 -33 2 -35 35 -35 l35 0 -20 20 c-11 11 -20 27 -20 35 0 8 -7 15 -15 15 -10 0 -15 -11 -15 -35z"></path><path id="paC5K2zVr" d="M1818 1102 c-34 -7 -20 -32 17 -32 27 0 35 4 35 18 0 17 -15 21 -52 14z"></path><path id="p17c0ZfPqv" d="M2125 802 c0 -80 -4 -105 -23 -142 -46 -95 -144 -169 -224 -170 -21 0 -38 -4 -38 -9 0 -20 82 -64 130 -69 142 -13 241 128 211 305 -14 81 -38 170 -49 177 -4 2 -7 -39 -7 -92z m25 -167 c0 -52 -68 -165 -100 -165 -5 0 -10 -5 -12 -11 -2 -6 -22 -9 -48 -7 l-45 4 33 13 c17 7 32 17 32 22 0 5 7 9 16 9 9 0 18 9 21 19 3 11 13 21 24 24 10 3 22 13 26 24 3 10 12 22 20 26 7 4 13 19 13 32 0 14 5 25 10 25 6 0 10 -7 10 -15z"></path><path id="pKbRqvkL3" d="M702 853 c-6 -21 -14 -57 -18 -80 -6 -42 -6 -43 20 -43 l27 0 -7 78 c-4 42 -8 78 -9 80 -1 1 -7 -15 -13 -35z"></path><path id="pgCTV813N" d="M716 568 c9 -28 26 -75 39 -104 23 -51 24 -52 82 -64 350 -69 700 -171 810 -235 52 -31 53 -31 53 0 0 21 -9 30 -52 50 -29 14 -63 25 -75 25 -12 0 -23 5 -25 10 -2 6 -21 13 -43 17 -22 3 -42 9 -45 13 -11 17 -412 119 -587 150 -58 11 -73 17 -73 31 0 10 -6 24 -13 31 -8 7 -16 27 -20 43 -11 58 -26 85 -46 85 -19 0 -19 -2 -5 -52z"></path><path id="pW6W5Yuxz" d="M1350 604 c0 -19 52 -38 138 -51 19 -3 32 -11 32 -20 0 -8 9 -17 20 -20 11 -3 20 -9 20 -14 0 -5 9 -9 20 -9 11 0 20 -7 20 -15 0 -8 8 -15 19 -15 10 0 21 -9 24 -20 3 -14 14 -20 31 -20 19 0 26 -5 26 -20 0 -16 7 -20 34 -20 32 0 35 -3 38 -32 2 -28 8 -34 31 -36 28 -3 39 -32 12 -32 -8 0 -15 -9 -15 -20 0 -13 -7 -20 -20 -20 -16 0 -20 -7 -20 -31 l0 -30 29 20 c30 21 81 84 80 98 0 9 -163 146 -262 220 -72 54 -146 88 -217 99 -35 6 -40 4 -40 -12z"></path><path id="p16iYPa1Gi" d="M870 292 c0 -12 77 -82 90 -82 6 0 10 7 10 15 0 17 6 18 35 5 17 -7 17 -9 3 -9 -10 -1 -18 -5 -18 -11 0 -15 30 -27 104 -39 56 -10 71 -10 77 1 6 9 9 9 9 1 0 -18 61 -28 71 -12 8 12 10 12 18 1 8 -14 126 -33 137 -23 7 7 -76 40 -103 40 -12 1 -23 5 -25 10 -1 5 -79 29 -173 54 -207 56 -235 61 -235 49z"></path></g></g><g id="l45s5EGL5K992d3P4umLNbw" fill="rgb(105,41,43)" style="transform: none;"><g><path id="p15CdFyBaS" d="M1315 2361 c-110 -7 -134 -16 -222 -85 -57 -44 -61 -51 -38 -60 19 -7 21 -116 3 -134 -9 -9 -6 -12 14 -12 16 0 65 26 123 65 l97 65 124 0 c139 0 141 0 261 -81 99 -67 109 -66 105 13 -4 55 -1 63 20 80 l23 18 -34 29 c-51 44 -149 89 -221 100 -67 11 -86 11 -255 2z"></path><path id="p16fjdMclt" d="M720 1610 c0 -23 -4 -30 -20 -30 -19 0 -20 -7 -20 -120 0 -113 1 -120 20 -120 19 0 20 7 20 120 0 116 1 120 25 136 35 23 74 11 88 -26 16 -42 37 -38 37 5 0 24 -5 35 -15 35 -8 0 -15 7 -15 15 0 12 -13 15 -60 15 l-60 0 0 -30z"></path><path id="p15Sru7ol9" d="M2003 1633 c-12 -4 -19 -73 -8 -73 2 0 15 11 29 25 29 29 52 31 84 9 21 -15 22 -21 22 -185 0 -162 1 -169 20 -169 19 0 20 7 20 175 0 168 -1 175 -20 175 -15 0 -20 7 -20 25 0 24 -3 25 -57 24 -32 0 -64 -3 -70 -6z"></path><path id="pL5OveVaL" d="M1550 1185 c0 -24 5 -35 15 -35 8 0 15 7 15 15 0 8 9 24 20 35 l20 20 -35 0 c-33 0 -35 -2 -35 -35z"></path><path id="p5FFA46kf" d="M1896 1144 c-4 -16 -18 -30 -36 -37 -42 -16 -38 -37 5 -37 24 0 35 5 35 15 0 8 7 15 15 15 10 0 15 11 15 35 0 42 -24 48 -34 9z"></path><path id="pXklUCi1u" d="M1965 754 c-3 -20 -13 -43 -21 -51 -8 -8 -14 -23 -14 -34 0 -14 -7 -19 -25 -19 -14 0 -25 -4 -25 -10 0 -5 -11 -10 -25 -10 -16 0 -25 -6 -25 -15 0 -9 -9 -15 -25 -15 -21 0 -25 -5 -25 -31 l0 -31 33 24 c17 13 48 30 67 38 76 30 110 71 125 153 6 33 5 37 -13 37 -15 0 -21 -9 -27 -36z"></path><path id="p19Mi78Ck9" d="M1310 757 c0 -11 12 -18 38 -22 152 -26 268 -76 385 -165 l27 -22 0 31 c0 26 -4 31 -25 31 -18 0 -25 5 -25 19 0 20 -18 31 -51 31 -10 0 -19 6 -19 14 0 26 -158 80 -272 93 -49 5 -58 3 -58 -10z"></path></g></g><g id="l2MeuekyIvVXQacH9pAn9ZW" fill="rgb(56,67,90)" style="transform: none;"><g><path id="pQM9w6K45" d="M133 3543 c-7 -2 -13 -11 -13 -19 0 -10 13 -14 45 -14 32 0 45 4 45 14 0 19 -48 31 -77 19z"></path><path id="pNAXGcd79" d="M347 3544 c-3 -4 -6 -141 -7 -305 0 -293 0 -299 20 -299 20 0 20 6 20 285 0 247 2 285 15 285 24 0 18 27 -7 34 -29 7 -33 7 -41 0z"></path><path id="pWVHWEK8A" d="M568 3543 c-10 -3 -18 -11 -18 -19 0 -12 30 -14 175 -14 110 0 175 -4 175 -10 0 -5 -4 -10 -8 -10 -11 0 -32 -46 -32 -70 0 -11 -7 -20 -15 -20 -8 0 -15 -7 -15 -15 0 -8 -4 -15 -10 -15 -5 0 -10 -11 -10 -25 0 -16 -6 -25 -15 -25 -9 0 -15 -9 -15 -25 0 -16 -6 -25 -15 -25 -9 0 -15 -9 -15 -25 0 -16 -6 -25 -15 -25 -8 0 -15 -7 -15 -15 0 -8 -4 -15 -10 -15 -5 0 -10 -9 -10 -20 0 -11 -7 -20 -15 -20 -12 0 -15 -14 -15 -70 l0 -70 31 0 30 0 -20 29 c-27 37 -26 47 3 85 55 73 253 412 243 417 -6 4 -375 5 -389 2z"></path><path id="pwhbC1TMO" d="M1257 3543 c-19 -19 -5 -33 33 -33 27 0 40 4 40 14 0 19 -58 34 -73 19z"></path><path id="pPzcAZIB9" d="M1398 3263 l-3 -278 -51 -3 c-44 -3 -56 -8 -83 -37 l-31 -34 0 -132 0 -132 72 -68 c63 -61 77 -69 110 -69 21 0 38 5 38 10 0 6 14 10 30 10 27 0 30 3 30 31 l0 30 -28 -20 c-16 -11 -35 -27 -42 -35 -20 -26 -25 -12 -22 63 3 59 7 71 23 76 10 4 33 18 49 32 25 20 30 32 30 68 0 57 -8 75 -32 75 -17 0 -19 -5 -13 -42 7 -53 -2 -67 -49 -78 -46 -10 -66 7 -66 56 0 36 2 37 63 34 26 -1 37 3 37 13 0 8 -9 17 -21 20 -17 5 -20 12 -17 54 l3 48 50 3 c27 2 53 9 57 15 5 7 8 1 8 -15 0 -65 39 5 40 72 0 14 11 66 23 115 20 76 26 90 45 93 25 4 26 6 11 69 -19 78 -20 81 -29 58 -5 -15 -8 -10 -9 20 -1 22 -7 65 -14 95 l-13 55 -97 3 -97 3 -2 -278z"></path><path id="pFqSz4Fsc" d="M1892 3532 c16 -36 63 -112 70 -112 4 0 8 16 8 35 0 28 -4 35 -20 35 -15 0 -20 7 -20 25 0 19 -5 25 -21 25 -11 0 -19 -3 -17 -8z"></path><path id="p19Fd0roce" d="M2471 3248 c0 -161 3 -311 7 -333 7 -37 10 -40 45 -43 44 -4 46 1 12 31 l-25 22 -2 308 c-2 289 -3 307 -20 307 -17 0 -18 -17 -17 -292z"></path><path id="pnRh2yzck" d="M2622 3233 l0 -307 -26 -23 c-34 -29 -33 -33 9 -33 29 0 37 5 45 26 6 14 10 158 10 335 0 298 -1 309 -19 309 -19 0 -19 -11 -19 -307z"></path><path id="p184UWUOoi" d="M2690 3520 c0 -13 7 -20 20 -20 13 0 20 7 20 20 0 13 -7 20 -20 20 -13 0 -20 -7 -20 -20z"></path><path id="pkoNCVmIx" d="M1227 3443 c-8 -32 -18 -66 -22 -75 -6 -14 -2 -18 17 -18 21 0 26 7 36 51 16 67 15 99 -2 99 -8 0 -19 -23 -29 -57z"></path><path id="p12ZFp6Bih" d="M1976 3378 c16 -56 44 -63 44 -13 0 31 -3 35 -26 35 -22 0 -24 -3 -18 -22z"></path><path id="pvVXKSztx" d="M2030 3281 c0 -6 11 -23 25 -38 l24 -28 1 38 c0 33 -3 37 -25 37 -14 0 -25 -4 -25 -9z"></path><path id="p14dEO53Hs" d="M1650 3185 c0 -28 4 -35 20 -35 21 0 24 10 14 48 -10 36 -34 27 -34 -13z"></path><path id="pkk9kAGgL" d="M2109 3162 c11 -16 27 -35 36 -42 18 -15 20 -61 3 -78 -9 -9 -5 -12 20 -12 31 0 32 1 32 45 0 41 -2 45 -25 45 -22 0 -25 4 -25 35 0 32 -2 35 -31 35 l-30 0 20 -28z"></path><path id="pneP0hRXa" d="M1680 3055 c0 -28 4 -35 20 -35 21 0 24 10 14 48 -10 36 -34 27 -34 -13z"></path><path id="ppjk0Yv6z" d="M2061 2954 c-34 -37 -61 -70 -61 -74 0 -9 40 -28 118 -59 l52 -21 0 25 c0 20 -5 25 -25 25 -14 0 -25 5 -25 10 0 6 -12 10 -26 10 -22 0 -25 3 -20 23 3 12 6 30 6 40 0 11 8 17 25 17 22 0 25 4 25 35 0 19 -2 35 -4 35 -2 0 -32 -30 -65 -66z"></path><path id="pw35sLJ9Q" d="M230 2890 c0 -30 0 -30 55 -30 54 0 55 0 55 30 l0 29 -29 -16 c-27 -16 -30 -16 -55 0 l-26 17 0 -30z"></path><path id="pe8q43RCT" d="M1579 2885 c21 -45 41 -45 41 0 0 32 -3 35 -29 35 l-28 0 16 -35z"></path><path id="pIYG2Pn3E" d="M740 2855 c0 -24 1 -25 32 -12 46 19 48 37 4 37 -32 0 -36 -3 -36 -25z"></path><path id="p4GkLX8Qv" d="M630 2805 c0 -24 1 -25 32 -12 46 19 48 37 4 37 -32 0 -36 -3 -36 -25z"></path><path id="pYLKl5eLw" d="M120 2808 c0 -30 13 -58 26 -58 9 0 14 12 14 35 0 28 -4 35 -20 35 -11 0 -20 -6 -20 -12z"></path><path id="p1C4CdTDOa" d="M2200 2797 c0 -7 16 -19 35 -26 19 -7 35 -15 35 -19 0 -4 -14 -52 -30 -106 -43 -143 -45 -137 48 -114 280 70 295 74 337 112 l40 35 -30 1 c-16 0 -52 -11 -79 -25 -27 -14 -59 -25 -71 -25 -11 0 -48 -7 -80 -16 -33 -8 -78 -19 -100 -23 l-41 -8 4 36 c3 20 10 39 16 43 17 11 14 127 -4 138 -23 15 -80 12 -80 -3z"></path><path id="phl7Vvfzs" d="M2690 2770 c0 -43 13 -52 30 -21 17 33 12 61 -10 61 -17 0 -20 -7 -20 -40z"></path><path id="pLYp7R2hc" d="M790 2730 c-8 -6 -32 -15 -52 -20 -47 -13 -52 -40 -8 -40 17 0 30 5 30 10 0 6 14 10 30 10 25 0 30 4 30 25 0 27 -7 30 -30 15z"></path><path id="pf20TFCnJ" d="M2030 2606 c0 -68 3 -137 6 -154 l6 -31 30 57 c17 30 36 73 44 94 13 37 13 38 -11 38 -14 0 -25 -7 -28 -17 -3 -10 -5 9 -5 42 0 33 2 54 5 48 2 -7 11 -13 19 -13 8 0 14 -9 14 -20 0 -32 28 -23 35 11 4 17 5 32 3 33 -4 4 -105 36 -112 36 -3 0 -6 -56 -6 -124z"></path><path id="p4TANdrVp" d="M170 2689 c42 -58 94 -81 289 -131 102 -26 187 -46 189 -44 1 2 0 15 -3 29 -5 19 -16 28 -50 36 -24 6 -56 11 -72 11 -38 0 -237 51 -241 61 -2 5 -8 9 -13 9 -6 0 -22 14 -36 30 -17 21 -34 30 -55 30 l-29 0 21 -31z"></path><path id="pHoUGHvbl" d="M580 2635 c0 -28 4 -35 20 -35 21 0 24 10 14 48 -10 36 -34 27 -34 -13z"></path><path id="pRpsBD5RU" d="M710 2649 c0 -59 102 -268 108 -222 4 28 -16 103 -28 103 -4 0 -11 14 -15 30 -4 17 -11 30 -16 30 -5 0 -9 16 -9 35 0 28 -4 35 -20 35 -11 0 -20 -5 -20 -11z"></path><path id="pYldEPxqo" d="M1840 2345 c0 -28 4 -35 20 -35 21 0 24 10 14 48 -10 36 -34 27 -34 -13z"></path><path id="p1Cpiqo8ZK" d="M1259 1175 c21 -45 41 -45 41 0 0 32 -3 35 -29 35 l-28 0 16 -35z"></path><path id="p6fvn2VWn" d="M706 857 c-5 -15 -6 -31 -2 -34 11 -11 18 5 14 34 l-4 28 -8 -28z"></path><path id="p165XdfY3z" d="M2130 808 c0 -87 -19 -155 -57 -205 l-25 -33 31 0 c26 0 31 4 31 25 0 16 6 25 15 25 10 0 15 10 15 26 0 15 9 35 21 45 21 18 21 19 5 91 -25 109 -36 117 -36 26z"></path><path id="pbGjXFG6y" d="M690 786 c0 -8 -3 -21 -6 -30 -7 -19 22 -34 37 -19 14 14 0 63 -17 63 -8 0 -14 -6 -14 -14z"></path><path id="p2fAT8Ci2" d="M714 590 c3 -17 19 -63 34 -103 29 -72 29 -72 78 -84 72 -16 84 -16 84 6 0 15 -10 20 -50 26 -27 4 -50 11 -50 16 0 5 -6 9 -14 9 -9 0 -15 16 -19 47 -3 26 -10 49 -16 51 -6 2 -11 17 -11 33 0 23 -4 29 -21 29 -19 0 -21 -4 -15 -30z"></path><path id="pf1QAUtOj" d="M1340 600 c0 -16 7 -20 35 -20 40 0 49 24 13 34 -38 10 -48 7 -48 -14z"></path><path id="p6jQj13Cd" d="M2136 589 c-9 -46 -7 -79 4 -79 13 0 27 28 35 73 6 33 5 37 -13 37 -14 0 -21 -9 -26 -31z"></path><path id="p19YXoFWlJ" d="M1480 566 c0 -27 17 -36 62 -36 30 0 31 1 14 19 -10 11 -31 24 -47 30 -27 9 -29 8 -29 -13z"></path><path id="p5t3h03bl" d="M1991 525 c-19 -13 -58 -30 -88 -36 -45 -10 -51 -14 -40 -27 6 -8 31 -24 55 -34 45 -20 103 -19 150 4 42 21 22 29 -60 24 -46 -2 -73 -2 -60 0 12 3 22 12 22 20 0 9 11 14 30 14 27 0 30 3 30 30 0 17 -1 30 -2 30 -2 -1 -18 -12 -37 -25z"></path><path id="p1gfO6lPO" d="M1610 481 c0 -26 4 -31 25 -31 18 0 25 -5 25 -20 0 -15 7 -20 25 -20 18 0 25 -5 25 -18 0 -25 31 -52 58 -52 15 0 22 -6 22 -20 0 -11 7 -20 15 -20 8 0 15 -7 15 -15 0 -8 -7 -15 -15 -15 -10 0 -15 -10 -15 -30 0 -41 13 -38 50 13 l31 42 -43 38 c-38 34 -173 145 -205 170 -10 7 -13 2 -13 -22z"></path><path id="pSwGGpExT" d="M980 386 c0 -13 28 -26 58 -26 6 0 12 9 12 20 0 16 -7 20 -35 20 -23 0 -35 -5 -35 -14z"></path><path id="pI0I3WWqD" d="M1150 346 c0 -13 28 -26 58 -26 6 0 12 9 12 20 0 16 -7 20 -35 20 -23 0 -35 -5 -35 -14z"></path><path id="p11ycBKwcT" d="M940 261 c0 -19 34 -31 86 -31 41 0 27 27 -20 39 -60 15 -66 14 -66 -8z"></path><path id="p1AIT8P7PT" d="M1512 238 c3 -7 19 -18 36 -25 31 -13 32 -12 32 12 0 22 -4 25 -36 25 -23 0 -34 -4 -32 -12z"></path><path id="pYpd5lQkd" d="M1130 215 c0 -8 -4 -15 -10 -15 -20 0 -9 -28 13 -34 35 -9 45 -7 50 12 4 15 5 15 6 0 1 -18 29 -25 104 -28 28 0 47 3 47 10 0 19 -68 41 -106 34 -26 -5 -34 -3 -34 9 0 8 -10 17 -22 21 -36 9 -48 7 -48 -9z"></path><path id="pvQ3mPNXN" d="M1000 206 c0 -13 28 -26 58 -26 6 0 12 9 12 20 0 16 -7 20 -35 20 -23 0 -35 -5 -35 -14z"></path><path id="pJYE8EWG9" d="M1682 186 c-32 -12 -33 -12 -13 -30 18 -16 25 -17 50 -6 16 6 37 20 47 31 17 18 16 19 -17 18 -19 -1 -49 -7 -67 -13z"></path></g></g><g id="l1beibjF4libPvZrqM1j9xf" fill="rgb(63,77,99)" style="transform: none;"><g><path id="pWow2RRsG" d="M190 3520 c0 -13 7 -20 20 -20 13 0 20 7 20 20 0 13 -7 20 -20 20 -13 0 -20 -7 -20 -20z"></path><path id="p1Aa4NJ2I2" d="M347 3520 c3 -11 12 -20 19 -20 8 0 14 9 14 20 0 13 -7 20 -19 20 -14 0 -18 -5 -14 -20z"></path><path id="p1A04amS4Z" d="M910 3520 c0 -11 -7 -20 -15 -20 -11 0 -15 -11 -15 -36 0 -47 14 -41 50 24 l30 52 -25 0 c-18 0 -25 -5 -25 -20z"></path><path id="pTDJmTkuU" d="M1235 3463 c-9 -43 -21 -82 -25 -88 -5 -5 -11 -27 -15 -47 -6 -34 -5 -38 13 -38 17 0 22 8 28 45 3 25 9 45 13 45 9 0 31 92 31 131 0 18 -5 29 -14 29 -9 0 -20 -26 -31 -77z"></path><path id="pwNC2C7qa" d="M1390 3266 l0 -275 -52 -3 -53 -3 -3 -40 -3 -40 23 22 c16 15 38 23 73 25 l50 3 3 293 c2 287 2 292 -18 292 -20 0 -20 -6 -20 -274z"></path><path id="p17mRur9oh" d="M1923 3478 c51 -92 61 -112 62 -118 1 -14 50 -90 57 -90 4 0 8 14 8 30 l0 30 113 0 c61 0 121 3 132 6 13 3 31 -3 48 -17 27 -20 27 -22 11 -40 -15 -17 -33 -19 -161 -19 -78 0 -143 -3 -143 -7 0 -5 27 -44 60 -88 33 -44 60 -84 60 -90 0 -5 -34 -45 -75 -89 -47 -49 -75 -86 -75 -100 0 -22 21 -33 228 -116 12 -5 22 -15 22 -21 0 -6 -14 -58 -32 -115 -17 -57 -29 -107 -25 -110 3 -3 18 1 34 10 26 15 74 27 247 62 123 25 219 102 231 186 3 24 5 203 3 398 l-3 355 -47 3 -47 3 -3 -311 c-3 -295 -4 -312 -22 -326 -25 -18 -57 -18 -82 0 -18 14 -19 31 -22 325 l-4 311 -305 0 -305 0 35 -62z"></path><path id="p11YXU0mWJ" d="M840 3405 c0 -8 -4 -15 -10 -15 -5 0 -10 -11 -10 -25 0 -16 -6 -25 -15 -25 -8 0 -15 -5 -15 -11 0 -6 -7 -17 -15 -25 -8 -9 -15 -26 -15 -40 0 -15 -6 -24 -15 -24 -8 0 -15 -7 -15 -15 0 -8 -4 -15 -10 -15 -5 0 -10 -7 -10 -15 0 -8 -4 -15 -10 -15 -5 0 -10 -9 -10 -20 0 -11 -7 -20 -15 -20 -12 0 -15 -13 -15 -60 l0 -60 31 0 c29 0 30 1 15 22 -22 31 -20 49 10 89 29 39 174 275 174 283 0 4 -11 6 -25 6 -16 0 -25 -6 -25 -15z"></path><path id="pmHIUm2Wp" d="M1594 3226 c-21 -85 -41 -153 -44 -151 -4 2 -5 -10 -2 -28 2 -22 0 -28 -6 -19 -7 11 -11 8 -15 -10 -10 -34 -8 -45 3 -28 7 11 10 6 10 -21 0 -24 7 -42 21 -55 l22 -19 -7 68 c-5 39 -4 67 2 67 8 0 26 74 51 215 6 33 15 61 20 63 8 3 -2 58 -13 69 -2 2 -21 -66 -42 -151z"></path><path id="p1HTSswZzV" d="M1593 3311 c-6 -10 -8 -23 -3 -30 5 -9 9 -3 13 16 6 34 5 37 -10 14z"></path><path id="pNXQYAvrd" d="M1161 3185 c-26 -102 -26 -105 -3 -105 15 0 22 15 35 73 21 87 22 117 3 117 -9 0 -21 -30 -35 -85z"></path><path id="pwjBtDEW7" d="M1640 3225 c0 -28 4 -35 20 -35 21 0 24 10 14 48 -10 36 -34 27 -34 -13z"></path><path id="p1C9WDdZgi" d="M1660 3146 c0 -52 12 -86 31 -86 22 0 23 6 8 66 -12 47 -39 61 -39 20z"></path><path id="pnrER0q5R" d="M349 3125 c0 -8 -1 -28 -1 -45 0 -54 2 -60 17 -60 12 0 15 13 15 60 0 47 -3 60 -15 60 -8 0 -15 -7 -16 -15z"></path><path id="p1HDWY7PzW" d="M1126 3038 c-10 -38 -7 -48 14 -48 16 0 20 7 20 35 0 40 -24 49 -34 13z"></path><path id="p15aCdWC5q" d="M1690 3005 c0 -28 4 -35 20 -35 21 0 24 10 14 48 -10 36 -34 27 -34 -13z"></path><path id="pRLEnc27i" d="M344 2960 c-4 -25 -16 -48 -30 -59 -32 -25 -30 -31 11 -31 42 0 55 20 55 84 0 61 -27 65 -36 6z"></path><path id="p80btmTFi" d="M740 2968 c0 -19 7 -41 15 -48 24 -20 18 -27 -45 -56 -33 -15 -60 -31 -60 -35 0 -5 -8 -9 -19 -9 -10 0 -35 -7 -55 -15 -30 -13 -36 -20 -36 -46 0 -36 31 -129 42 -129 5 0 8 -9 8 -20 0 -11 -4 -20 -9 -20 -30 0 -257 61 -295 79 -54 27 -115 91 -123 131 -4 21 -11 30 -24 30 -22 0 -23 -10 -8 -63 11 -40 61 -103 109 -137 34 -24 255 -83 284 -75 15 5 17 4 7 -3 -10 -7 1 -13 41 -22 31 -7 60 -11 66 -9 6 3 -3 47 -24 114 -18 61 -32 114 -31 118 2 8 241 117 257 117 25 0 13 22 -40 75 l-60 59 0 -36z"></path><path id="pOTLStTFN" d="M202 2913 c3 -36 5 -38 41 -41 43 -4 46 3 12 30 -14 11 -25 26 -25 34 0 8 -7 14 -16 14 -12 0 -14 -9 -12 -37z"></path><path id="pSa233Bzx" d="M1091 2866 c-15 -60 -14 -66 8 -66 19 0 31 34 31 86 0 41 -27 27 -39 -20z"></path><path id="psUcZIFTY" d="M1720 2875 c0 -28 4 -35 20 -35 21 0 24 10 14 48 -10 36 -34 27 -34 -13z"></path><path id="pKTjtTfqL" d="M1220 2850 c0 -30 4 -50 11 -50 8 0 10 -23 5 -80 l-7 -80 25 0 c20 0 25 -6 28 -27 2 -17 12 -32 24 -37 11 -5 25 -19 30 -30 7 -15 20 -22 49 -24 l40 -3 -75 72 c-41 39 -74 75 -73 80 2 5 -2 9 -8 9 -7 0 -9 37 -7 110 3 108 3 110 -19 110 -21 0 -23 -5 -23 -50z"></path><path id="pBDAcJQZJ" d="M1343 2854 c-7 -3 -13 -15 -13 -26 0 -17 5 -20 30 -14 29 5 30 5 30 -34 0 -22 -4 -40 -10 -40 -5 0 -10 5 -10 10 0 6 -9 10 -20 10 -12 0 -20 -7 -20 -17 0 -25 10 -37 47 -58 27 -16 35 -16 61 -6 56 23 72 47 72 106 0 30 -3 56 -7 58 -13 8 -147 17 -160 11z"></path><path id="pXqf9yY4y" d="M1740 2775 c0 -28 4 -35 20 -35 21 0 24 10 14 48 -10 36 -34 27 -34 -13z"></path><path id="piLruB0fp" d="M1272 2770 c0 -19 2 -27 5 -17 2 9 2 25 0 35 -3 9 -5 1 -5 -18z"></path><path id="pgVN3KI23" d="M1056 2715 c-20 -81 -20 -85 2 -85 14 0 21 13 30 51 16 67 15 99 -2 99 -8 0 -20 -24 -30 -65z"></path><path id="puNf5c9KY" d="M798 2729 c-24 -13 -23 -29 2 -29 13 0 20 7 20 20 0 23 1 23 -22 9z"></path><path id="pVFaeSzG4" d="M2034 2714 c3 -9 6 -77 7 -152 0 -75 3 -130 6 -122 4 8 16 31 28 50 30 47 79 191 68 200 -7 7 -100 40 -111 40 -2 0 -1 -7 2 -16z"></path><path id="ptQIotABW" d="M733 2707 c-18 -6 -33 -14 -33 -20 0 -28 46 -157 72 -204 32 -56 48 -61 48 -12 0 22 -5 29 -20 29 -15 0 -20 7 -20 27 0 14 -8 51 -17 80 -14 44 -15 56 -4 62 7 5 11 17 9 28 -3 16 -7 18 -35 10z"></path><path id="pAiUVaQ6w" d="M1770 2654 c0 -14 10 -68 22 -120 17 -77 25 -94 40 -94 23 0 23 -6 -8 128 -18 75 -31 112 -40 112 -8 0 -14 -11 -14 -26z"></path><path id="p16GLRODqY" d="M1460 2550 l-35 -29 38 -1 c35 0 37 2 37 30 0 17 -1 30 -3 30 -1 0 -18 -13 -37 -30z"></path><path id="pRYwfMxbq" d="M986 2418 c-10 -38 -7 -48 14 -48 16 0 20 7 20 35 0 40 -24 49 -34 13z"></path><path id="p1DyJ53IZt" d="M1830 2385 c0 -28 4 -35 20 -35 21 0 24 10 14 48 -10 36 -34 27 -34 -13z"></path><path id="p3KraPoHc" d="M967 2328 c-6 -22 7 -48 24 -48 5 0 9 16 9 35 0 40 -24 49 -33 13z"></path><path id="pDwWky8EQ" d="M970 1230 c0 -19 7 -20 134 -20 132 0 135 -1 154 -25 27 -34 34 -31 30 12 -4 48 -15 51 -185 52 -127 1 -133 0 -133 -19z"></path><path id="p5zSyAp8L" d="M1630 1230 c0 -18 7 -20 85 -20 78 0 85 2 85 20 0 18 -7 20 -85 20 -78 0 -85 -2 -85 -20z"></path><path id="p82tbC81Q" d="M910 1155 c0 -19 5 -35 10 -35 6 0 10 -9 10 -19 0 -21 19 -31 61 -31 39 0 37 21 -4 40 -25 12 -33 22 -35 48 -2 24 -8 32 -23 32 -15 0 -19 -7 -19 -35z"></path><path id="phNWNA1Ka" d="M703 840 c-24 -91 -24 -97 -3 -103 26 -7 27 -4 21 78 l-6 70 -12 -45z"></path><path id="paDvvkBlm" d="M2134 806 c-1 -97 -25 -164 -81 -226 -52 -58 -87 -79 -158 -95 l-49 -11 39 -27 c32 -22 51 -27 98 -27 66 0 88 9 135 53 59 57 76 167 47 307 -21 102 -30 109 -31 26z"></path><path id="pSgEMzgxo" d="M715 590 c11 -52 50 -143 63 -148 8 -2 12 8 12 32 0 20 -4 36 -10 36 -5 0 -10 10 -10 22 0 41 -23 88 -43 88 -15 0 -17 -5 -12 -30z"></path><path id="pICkW87C0" d="M1310 601 c0 -17 6 -21 30 -21 34 0 163 -40 168 -52 2 -4 10 -8 18 -8 8 0 14 -4 14 -10 0 -5 6 -10 14 -10 8 0 16 -7 20 -15 3 -8 15 -15 26 -15 11 0 20 -7 20 -15 0 -9 9 -15 24 -15 18 0 25 -6 28 -22 2 -19 10 -24 41 -26 34 -3 37 -6 37 -33 0 -24 4 -29 25 -29 14 0 25 -6 25 -12 0 -7 3 -23 6 -35 5 -17 2 -23 -10 -23 -9 0 -19 -7 -22 -15 -4 -8 -10 -15 -16 -15 -13 0 -38 -26 -38 -39 0 -6 -11 -11 -25 -11 -15 0 -25 -6 -25 -14 0 -52 109 7 174 95 l26 36 -77 64 c-256 214 -297 238 -427 254 -53 7 -56 6 -56 -14z"></path><path id="pnHwQ1Xao" d="M890 406 c0 -9 19 -18 50 -25 67 -14 70 -14 70 8 0 14 -10 20 -37 25 -60 9 -83 7 -83 -8z"></path><path id="pRwqp3Pw2" d="M1030 376 c0 -8 24 -20 65 -30 81 -20 85 -20 85 2 0 14 -13 21 -51 30 -67 16 -99 15 -99 -2z"></path><path id="phTUwKZ76" d="M1190 337 c0 -10 17 -19 51 -27 28 -7 98 -27 155 -45 l104 -33 0 23 c0 24 -22 35 -72 35 -14 0 -28 5 -30 11 -2 5 -24 13 -48 16 -25 3 -48 10 -51 15 -3 5 -29 11 -57 15 -43 5 -52 3 -52 -10z"></path><path id="p1GvXqJyOG" d="M895 260 c30 -32 100 -70 127 -70 9 0 19 8 21 18 4 13 5 12 6 -5 1 -22 7 -25 99 -38 31 -5 42 -3 42 7 0 10 2 10 8 1 4 -7 22 -16 40 -19 29 -6 32 -4 32 18 0 24 -7 27 -126 58 -106 28 -127 31 -135 19 -7 -12 -9 -11 -9 2 0 17 -64 39 -111 39 -22 0 -22 -1 6 -30z"></path><path id="p4fJ2HHBr" d="M1290 171 c0 -19 35 -31 89 -31 24 1 24 2 -9 16 -77 34 -80 35 -80 15z"></path></g></g><g id="l5fUMvl1c1uJJU5o6Su9Bz2" fill="rgb(71,95,117)" style="transform: none;"><g><path id="pIK6wmIDF" d="M120 3178 c0 -225 4 -378 11 -401 14 -52 70 -112 132 -140 51 -23 364 -103 373 -95 2 3 -11 49 -28 104 -18 54 -32 103 -33 107 0 5 25 19 55 31 30 13 84 37 119 55 36 17 70 31 77 31 31 0 18 23 -56 101 -88 93 -95 111 -56 162 54 71 236 381 236 402 0 3 -135 5 -300 5 l-300 0 0 -305 c0 -292 -1 -306 -20 -325 -23 -23 -58 -26 -83 -7 -15 11 -17 45 -19 322 l-3 310 -52 3 -53 3 0 -363z"></path><path id="pNC0DS4x2" d="M1246 3498 c-4 -24 -17 -74 -30 -112 -22 -67 -22 -69 -5 -135 9 -36 30 -119 45 -184 32 -134 39 -150 55 -124 7 12 23 17 59 17 l50 0 0 290 0 290 -84 0 -84 0 -6 -42z"></path><path id="p17r7QRYbS" d="M1984 3361 c-2 -2 1 -10 7 -18 16 -19 89 -17 89 2 0 8 -6 15 -12 16 -59 3 -80 3 -84 0z"></path><path id="p1BsI9OZ5E" d="M2248 3363 c-10 -2 -18 -11 -18 -19 0 -11 15 -14 60 -14 53 0 60 2 60 20 0 17 -6 20 -42 19 -24 -1 -51 -3 -60 -6z"></path><path id="p4if2Zcp1" d="M1606 3275 c-20 -81 -20 -85 2 -85 14 0 21 13 30 51 16 67 15 99 -2 99 -8 0 -20 -24 -30 -65z"></path><path id="p1BL9mop0W" d="M2330 3250 c0 -13 7 -20 18 -20 11 0 27 9 37 20 18 20 17 20 -18 20 -30 0 -37 -4 -37 -20z"></path><path id="psHPONIE7" d="M1546 3028 c-10 -38 -7 -48 14 -48 16 0 20 7 20 35 0 40 -24 49 -34 13z"></path><path id="pY01t9FFI" d="M1116 2978 c-10 -38 -7 -48 14 -48 16 0 20 7 20 35 0 40 -24 49 -34 13z"></path><path id="pfrX1anqE" d="M1220 2790 c0 -63 2 -70 20 -70 17 0 20 7 20 48 0 61 -9 92 -26 92 -11 0 -14 -17 -14 -70z"></path><path id="p1Gh1oJgUV" d="M1337 2843 c-9 -9 -9 -105 1 -118 8 -13 67 -55 76 -55 3 0 6 11 6 25 0 15 -9 31 -25 41 -21 14 -25 24 -25 65 0 46 -13 63 -33 42z"></path><path id="peyYZyDsc" d="M1730 2815 c0 -28 4 -35 20 -35 21 0 24 10 14 48 -10 36 -34 27 -34 -13z"></path><path id="psEEIqdFB" d="M753 2712 c-23 -9 -44 -20 -47 -23 -10 -10 46 -174 71 -208 36 -47 43 -29 43 122 0 141 2 137 -67 109z m26 -84 l-1 -53 -13 35 c-18 47 -18 70 0 70 12 0 15 -12 14 -52z"></path><path id="pRHLLqawx" d="M1230 2665 c0 -34 1 -35 37 -35 l36 0 -21 23 c-12 13 -22 29 -22 35 0 7 -7 12 -15 12 -10 0 -15 -11 -15 -35z"></path><path id="pFyx1FVzW" d="M996 2458 c-10 -38 -7 -48 14 -48 16 0 20 7 20 35 0 40 -24 49 -34 13z"></path><path id="pMLWwZ42E" d="M1820 2425 c0 -28 4 -35 20 -35 21 0 24 10 14 48 -10 36 -34 27 -34 -13z"></path><path id="pYbYVOEPV" d="M707 856 c-4 -10 -5 -21 -2 -24 9 -9 17 6 13 25 -3 17 -4 17 -11 -1z"></path><path id="p1H8KcfLns" d="M687 760 c-4 -15 0 -20 14 -20 12 0 19 7 19 20 0 11 -6 20 -14 20 -7 0 -16 -9 -19 -20z"></path><path id="pViayr4gb" d="M710 616 c0 -7 27 -88 47 -143 9 -24 22 -43 29 -43 8 0 14 -4 14 -9 0 -14 92 -31 132 -25 24 4 39 1 50 -9 22 -22 68 -33 78 -18 12 20 100 3 100 -19 0 -10 10 -20 23 -24 36 -9 47 -7 47 10 0 11 5 14 16 10 9 -3 23 -6 32 -7 11 0 12 -2 5 -6 -21 -8 -15 -30 10 -37 35 -9 47 -7 47 9 0 16 11 17 50 5 24 -8 24 -8 3 -9 -48 -2 -16 -40 35 -41 6 0 12 7 12 15 0 17 14 18 45 5 19 -8 19 -9 -3 -9 -32 -1 -23 -22 16 -38 30 -12 32 -12 32 7 0 22 7 25 30 10 13 -8 12 -10 -3 -10 -28 0 -15 -22 21 -37 30 -12 32 -12 32 7 0 20 1 20 33 3 24 -13 28 -18 15 -21 -26 -5 -22 -15 13 -36 30 -18 30 -17 36 2 3 13 11 18 24 15 13 -4 35 11 74 50 30 31 55 62 54 69 0 14 -186 172 -279 237 -30 22 -84 50 -120 62 -62 22 -80 23 -407 27 -189 2 -343 1 -343 -2z"></path><path id="pyHyEQGdE" d="M895 265 c29 -24 43 -19 31 10 -3 9 -18 15 -33 15 l-28 -1 30 -24z"></path><path id="p1FazW26o2" d="M970 250 c0 -16 7 -20 35 -20 40 0 49 24 13 34 -38 10 -48 7 -48 -14z"></path><path id="pcBrb0ttE" d="M1060 196 c0 -13 28 -26 58 -26 6 0 12 9 12 20 0 16 -7 20 -35 20 -23 0 -35 -5 -35 -14z"></path><path id="p12DiwoAg6" d="M1210 176 c0 -13 28 -26 58 -26 6 0 12 9 12 20 0 16 -7 20 -35 20 -23 0 -35 -5 -35 -14z"></path><path id="p3WbrkeQn" d="M1320 162 c0 -10 33 -22 60 -22 13 1 13 2 0 9 -27 16 -60 22 -60 13z"></path></g></g><g id="l1IdipyuRJBoXIltsbGoZpK" fill="rgb(165,66,58)" style="transform: none;"><g><path id="pE4vmvuaS" d="M1396 2502 c-15 -19 -17 -34 -12 -76 l7 -53 -83 -6 c-98 -7 -118 -13 -118 -37 0 -14 -9 -20 -37 -22 -31 -2 -39 -7 -41 -25 -3 -17 -10 -23 -28 -23 -19 0 -24 -5 -24 -25 0 -34 9 -32 66 14 94 74 115 81 281 82 170 2 218 -9 324 -80 34 -23 65 -41 70 -41 5 0 9 10 9 23 0 30 -33 61 -87 82 -24 10 -43 24 -43 32 0 15 -49 62 -65 63 -6 0 -16 9 -22 20 -7 10 -36 38 -64 60 -60 48 -104 52 -133 12z"></path><path id="pA87oLNAc" d="M1173 2170 c-50 -33 -96 -66 -103 -75 -11 -13 -8 -15 24 -15 25 0 36 4 36 15 0 8 9 15 20 15 11 0 20 5 20 10 0 6 7 10 15 10 8 0 15 9 15 20 0 15 7 20 25 20 37 0 75 21 75 42 0 31 -34 20 -127 -42z"></path><path id="pnqX9a5l2" d="M1540 2210 c0 -16 7 -20 30 -20 20 0 30 -5 30 -15 0 -10 11 -15 35 -15 19 0 35 4 35 8 0 12 -93 62 -114 62 -9 0 -16 -8 -16 -20z"></path><path id="pIncENXLN" d="M1722 2108 c3 -29 7 -33 36 -36 30 -3 32 -2 23 16 -6 10 -22 27 -36 36 l-26 17 3 -33z"></path><path id="pxKg8jYYW" d="M2000 1603 l0 -37 20 22 c12 12 27 22 35 22 8 0 15 7 15 15 0 10 -11 15 -35 15 -34 0 -35 -1 -35 -37z"></path><path id="pJgXTURqh" d="M690 1604 c-6 -14 -10 -39 -10 -55 0 -39 26 -38 35 1 4 16 17 38 31 49 32 25 30 31 -11 31 -29 0 -37 -5 -45 -26z"></path><path id="pvFxFbUp3" d="M2080 1626 c0 -3 14 -18 30 -34 17 -17 30 -38 30 -46 0 -9 7 -16 15 -16 10 0 15 10 15 31 0 49 -16 69 -55 69 -19 0 -35 -2 -35 -4z"></path><path id="p16fl7CXUX" d="M2138 1413 c-3 -38 -3 -76 0 -85 5 -22 32 -24 32 -3 0 9 9 15 23 15 32 0 57 30 57 68 0 42 -31 72 -74 72 l-34 0 -4 -67z"></path><path id="pSh3qoZCQ" d="M614 1426 c-3 -8 -4 -27 -2 -43 3 -26 6 -28 57 -31 46 -3 53 -1 47 13 -3 9 -6 30 -6 46 0 28 -2 29 -45 29 -30 0 -47 -5 -51 -14z"></path><path id="pu2CEA8Bu" d="M2140 1281 c0 -5 -3 -16 -6 -25 -4 -12 0 -16 15 -16 16 0 21 6 21 25 0 16 -6 25 -15 25 -8 0 -15 -4 -15 -9z"></path><path id="p1YWvtFFT" d="M1620 1230 c0 -21 10 -24 48 -14 36 10 27 34 -13 34 -28 0 -35 -4 -35 -20z"></path><path id="pTwW7m9KS" d="M1740 1236 c0 -13 28 -26 58 -26 6 0 12 9 12 20 0 16 -7 20 -35 20 -23 0 -35 -5 -35 -14z"></path><path id="pV2NrX8Av" d="M1880 1200 c11 -11 20 -27 20 -35 0 -8 7 -15 15 -15 10 0 15 11 15 35 0 33 -2 35 -35 35 l-35 0 20 -20z"></path><path id="pWU1ef76E" d="M1580 1099 c0 -26 3 -29 35 -29 45 0 45 20 0 41 l-35 16 0 -28z"></path><path id="pU9rGnOHj" d="M1970 765 c0 -19 -4 -35 -10 -35 -5 0 -10 -16 -10 -35 0 -19 4 -35 9 -35 12 0 38 57 46 103 7 33 5 37 -14 37 -17 0 -21 -6 -21 -35z"></path><path id="pf96LibRh" d="M1380 746 c0 -13 28 -26 58 -26 6 0 12 9 12 20 0 16 -7 20 -35 20 -23 0 -35 -5 -35 -14z"></path><path id="ps4lXbl4J" d="M1685 610 c3 -5 19 -19 35 -30 l30 -21 0 30 c0 29 -3 31 -36 31 -20 0 -33 -4 -29 -10z"></path></g></g><g id="l2cRly6GH1AmWTdPeQpj3k0" fill="rgb(78,104,127)" style="transform: none;"><g><path id="pO4JarXLb" d="M1197 3318 c-21 -69 -21 -75 2 -81 13 -3 20 -18 25 -51 6 -37 11 -46 27 -46 19 0 20 4 13 43 -5 23 -8 58 -8 77 0 19 -1 29 -4 21 -3 -8 -12 9 -21 39 l-16 53 -18 -55z"></path><path id="pNujsLmtJ" d="M2308 3363 c-10 -2 -18 -11 -18 -19 0 -10 13 -14 45 -14 47 0 58 12 26 30 -20 10 -25 11 -53 3z"></path><path id="pUI4pqx8d" d="M2002 3325 c29 -44 38 -44 38 0 0 32 -2 35 -30 35 l-30 0 22 -35z"></path><path id="p6zMdvvB4" d="M1627 3343 c-4 -3 -7 -19 -7 -35 0 -21 5 -28 20 -28 21 0 24 10 14 48 -6 22 -15 27 -27 15z"></path><path id="p67DGB3iS" d="M2360 3285 c0 -12 -19 -15 -115 -15 -108 0 -115 -1 -115 -20 0 -19 7 -20 113 -20 86 0 118 4 135 16 28 19 30 54 2 54 -11 0 -20 -7 -20 -15z"></path><path id="p1EgKqkIFq" d="M1650 3175 c0 -28 4 -35 20 -35 21 0 24 10 14 48 -10 36 -34 27 -34 -13z"></path><path id="pz2K34OAk" d="M352 3100 c0 -19 2 -27 5 -17 2 9 2 25 0 35 -3 9 -5 1 -5 -18z"></path><path id="pVXDfumiB" d="M1250 3103 c0 -16 7 -52 14 -81 14 -50 13 -54 -5 -70 -17 -15 -28 -82 -13 -82 6 0 54 55 67 76 11 19 -32 184 -49 184 -9 0 -14 -11 -14 -27z"></path><path id="pOiQ44Bgw" d="M1136 3078 c-10 -38 -7 -48 14 -48 16 0 20 7 20 35 0 40 -24 49 -34 13z"></path><path id="p1HIPtCvEL" d="M739 2985 c64 -78 92 -106 102 -103 5 2 -23 35 -63 73 -40 39 -57 52 -39 30z"></path><path id="p1t0OUG6G" d="M1700 2955 c0 -28 4 -35 20 -35 21 0 24 10 14 48 -10 36 -34 27 -34 -13z"></path><path id="pReI3GSjA" d="M1106 2928 c-10 -38 -7 -48 14 -48 16 0 20 7 20 35 0 40 -24 49 -34 13z"></path><path id="pFQllV1k9" d="M1588 2860 c3 -31 8 -40 23 -40 15 0 19 7 19 40 0 35 -3 40 -23 40 -20 0 -22 -4 -19 -40z"></path><path id="pGLSpFh3U" d="M1220 2750 c0 -60 4 -100 10 -100 6 0 10 -7 10 -15 0 -11 11 -15 38 -15 l37 1 -27 23 c-24 21 -28 33 -32 103 -3 43 -5 84 -6 91 0 6 -7 12 -15 12 -12 0 -15 -18 -15 -100z"></path><path id="p15l9ltAVn" d="M1337 2828 c-4 -12 -3 -41 0 -65 5 -35 12 -47 38 -63 18 -11 35 -20 39 -20 3 0 6 38 6 85 l0 85 -39 0 c-31 0 -40 -4 -44 -22z"></path><path id="pjJpSsEUx" d="M1076 2798 c-10 -38 -7 -48 14 -48 16 0 20 7 20 35 0 40 -24 49 -34 13z"></path><path id="p11x0lALjJ" d="M1750 2736 c0 -52 12 -86 31 -86 22 0 23 6 8 66 -12 47 -39 61 -39 20z"></path><path id="pQhQRaiGN" d="M748 2707 l-46 -22 27 -82 c30 -92 29 -90 56 -95 19 -3 20 3 23 110 1 61 -1 112 -5 111 -4 0 -29 -10 -55 -22z"></path><path id="p15AewkKoA" d="M1021 2558 c-26 -112 -25 -108 -3 -108 15 0 22 15 35 75 21 92 21 125 3 125 -9 0 -21 -31 -35 -92z"></path><path id="pKbEHxxQa" d="M1360 2541 c0 -35 24 -50 79 -49 27 1 31 5 31 30 0 31 -11 36 -30 13 -10 -12 -17 -11 -46 11 l-34 26 0 -31z"></path><path id="p8FDSfsfi" d="M972 2348 c-8 -40 1 -78 19 -78 7 0 19 61 19 98 0 40 -28 25 -38 -20z"></path><path id="ptSr66kZx" d="M1840 2335 c0 -28 4 -35 20 -35 21 0 24 10 14 48 -10 36 -34 27 -34 -13z"></path><path id="pO65EFuz9" d="M1180 1236 c0 -13 28 -26 58 -26 6 0 12 9 12 20 0 16 -7 20 -35 20 -23 0 -35 -5 -35 -14z"></path><path id="puHo7iio3" d="M707 853 c-4 -7 -11 -35 -14 -63 -5 -45 -4 -50 13 -50 17 0 19 6 16 48 -5 72 -6 79 -15 65z"></path><path id="pdhg1Id4P" d="M760 471 c0 -6 5 -21 11 -35 10 -20 18 -24 56 -24 24 0 61 -8 81 -18 25 -12 59 -17 105 -17 49 1 67 -2 67 -12 0 -7 22 -18 51 -25 43 -10 53 -10 60 1 7 11 9 11 9 -2 0 -11 15 -20 44 -28 58 -14 66 -14 66 3 0 9 8 12 28 8 15 -3 21 -7 15 -9 -31 -11 -8 -31 57 -50 67 -19 70 -19 70 -2 0 13 5 16 16 12 11 -4 12 -8 4 -13 -17 -11 -5 -26 30 -38 24 -9 30 -8 30 4 0 9 10 14 28 13 23 -2 24 -2 5 -6 -37 -7 -27 -19 41 -56 l65 -34 35 21 c20 11 36 22 36 25 0 8 -166 87 -247 117 -91 34 -322 90 -451 109 -157 23 -275 45 -294 56 -12 6 -18 6 -18 0z m950 -281 c0 -5 -7 -10 -15 -10 -8 0 -15 5 -15 10 0 6 7 10 15 10 8 0 15 -4 15 -10z"></path><path id="p8nGl0PQ4" d="M900 265 c13 -14 29 -25 37 -25 7 0 13 -5 13 -11 0 -5 16 -17 37 -25 36 -16 193 -46 216 -43 6 1 28 0 47 -4 19 -3 60 -8 90 -11 l55 -5 -53 24 c-29 13 -89 34 -133 46 -68 18 -83 20 -90 8 -7 -11 -9 -11 -9 3 0 22 -59 36 -71 17 -7 -11 -9 -11 -9 2 0 12 -18 21 -65 33 -85 21 -93 20 -65 -9z"></path></g></g><g id="l2M4icYmmFEWyNBeJBinoxF" fill="rgb(175,75,63)" style="transform: none;"><g><path id="p5hyfkqJo" d="M1443 2536 c-8 -15 -14 -16 -32 -7 -17 9 -21 9 -21 -2 0 -19 -153 -152 -212 -185 -27 -15 -48 -30 -48 -34 0 -5 -6 -8 -13 -8 -8 0 -22 -9 -32 -20 -10 -11 -24 -20 -32 -20 -19 0 -16 -37 4 -44 10 -4 29 4 52 23 20 17 61 44 90 62 50 28 66 32 170 39 64 4 108 8 99 9 -37 3 -63 92 -37 128 14 21 17 21 37 7 21 -15 22 -14 22 15 0 20 -5 31 -14 31 -8 0 -16 6 -18 12 -3 8 -8 6 -15 -6z"></path><path id="p16zykFwgV" d="M1541 2423 c18 -21 25 -30 14 -22 -36 29 -51 34 -31 11 17 -20 18 -23 3 -46 -16 -24 -16 -24 26 -31 23 -4 67 -19 97 -33 30 -14 58 -24 63 -24 4 1 7 -3 7 -9 0 -5 4 -8 9 -5 5 4 21 -8 35 -25 27 -32 56 -34 56 -4 0 10 -10 15 -30 15 -26 0 -30 3 -30 29 0 24 -8 35 -45 58 -25 15 -45 31 -45 36 0 4 -7 7 -15 7 -8 0 -20 9 -27 20 -7 11 -17 20 -21 20 -5 0 -20 9 -34 20 -14 11 -35 20 -46 20 -19 0 -17 -4 14 -37z"></path><path id="p17bioBGWp" d="M1530 2213 c0 -19 46 -43 83 -43 9 0 17 -7 17 -15 0 -8 7 -15 15 -15 8 0 15 -4 15 -10 0 -5 7 -10 15 -10 8 0 15 -4 15 -10 0 -5 16 -10 36 -10 31 0 35 2 24 15 -21 26 -155 104 -188 111 -27 6 -32 4 -32 -13z"></path><path id="pSILpIe75" d="M1120 2130 l-35 -29 38 -1 c35 0 37 2 37 30 0 17 -1 30 -3 30 -1 0 -18 -13 -37 -30z"></path><path id="pXnahKTBC" d="M2000 1657 c0 -19 -5 -37 -12 -39 -8 -3 -14 -33 -16 -81 -4 -73 -3 -77 17 -77 19 0 21 6 21 56 0 74 12 94 55 94 58 0 75 -26 75 -117 0 -65 2 -74 13 -59 14 20 42 13 57 -14 12 -23 -19 -53 -52 -48 -14 2 -23 -2 -22 -9 3 -38 5 -43 18 -43 8 0 16 7 20 15 3 9 18 15 35 15 48 0 64 42 59 152 -4 94 -16 121 -72 162 -21 16 -46 22 -112 25 l-84 3 0 -35z"></path><path id="pW0NgzrHy" d="M621 1635 c-32 -42 -44 -94 -39 -180 3 -66 7 -80 27 -96 27 -22 111 -27 110 -6 -1 19 -18 54 -18 38 -1 -8 -4 -11 -7 -8 -4 4 -2 12 4 19 5 7 12 51 14 96 3 69 7 86 23 98 27 20 65 17 92 -8 l23 -21 0 35 0 36 -62 6 c-35 3 -81 9 -104 12 -36 5 -44 3 -63 -21z m48 -239 c11 -14 6 -15 -27 -7 -4 1 8 21 12 21 2 0 9 -6 15 -14z"></path><path id="pRWWqgzJZ" d="M2160 1260 c0 -13 7 -20 18 -20 11 0 27 9 37 20 18 20 17 20 -18 20 -30 0 -37 -4 -37 -20z"></path><path id="pI0ibFR3E" d="M960 1225 c0 -20 -5 -25 -25 -25 -22 0 -25 -4 -25 -39 0 -60 7 -71 49 -71 30 1 33 3 20 13 -48 37 -39 94 19 111 44 12 42 36 -3 36 -31 0 -35 -3 -35 -25z"></path><path id="pwNMtpwXC" d="M1590 1226 c0 -23 2 -23 38 -15 20 5 40 9 45 9 4 0 7 7 7 15 0 11 -12 15 -45 15 -41 0 -45 -2 -45 -24z"></path><path id="pa975QNv8" d="M1750 1235 c0 -14 24 -21 103 -28 33 -3 37 0 37 20 0 22 -4 23 -70 23 -55 0 -70 -3 -70 -15z"></path><path id="p9CKJPbts" d="M1878 1118 c-16 -16 -28 -31 -28 -34 0 -2 16 -4 35 -4 33 0 35 2 35 35 0 42 -6 42 -42 3z"></path><path id="pMgcDizXA" d="M1966 774 c-8 -64 -8 -84 4 -84 14 0 27 30 35 83 7 43 5 47 -13 47 -15 0 -21 -9 -26 -46z"></path><path id="pp763QyBx" d="M1330 756 c0 -13 28 -26 58 -26 6 0 12 9 12 20 0 16 -7 20 -35 20 -23 0 -35 -5 -35 -14z"></path><path id="pRo6ix8Xg" d="M1460 727 c0 -7 23 -20 50 -29 l50 -16 0 23 c0 15 -7 25 -22 29 -39 10 -78 7 -78 -7z"></path><path id="pWGU1EzLM" d="M1590 672 c0 -8 52 -42 64 -42 3 0 6 11 6 25 0 22 -4 25 -35 25 -19 0 -35 -4 -35 -8z"></path><path id="pmY2tsZnR" d="M1913 661 c-3 -13 -17 -20 -46 -24 -23 -3 -43 -11 -45 -16 -2 -6 -10 -11 -18 -11 -8 0 -14 -9 -14 -20 0 -15 -7 -20 -25 -20 -21 0 -25 5 -25 30 0 28 -2 30 -37 30 l-38 0 55 -49 55 -49 29 25 c17 14 55 36 85 49 77 34 107 74 55 74 -17 0 -28 -6 -31 -19z"></path></g></g><g id="l2A5qUqSyR4868Ul8xAE1Dp" fill="rgb(112,141,161)" style="transform: none;"><g><path id="pGofU0gP2" d="M1207 3365 c-10 -35 -67 -276 -67 -286 0 -5 8 -9 19 -9 13 0 20 10 25 32 3 18 11 50 18 72 l11 41 31 -125 c17 -69 28 -126 24 -128 -5 -2 -8 -10 -8 -18 0 -8 -6 -14 -14 -14 -17 0 -26 -22 -26 -61 0 -36 25 -39 34 -4 4 14 14 33 24 43 42 44 43 37 -12 262 -32 132 -55 207 -59 195z"></path><path id="pOI0h5Fad" d="M1586 3183 c-25 -103 -46 -200 -46 -215 0 -14 12 -41 27 -58 25 -31 26 -37 24 -134 l-2 -101 -79 -78 c-44 -43 -80 -83 -80 -88 0 -6 12 -9 28 -7 21 2 28 9 30 31 3 22 8 27 31 27 19 0 39 13 69 45 l42 46 0 129 c0 72 -4 130 -9 130 -5 0 -11 8 -15 18 -3 9 -11 25 -18 34 -10 14 -7 40 17 139 l30 123 11 -50 c6 -27 23 -101 38 -164 15 -63 34 -152 42 -197 14 -69 19 -83 35 -83 10 0 19 3 19 8 0 12 -38 190 -65 307 -14 61 -35 155 -47 210 -11 55 -24 104 -28 108 -4 5 -28 -76 -54 -180z"></path><path id="p1GwcOIHoj" d="M2360 3329 c0 -45 -15 -59 -62 -59 -26 0 -38 -4 -38 -14 0 -18 50 -30 90 -21 50 11 68 76 30 110 -20 18 -20 17 -20 -16z"></path><path id="pLvpnUjho" d="M2020 3304 c0 -4 9 -22 21 -40 18 -30 26 -34 62 -34 57 0 87 9 87 26 0 10 -13 14 -44 14 -54 0 -76 8 -76 26 0 8 -10 14 -25 14 -14 0 -25 -3 -25 -6z"></path><path id="pijg6OPtc" d="M1125 3013 c-7 -40 -64 -293 -121 -534 -39 -169 -39 -169 -16 -169 14 0 22 23 44 118 15 64 48 207 74 317 55 240 64 305 41 305 -11 0 -18 -12 -22 -37z"></path><path id="pNgGcG58P" d="M1220 2675 c0 -23 5 -35 14 -35 7 0 16 -9 19 -20 4 -16 13 -20 44 -20 l38 0 -42 40 c-24 21 -43 46 -43 55 0 8 -7 15 -15 15 -10 0 -15 -11 -15 -35z"></path><path id="p130jQiLi" d="M1760 2688 c0 -13 19 -107 42 -210 40 -175 54 -209 73 -178 3 5 -15 98 -40 206 -25 108 -45 198 -45 200 0 2 -7 4 -15 4 -9 0 -15 -9 -15 -22z"></path><path id="pRSHihr70" d="M1380 2520 c0 -23 4 -30 20 -30 12 0 20 7 20 18 0 9 -9 23 -20 30 -18 11 -20 10 -20 -18z"></path><path id="p1EzqZ8LZn" d="M696 810 c-10 -51 -7 -70 9 -70 11 0 15 11 15 38 0 52 -15 73 -24 32z"></path><path id="pxdaUWrMT" d="M770 447 c0 -24 20 -33 115 -51 307 -59 663 -164 775 -228 37 -21 42 -22 67 -8 14 8 28 20 30 26 3 10 -121 73 -225 113 -29 12 -103 34 -165 50 -111 29 -178 43 -412 81 -66 11 -135 22 -152 26 -26 5 -33 3 -33 -9z"></path><path id="p1AKXi9Pog" d="M910 255 c21 -22 55 -42 94 -54 63 -21 259 -51 324 -51 37 1 37 1 12 14 -37 20 -421 126 -457 126 -4 0 8 -16 27 -35z"></path></g></g><g id="l3tkwhWQ80NyyAPrUgkwGFJ" fill="rgb(218,148,128)" style="transform: none;"><g><path id="p4o4I2kzG" d="M1344 2518 c-16 -13 -36 -30 -44 -38 -9 -8 -73 -62 -143 -120 -70 -57 -127 -110 -127 -117 0 -7 9 -17 20 -23 14 -7 20 -7 20 0 0 5 6 10 14 10 7 0 19 7 26 16 8 8 44 33 81 55 82 49 229 176 229 199 0 19 -19 40 -36 40 -6 0 -24 -10 -40 -22z"></path><path id="ptrFXD9pa" d="M1440 2525 c-7 -9 -11 -16 -9 -18 22 -12 42 -26 68 -45 l31 -23 0 30 c0 26 -4 31 -25 31 -18 0 -25 5 -25 20 0 24 -22 26 -40 5z"></path><path id="piKfgNi7w" d="M1540 2426 c0 -3 100 -85 158 -129 9 -7 12 -2 12 22 0 26 -4 31 -25 31 -18 0 -25 5 -25 20 0 15 -7 20 -25 20 -18 0 -25 5 -25 20 0 16 -7 20 -35 20 -19 0 -35 -2 -35 -4z"></path><path id="p14QoRgU3g" d="M1212 2193 c-34 -20 -62 -40 -62 -45 0 -4 16 -8 35 -8 19 0 35 5 35 10 0 6 7 10 15 10 8 0 15 7 15 15 0 10 10 15 30 15 23 0 30 4 30 20 0 30 -27 25 -98 -17z"></path><path id="p3hmsorFU" d="M1520 2210 c0 -16 7 -20 35 -20 40 0 49 24 13 34 -38 10 -48 7 -48 -14z"></path><path id="pVdekrKZM" d="M1610 2175 c0 -16 6 -25 15 -25 8 0 15 -4 15 -10 0 -5 7 -10 15 -10 8 0 15 -4 15 -10 0 -5 7 -10 15 -10 8 0 15 -4 15 -10 0 -5 8 -10 19 -10 25 0 31 -26 31 -138 0 -89 2 -96 33 -140 l32 -47 3 -272 c3 -251 4 -273 20 -273 32 0 62 -29 62 -60 0 -35 -23 -60 -56 -60 l-24 0 0 -191 0 -190 -35 26 c-60 46 -167 77 -287 83 l-108 5 0 -32 c0 -26 -4 -31 -25 -31 -15 0 -25 -6 -25 -14 0 -9 31 -21 91 -35 103 -24 227 -84 294 -143 24 -21 46 -38 50 -38 3 0 23 13 43 29 20 16 53 34 73 40 43 14 72 42 96 96 16 36 18 79 20 459 1 288 4 421 12 429 6 6 11 24 11 40 l0 29 55 -4 c89 -7 141 -58 151 -145 4 -28 4 -63 0 -77 -9 -36 -41 -66 -71 -66 -24 0 -25 -2 -25 -65 0 -62 1 -65 24 -65 37 0 122 73 151 130 52 103 24 250 -61 317 -61 47 -99 63 -169 70 -62 6 -65 7 -65 33 0 43 -26 118 -54 155 -25 32 -148 125 -166 125 -5 0 -13 6 -17 14 -9 15 -152 116 -165 116 -4 0 -8 -11 -8 -25z"></path><path id="pS0IimqSp" d="M1080 2100 l-35 -29 38 -1 c35 0 37 2 37 30 0 17 -1 30 -3 30 -1 0 -18 -13 -37 -30z"></path><path id="pwgQH1ny6" d="M1400 1861 l0 -61 115 0 115 0 0 38 c0 62 -24 76 -136 80 l-94 4 0 -61z"></path><path id="pQTrpC8CY" d="M1400 1636 l0 -96 89 0 c102 0 101 -1 101 89 0 78 -15 91 -114 98 l-76 6 0 -97z"></path><path id="pynTGiFGg" d="M668 1679 c-10 -5 -18 -21 -18 -34 0 -20 -5 -25 -24 -25 -26 0 -46 -39 -46 -91 0 -42 25 -36 38 10 7 21 21 50 32 64 18 23 24 25 48 15 15 -6 48 -10 73 -9 34 1 48 -2 52 -14 13 -33 27 -13 27 40 l0 55 -82 0 c-46 0 -91 -5 -100 -11z"></path><path id="pG6sUzBwV" d="M580 1425 c0 -28 4 -35 20 -35 15 0 20 -7 20 -25 0 -21 5 -25 30 -25 27 0 30 -3 30 -30 0 -28 -3 -30 -37 -30 -35 0 -36 0 -18 -20 12 -13 31 -20 57 -20 l38 0 0 65 c0 64 0 65 -28 65 -38 0 -69 24 -77 60 -9 43 -35 39 -35 -5z"></path><path id="p0ATQ519h" d="M1190 1237 c0 -8 16 -18 35 -24 33 -11 35 -10 35 13 0 21 -5 24 -35 24 -22 0 -35 -5 -35 -13z"></path><path id="ptlCpQZhm" d="M1573 1243 c-12 -4 -19 -73 -8 -73 2 0 15 11 29 25 14 14 32 25 41 25 8 0 15 7 15 15 0 15 -48 20 -77 8z"></path><path id="pu03XLqi5" d="M1270 1155 c0 -8 -9 -24 -20 -35 l-20 -20 35 0 c33 0 35 2 35 35 0 24 -5 35 -15 35 -8 0 -15 -7 -15 -15z"></path><path id="pplC3sUzz" d="M1560 1115 c0 -33 2 -35 35 -35 19 0 35 2 35 4 0 3 -14 18 -31 35 -17 17 -32 31 -35 31 -2 0 -4 -16 -4 -35z"></path><path id="pt4dmOyr6" d="M840 780 c0 -33 3 -40 20 -40 17 0 20 7 20 40 0 33 -3 40 -20 40 -17 0 -20 -7 -20 -40z"></path></g></g><g id="l56K1sUvIkkEdaTNGC8pBzT" fill="rgb(217,160,143)" style="transform: none;"><g><path id="pkSUUpJuY" d="M1380 2532 c0 -17 -6 -22 -25 -22 -30 0 -65 -28 -65 -52 0 -13 -8 -18 -25 -18 -20 0 -25 -5 -25 -25 0 -21 -5 -25 -30 -25 -25 0 -30 -4 -30 -25 0 -21 -5 -25 -30 -25 -27 0 -30 -3 -30 -31 0 -36 -14 -44 125 70 49 41 92 77 95 81 3 4 22 19 42 33 37 24 37 25 18 42 -19 17 -20 17 -20 -3z"></path><path id="pnLKsIrlg" d="M1435 2522 c-5 -5 24 -30 205 -176 63 -51 124 -103 134 -115 25 -28 36 -27 36 4 0 30 -28 65 -52 65 -10 0 -18 7 -18 15 0 8 -9 15 -20 15 -11 0 -20 7 -20 15 0 9 -9 15 -24 15 -18 0 -25 6 -28 23 -2 14 -11 23 -25 25 -13 2 -23 9 -23 16 0 19 -34 46 -58 46 -14 0 -22 7 -24 22 -2 18 -12 24 -40 29 -21 3 -40 4 -43 1z"></path><path id="pIm0oOHo0" d="M1243 2209 c-52 -26 -55 -39 -8 -39 19 0 35 5 35 10 0 6 11 10 25 10 18 0 25 5 25 20 0 26 -23 26 -77 -1z"></path><path id="pom5Dpzx4" d="M1400 2212 c0 -18 8 -20 92 -24 58 -3 93 -9 96 -16 4 -13 72 -17 72 -4 0 5 -19 19 -42 32 -34 19 -62 25 -130 28 -83 4 -88 3 -88 -16z"></path><path id="pY46aOUOG" d="M1126 2135 c-25 -20 -46 -38 -46 -40 0 -3 16 -5 35 -5 24 0 35 5 35 15 0 8 9 15 20 15 15 0 20 7 20 25 0 33 -8 32 -64 -10z"></path><path id="p7nNAOgDH" d="M1742 1986 c3 -117 6 -140 21 -150 9 -7 17 -18 17 -25 0 -6 4 -11 9 -11 5 0 12 -13 16 -30 5 -21 12 -30 27 -30 18 0 20 4 14 30 -3 17 -19 51 -36 75 -28 41 -30 49 -30 143 0 87 -2 101 -21 118 l-21 19 4 -139z"></path><path id="piiqZq8Cx" d="M1390 1860 l0 -60 35 0 c24 0 35 5 35 15 0 8 -7 15 -15 15 -10 0 -15 10 -15 30 0 20 5 30 15 30 8 0 15 7 15 15 0 10 -11 15 -35 15 l-35 0 0 -60z"></path><path id="phAOer0kq" d="M1510 1906 c0 -8 12 -17 28 -21 45 -11 83 -55 47 -55 -8 0 -15 -7 -15 -15 0 -10 11 -15 35 -15 33 0 35 2 35 35 0 19 -4 35 -10 35 -5 0 -10 7 -10 15 0 8 -9 15 -20 15 -11 0 -20 5 -20 10 0 6 -16 10 -35 10 -23 0 -35 -5 -35 -14z"></path><path id="pgFK5DLj3" d="M1986 1900 c3 -14 11 -32 16 -40 6 -10 7 -7 2 10 -3 14 -11 32 -16 40 -6 10 -7 7 -2 -10z"></path><path id="pU9OiVCEv" d="M2023 1753 c3 -5 31 -11 62 -12 31 -1 68 -6 81 -12 37 -14 43 -10 11 7 -32 17 -163 32 -154 17z"></path><path id="pyDvVUTeh" d="M1450 1715 c0 -10 14 -17 40 -21 25 -4 48 -16 59 -30 25 -32 31 -30 31 11 0 42 -20 55 -84 55 -34 0 -46 -4 -46 -15z"></path><path id="p1D7Vj71Is" d="M2257 1667 c28 -31 57 -73 63 -93 7 -19 14 -33 17 -30 14 13 -47 115 -88 146 l-44 35 52 -58z"></path><path id="p15rQ9FA5J" d="M620 1615 c0 -28 -4 -35 -20 -35 -16 0 -20 -7 -20 -35 0 -45 26 -48 35 -4 4 17 23 49 42 70 l35 39 -36 0 c-34 0 -36 -1 -36 -35z"></path><path id="pvDMeeVnt" d="M820 1613 c1 -19 22 -53 34 -53 3 0 6 16 6 35 0 28 -4 35 -20 35 -13 0 -20 -7 -20 -17z"></path><path id="piLnRv0ns" d="M1556 1595 c-6 -23 -11 -25 -66 -25 -47 0 -60 3 -60 15 0 8 -7 15 -15 15 -10 0 -15 -11 -15 -35 l0 -35 81 0 c91 0 109 10 109 59 0 38 -25 42 -34 6z"></path><path id="pWNdpK6kf" d="M2331 1428 c-1 -9 -22 -47 -47 -85 -33 -49 -38 -61 -19 -43 32 29 78 116 71 133 -2 7 -5 4 -5 -5z"></path><path id="pNmNZDWaP" d="M620 1270 c0 -12 33 -30 54 -30 9 0 16 9 16 20 0 16 -7 20 -35 20 -19 0 -35 -4 -35 -10z"></path><path id="p8bJeTwve" d="M930 1230 c-12 -12 -20 -33 -20 -55 0 -44 21 -46 37 -4 8 19 23 34 42 42 42 16 40 37 -4 37 -22 0 -43 -8 -55 -20z"></path><path id="p19qEfcBeI" d="M1546 1208 c-11 -44 -6 -95 13 -116 22 -26 81 -31 81 -7 0 8 -6 15 -14 15 -45 0 -61 75 -24 110 l22 20 -36 0 c-29 0 -37 -4 -42 -22z"></path><path id="p180paXoE8" d="M1250 1200 c11 -11 20 -27 20 -35 0 -8 7 -15 15 -15 10 0 15 11 15 35 0 33 -2 35 -35 35 l-35 0 20 -20z"></path><path id="pBvkx5WPh" d="M1233 1111 c-43 -21 -42 -41 2 -41 32 0 35 2 35 30 0 17 -1 29 -2 29 -2 -1 -18 -9 -35 -18z"></path><path id="p1GFRwqb6" d="M1820 1080 c0 -11 6 -20 14 -20 7 0 16 9 19 20 4 15 0 20 -14 20 -12 0 -19 -7 -19 -20z"></path><path id="pXFSowQJ4" d="M843 788 l2 -48 261 0 c144 0 275 -3 292 -6 31 -6 31 -6 25 30 l-6 36 42 0 c32 0 41 4 41 18 0 16 -22 17 -329 17 l-330 0 2 -47z"></path><path id="pGcRvQ3cj" d="M1510 816 c0 -9 19 -18 50 -25 138 -30 207 -69 259 -148 l32 -48 -3 50 c-3 48 -4 50 -35 53 -29 3 -33 7 -33 33 0 26 -3 29 -30 29 -20 0 -30 5 -30 15 0 10 -10 15 -30 15 -16 0 -30 4 -30 9 0 11 -78 31 -119 31 -20 0 -31 -5 -31 -14z"></path></g></g><g id="l4UCZung1noXa0PfFwFx9Ao" fill="rgb(236,186,163)" style="transform: none;"><g><path id="p4SUybcTy" d="M1360 2531 c0 -6 -7 -11 -15 -11 -10 0 -15 -10 -15 -30 l0 -30 40 26 c22 15 39 32 37 38 -5 14 -47 20 -47 7z"></path><path id="paRqe5hM7" d="M1495 2470 c3 -5 19 -19 35 -30 l30 -21 0 30 c0 29 -3 31 -36 31 -20 0 -33 -4 -29 -10z"></path><path id="pbQZbwVY9" d="M1250 2425 c0 -21 -5 -25 -30 -25 -25 0 -30 -4 -30 -25 0 -21 -5 -25 -30 -25 -27 0 -30 -3 -30 -30 0 -28 -3 -30 -35 -30 -33 0 -35 -2 -35 -31 0 -36 -15 -45 135 80 142 118 136 111 92 111 -33 0 -37 -3 -37 -25z"></path><path id="p1ErOcM3v2" d="M1275 2222 c-33 -11 -105 -55 -105 -64 0 -4 16 -8 35 -8 23 0 35 5 35 14 0 14 49 26 113 26 l37 0 0 -135 0 -135 -57 0 c-41 0 -68 -6 -91 -20 -29 -18 -33 -25 -30 -58 l3 -37 88 -5 88 -5 0 -460 c0 -253 0 -468 0 -478 -1 -17 -16 -18 -276 -15 -271 3 -276 3 -273 -17 3 -20 11 -20 351 -22 326 -1 352 -2 420 -23 103 -32 139 -52 191 -112 l46 -53 0 243 0 242 -125 0 c-120 0 -125 1 -140 24 -19 29 -11 72 15 86 10 6 71 10 135 10 l116 0 -3 284 -3 284 -35 49 c-34 47 -35 51 -38 156 l-4 109 -76 50 c-43 27 -88 54 -101 59 -29 11 -289 20 -316 11z m288 -343 c12 -6 28 -19 35 -30 12 -18 8 -19 -83 -19 l-95 0 0 30 c0 30 0 30 60 30 32 0 70 -5 83 -11z m-23 -199 c23 -23 28 -88 8 -108 -7 -7 -36 -12 -65 -12 l-53 0 0 70 0 70 45 0 c32 0 51 -6 65 -20z"></path><path id="pW7CTybv4" d="M1073 2097 c-42 -28 -41 -37 2 -37 32 0 35 2 35 30 0 17 -1 30 -2 29 -2 0 -18 -10 -35 -22z"></path><path id="p10WMJ1oyK" d="M627 1650 c-9 -11 -17 -25 -17 -30 0 -6 -4 -10 -10 -10 -5 0 -10 -16 -10 -35 0 -45 13 -44 40 3 12 21 34 47 51 57 38 26 37 35 -4 35 -20 0 -39 -8 -50 -20z"></path><path id="pQK2dwuVy" d="M825 1603 c4 -10 10 -26 12 -35 10 -33 33 -20 33 17 0 31 -3 35 -26 35 -21 0 -25 -3 -19 -17z"></path><path id="pNGFNXeTD" d="M580 1419 c0 -49 16 -69 55 -69 19 0 35 2 35 4 0 3 -13 18 -30 34 -16 17 -30 38 -30 46 0 9 -7 16 -15 16 -10 0 -15 -10 -15 -31z"></path><path id="pbz7k1LG0" d="M630 1266 c0 -13 28 -26 58 -26 6 0 12 9 12 20 0 16 -7 20 -35 20 -23 0 -35 -5 -35 -14z"></path><path id="p36h8Mr6i" d="M1200 1238 c1 -7 16 -20 35 -29 l35 -16 0 28 c0 26 -3 29 -35 29 -22 0 -35 -5 -35 -12z"></path><path id="pjvmmac0W" d="M910 1135 c0 -24 5 -35 15 -35 8 0 15 -7 15 -15 0 -10 11 -15 35 -15 43 0 47 21 5 37 -18 7 -32 21 -36 37 -10 39 -34 33 -34 -9z"></path><path id="pnpepJTcP" d="M1063 743 c20 -2 54 -2 75 0 20 2 3 4 -38 4 -41 0 -58 -2 -37 -4z"></path></g></g><g id="l2xc4HQ2M0meFrDXKGfahvE" fill="rgb(249,213,191)" style="transform: none;"><g><path id="pqBRPJbHL" d="M1448 2534 c-15 -15 -13 -19 30 -52 26 -19 53 -39 60 -45 9 -7 12 -2 12 22 0 26 -4 31 -25 31 -18 0 -25 5 -25 20 0 11 -6 20 -14 20 -8 0 -16 5 -18 10 -2 6 -10 3 -20 -6z"></path><path id="pJ8k5Yvdk" d="M1260 2435 c0 -21 -5 -25 -30 -25 -25 0 -30 -4 -30 -25 0 -21 -5 -25 -30 -25 -23 0 -30 -4 -30 -20 0 -14 -7 -20 -24 -20 -30 0 -48 -22 -44 -55 3 -24 9 -21 118 71 159 133 151 124 107 124 -33 0 -37 -3 -37 -25z"></path><path id="p1HnpWWnH1" d="M1625 2360 c3 -5 19 -19 35 -30 l30 -21 0 30 c0 29 -3 31 -36 31 -20 0 -33 -4 -29 -10z"></path><path id="pXPlpykfR" d="M1749 2260 c49 -49 71 -56 71 -24 0 18 -24 44 -39 44 -6 0 -11 7 -11 15 0 11 -11 15 -37 15 l-36 0 52 -50z"></path><path id="p6pBV3mgm" d="M1317 2222 c-10 -2 -17 -10 -17 -18 0 -11 15 -14 61 -14 51 0 60 3 57 16 -3 16 -57 24 -101 16z"></path><path id="pImlt2dSk" d="M1131 2135 c-34 -25 -61 -47 -61 -50 0 -3 16 -5 35 -5 24 0 35 5 35 15 0 8 9 15 20 15 11 0 20 5 20 10 0 6 7 10 15 10 9 0 15 9 15 25 0 14 -4 25 -9 25 -5 0 -36 -20 -70 -45z"></path><path id="pd3C6GvO9" d="M1226 1899 c-20 -16 -26 -29 -26 -60 0 -39 0 -39 40 -39 44 0 57 23 18 33 -18 5 -19 8 -9 21 7 9 28 21 47 28 47 17 44 38 -5 38 -24 0 -48 -8 -65 -21z"></path><path id="pmqcGRVhX" d="M1360 1906 c0 -7 10 -16 23 -20 34 -9 37 -8 37 14 0 16 -7 20 -30 20 -19 0 -30 -5 -30 -14z"></path><path id="p1A4b0aJ8R" d="M1390 1781 l0 -51 -44 0 c-28 0 -52 -7 -67 -19 -21 -17 -24 -28 -24 -86 0 -80 14 -95 87 -95 26 0 48 -4 48 -10 0 -15 30 -12 30 3 6 286 5 302 -12 305 -15 3 -18 -4 -18 -47z"></path><path id="ppvmgwkMo" d="M683 1689 c-26 -8 -33 -15 -33 -34 0 -20 -5 -25 -25 -25 -18 0 -25 -5 -25 -19 0 -11 -5 -21 -10 -23 -6 -2 -13 -40 -17 -86 -6 -79 -5 -82 16 -82 19 0 21 5 21 63 0 113 57 177 156 177 52 0 54 -1 54 -28 0 -15 4 -32 10 -38 6 -6 11 -158 12 -394 3 -357 4 -385 21 -388 16 -3 17 21 17 392 0 218 -4 396 -9 396 -5 0 -11 23 -15 50 l-7 50 -67 -1 c-37 0 -82 -5 -99 -10z"></path><path id="pW4pALwjV" d="M610 1376 c0 -36 15 -46 73 -46 20 0 27 5 27 20 0 16 -7 20 -30 20 -17 0 -39 9 -50 20 l-20 20 0 -34z"></path><path id="pS7QRzexl" d="M640 1266 c0 -13 28 -26 58 -26 6 0 12 9 12 20 0 16 -7 20 -35 20 -23 0 -35 -5 -35 -14z"></path><path id="pcWeXvVJO" d="M940 1235 c0 -8 -7 -15 -15 -15 -10 0 -15 -11 -15 -35 0 -42 24 -48 34 -9 4 16 18 30 36 37 42 16 38 37 -5 37 -24 0 -35 -5 -35 -15z"></path><path id="ps3km3hKy" d="M1390 1205 c0 -37 24 -50 32 -17 6 27 -2 52 -18 52 -9 0 -14 -11 -14 -35z"></path><path id="pHkx1F8Jq" d="M1248 1118 c-16 -16 -28 -31 -28 -34 0 -2 16 -4 35 -4 33 0 35 2 35 35 0 42 -6 42 -42 3z"></path><path id="puEDp5Q22" d="M1390 1100 c0 -27 4 -40 14 -40 16 0 26 32 19 60 -10 37 -33 23 -33 -20z"></path><path id="pGoRqur4x" d="M1390 910 c0 -89 2 -100 18 -100 15 0 18 11 20 70 4 85 -5 130 -24 130 -11 0 -14 -20 -14 -100z"></path></g></g><g id="lLvqHJmSHdUVn4NsLwVDNH" fill="rgb(200,225,233)" style="transform: none;"><g><path id="pNDWe52AJ" d="M1207 3355 c-13 -44 -69 -285 -83 -360 -9 -44 -31 -145 -50 -223 -19 -79 -34 -148 -34 -153 0 -5 8 -9 19 -9 14 0 21 13 31 60 7 33 16 62 19 64 4 3 33 -20 65 -50 32 -30 66 -54 77 -54 12 0 19 -7 19 -18 0 -10 15 -32 33 -50 25 -24 42 -32 67 -32 l35 1 -77 72 -78 73 0 100 c0 74 4 105 16 122 15 21 14 22 -15 22 -22 0 -30 -5 -33 -20 -3 -19 -5 -19 -36 9 -24 22 -31 37 -28 53 17 85 50 214 55 221 4 4 20 -47 36 -113 24 -98 32 -120 47 -120 10 0 18 6 18 13 0 8 -18 85 -39 173 -21 87 -43 177 -48 199 -7 31 -11 36 -16 20z"></path><path id="pzBkSb8DT" d="M1592 3198 c-61 -253 -60 -237 -18 -293 20 -26 33 -51 30 -57 -4 -5 -6 -46 -5 -91 l2 -80 -73 -69 -73 -69 40 3 c35 3 40 6 43 31 3 21 9 27 28 27 17 0 24 5 24 20 0 12 7 20 16 20 9 0 43 23 75 50 l58 51 10 -38 c6 -21 11 -43 11 -48 0 -14 -71 -86 -154 -155 -35 -30 -64 -59 -62 -65 1 -5 40 -40 87 -77 46 -37 104 -85 128 -107 42 -39 45 -40 72 -26 55 29 54 55 -16 362 -35 153 -66 295 -69 316 -9 48 -29 48 -84 1 l-42 -36 0 31 c0 24 -4 31 -20 31 -28 0 -26 39 8 174 l28 108 29 -131 c24 -107 33 -131 47 -131 10 0 18 5 18 11 0 6 -16 79 -36 163 -20 83 -38 164 -41 180 -12 75 -19 63 -61 -106z"></path><path id="pJ9iUmG7Y" d="M1990 3355 c0 -14 71 -115 80 -115 5 0 10 14 10 30 0 17 -4 30 -10 30 -5 0 -10 6 -10 14 0 21 -28 46 -51 46 -10 0 -19 -2 -19 -5z"></path><path id="peb4MxS2e" d="M2330 3346 c0 -9 6 -26 13 -37 10 -17 10 -23 0 -26 -7 -3 -13 -14 -13 -25 0 -29 41 -19 60 15 13 24 13 30 0 55 -18 30 -60 43 -60 18z"></path><path id="ptKmMR0m5" d="M986 2398 c-10 -38 -7 -48 14 -48 16 0 20 7 20 35 0 40 -24 49 -34 13z"></path></g></g><g id="l2LvhfsCS2CrRWqeKi1Ek3O" fill="rgb(254,223,201)" style="transform: none;"><g><path id="p2pzF2zfk" d="M1340 2500 c0 -28 -3 -30 -35 -30 -31 0 -35 -3 -35 -25 0 -21 -5 -25 -30 -25 -25 0 -30 -4 -30 -25 0 -21 -5 -25 -30 -25 -23 0 -30 -4 -30 -20 0 -15 -7 -20 -25 -20 -21 0 -25 -5 -25 -30 0 -28 -3 -30 -35 -30 -28 0 -35 -4 -35 -19 0 -33 20 -35 53 -3 44 41 284 240 308 255 28 18 23 27 -16 27 -32 0 -35 -2 -35 -30z"></path><path id="p3JYMH91i" d="M1158 2152 c-57 -38 -123 -80 -148 -94 -61 -35 -130 -104 -151 -153 -9 -22 -20 -64 -24 -92 l-7 -53 -58 0 c-76 0 -122 -21 -186 -84 -110 -111 -112 -265 -4 -376 43 -44 54 -50 89 -50 l41 0 0 58 c0 58 0 59 -29 59 -17 0 -37 5 -45 12 -40 34 -41 156 -2 213 33 48 67 69 127 75 l55 5 14 -48 c14 -51 17 -120 19 -551 l1 -263 285 0 285 0 0 379 0 378 -47 -4 c-63 -6 -87 12 -87 62 0 50 30 75 90 75 l44 0 0 65 0 65 -95 0 c-52 0 -95 4 -95 9 0 5 12 19 26 30 21 17 41 21 95 21 l69 0 0 165 0 165 -80 0 -79 0 -103 -68z m94 -949 c22 -20 24 -66 2 -87 -23 -24 -269 -23 -296 1 -22 20 -23 61 -1 85 14 16 33 18 146 18 107 0 134 -3 149 -17z"></path></g></g><g id="lfCrYMCT69BpCQnmXsi6KY" fill="rgb(254,255,255)" style="transform: none;"><g><path id="pPpWtO48j" d="M1593 3189 c-58 -243 -57 -231 -23 -275 22 -26 30 -48 30 -76 0 -46 2 -45 84 28 l57 51 -41 179 c-22 98 -46 199 -53 223 l-12 43 -42 -173z"></path><path id="pTjAzKCy2" d="M2002 3338 c8 -13 24 -40 37 -60 l23 -38 148 0 c163 0 180 5 180 59 0 56 -18 61 -219 61 l-183 0 14 -22z"></path><path id="p12IzGDGhT" d="M1207 3340 c-9 -24 -67 -268 -82 -349 l-15 -74 53 -49 c80 -75 87 -77 87 -26 0 34 6 48 31 74 l31 32 -50 204 c-27 111 -52 196 -55 188z"></path><path id="pxLUYVKG3" d="M1086 2809 c-23 -70 -116 -498 -112 -515 4 -13 22 -35 41 -49 l34 -27 38 35 c62 56 304 255 316 261 7 3 0 15 -18 31 -32 29 -103 95 -222 209 -49 46 -74 64 -77 55z"></path><path id="pobbVhB5r" d="M1600 2674 c-85 -80 -155 -149 -155 -153 0 -4 28 -31 62 -59 l62 -52 83 73 c46 39 98 89 117 110 l33 37 -22 95 c-12 52 -22 95 -23 95 -1 -1 -72 -66 -157 -146z"></path></g></g></svg>
