<svg xmlns="http://www.w3.org/2000/svg" width="232" height="315" viewBox="0 0 2320 3150"><g id="l4lcSKIcdxd18bOhQOQqnkR" fill="rgb(31,49,58)" style="transform: none;"><g><path id="pHCdEXmSw" d="M14 3126 c-6 -16 17 -178 72 -506 18 -113 41 -254 49 -315 9 -60 23 -154 30 -207 17 -114 39 -163 105 -229 62 -62 117 -79 262 -79 94 0 109 -2 115 -17 4 -10 26 -48 49 -85 24 -36 40 -69 37 -72 -4 -3 -34 -3 -68 0 -121 12 -234 -47 -288 -151 -52 -100 0 -241 78 -211 19 7 19 40 0 56 -29 24 -12 80 25 80 8 0 23 14 32 30 22 38 88 69 148 70 50 0 70 13 70 43 0 13 14 1 45 -39 l45 -58 -29 -30 c-38 -42 -81 -107 -81 -126 -1 -36 -18 -45 -80 -42 -54 3 -60 1 -60 -16 0 -11 -6 -25 -14 -31 -37 -31 -46 -97 -46 -337 0 -217 2 -238 24 -308 26 -84 104 -196 136 -196 10 0 22 -4 25 -10 10 -17 21 -11 33 15 22 47 15 97 -19 138 -29 35 -77 172 -65 184 10 10 77 -61 125 -133 40 -60 91 -175 91 -206 0 -4 -11 -8 -25 -8 -15 0 -41 -14 -62 -34 l-36 -33 21 -35 c29 -47 120 -131 168 -156 154 -79 366 -69 509 23 63 40 146 128 175 185 12 24 43 65 69 91 58 59 106 154 120 240 14 86 13 409 -2 480 -7 30 -20 67 -29 82 -13 19 -18 47 -18 102 0 68 -2 75 -20 75 -17 0 -20 -7 -20 -45 0 -40 -3 -47 -26 -55 -50 -19 -63 -13 -90 44 -14 30 -41 73 -61 95 l-35 42 26 39 c27 40 40 48 51 30 3 -5 25 -10 49 -10 72 0 142 -27 173 -65 16 -19 36 -35 45 -35 10 0 23 -10 29 -22 9 -17 8 -28 -6 -54 -33 -61 9 -87 61 -39 22 21 28 35 30 83 3 71 -18 124 -73 179 -62 62 -104 78 -211 78 -50 0 -92 4 -92 8 0 5 15 32 33 60 19 29 41 64 50 80 17 27 18 27 135 27 108 0 122 2 178 29 114 54 151 122 179 328 7 60 29 203 49 318 96 583 107 658 98 667 -5 5 -35 8 -68 6 l-58 -3 -13 -85 c-7 -47 -22 -143 -33 -215 -41 -257 -49 -313 -80 -535 -39 -283 -60 -331 -158 -364 -46 -16 -92 -21 -92 -10 0 3 9 19 21 35 15 21 19 41 17 76 -3 47 -4 48 -60 78 -32 17 -58 35 -58 40 0 6 14 28 30 49 46 61 41 92 -32 194 -34 48 -80 110 -103 137 -23 28 -66 84 -96 125 -31 41 -85 109 -120 150 -36 41 -82 98 -102 127 -83 115 -150 143 -205 85 -86 -90 -300 -355 -450 -560 -34 -47 -74 -98 -87 -114 -37 -43 -33 -89 11 -150 19 -28 34 -51 32 -52 -2 -1 -30 -14 -63 -28 l-60 -25 -3 -48 c-3 -37 2 -55 23 -86 l25 -39 -32 0 c-69 1 -154 60 -178 125 -6 16 -25 124 -41 240 -17 115 -52 343 -80 505 -27 162 -49 307 -49 322 0 27 -1 28 -60 28 -44 0 -62 -4 -66 -14z m1167 -562 c11 -38 42 -155 69 -260 27 -105 52 -197 55 -206 4 -10 -9 -27 -38 -51 l-43 -35 4 61 c5 71 -8 87 -71 87 -64 0 -77 -13 -77 -75 0 -47 3 -57 25 -71 16 -10 39 -15 65 -12 l40 4 -24 -25 c-27 -27 -17 -31 -122 52 l-61 48 44 162 c89 330 108 396 111 393 1 -2 12 -34 23 -72z m256 -99 c15 -22 58 -81 95 -131 38 -51 68 -96 68 -100 -1 -5 -14 -25 -30 -44 -25 -28 -30 -43 -30 -86 0 -44 4 -56 25 -73 14 -11 39 -23 55 -26 17 -4 30 -9 30 -12 0 -8 -94 -152 -100 -152 -3 -1 -34 108 -68 242 -56 221 -111 421 -127 472 -8 24 40 -29 82 -90z m-507 -7 c-42 -155 -95 -358 -131 -500 l-32 -128 -48 74 c-27 41 -49 78 -49 83 0 5 16 15 36 22 85 31 99 99 39 182 l-36 48 85 113 c146 193 157 208 161 208 2 0 -9 -46 -25 -102z m143 -650 c72 -56 99 -53 195 22 43 33 82 60 88 60 5 0 21 -46 35 -103 l25 -103 -36 -27 -37 -26 -7 -132 -7 -133 42 -40 c55 -53 85 -102 93 -148 l7 -38 -106 0 c-113 0 -171 -18 -197 -59 -11 -18 -12 -18 -30 4 -33 42 -77 55 -193 55 l-107 0 7 28 c13 55 48 113 91 151 l44 39 0 136 c0 75 -4 136 -8 136 -4 0 -23 12 -41 28 l-32 27 27 108 27 107 36 -27 c20 -15 58 -44 84 -65z m-334 -744 c-8 -10 -16 -52 -19 -103 l-5 -86 -27 27 c-52 51 -45 119 16 158 38 24 53 26 35 4z m871 0 c32 -20 60 -63 60 -94 0 -12 -17 -38 -37 -58 l-38 -37 -5 90 c-3 50 -9 96 -13 103 -11 16 -1 15 33 -4z m-588 -71 c13 -12 18 -29 17 -67 -1 -41 -3 -45 -8 -21 -6 29 -8 30 -66 30 l-60 0 -3 -32 c-3 -27 -7 -33 -28 -33 -22 0 -24 4 -24 47 0 68 26 93 98 93 38 0 61 -5 74 -17z m420 0 c13 -12 18 -30 18 -70 0 -50 -1 -53 -25 -53 -19 0 -25 5 -25 23 0 40 -13 48 -71 45 -47 -3 -54 -6 -60 -28 -6 -21 -7 -19 -8 13 -1 22 6 48 17 62 15 21 25 24 76 25 42 0 65 -5 78 -17z m-226 -251 c12 -6 0 -18 -50 -50 -35 -23 -91 -71 -123 -106 l-58 -64 -28 58 c-15 32 -42 79 -61 103 l-34 45 115 4 115 3 31 36 32 36 23 -29 c13 -15 30 -31 38 -36z m450 -99 c-4 -32 -16 -76 -27 -97 -26 -51 -86 -124 -107 -131 -10 -3 -28 -28 -42 -56 -30 -63 -125 -149 -206 -186 -73 -34 -156 -37 -228 -9 l-48 19 35 20 c38 21 47 40 47 99 0 69 33 118 133 200 48 39 50 39 20 7 -27 -28 -33 -43 -33 -78 0 -67 12 -81 72 -81 44 0 58 5 104 40 29 22 56 40 60 40 4 0 31 21 60 46 53 44 54 47 54 99 0 59 -10 72 -60 77 -30 3 -23 6 50 25 128 32 124 34 116 -34z m-316 -47 c0 -2 -17 -16 -37 -31 l-38 -26 35 30 c34 31 40 35 40 27z"></path><path id="p1FUKBZmCq" d="M300 3133 c0 -4 7 -60 15 -123 9 -63 27 -202 41 -309 13 -106 29 -202 35 -213 9 -16 19 -18 67 -16 l57 3 43 88 c41 84 95 152 136 174 18 10 20 26 24 207 l5 196 -62 0 -61 0 0 -151 0 -152 -37 -42 c-21 -24 -45 -54 -55 -66 -11 -16 -20 -21 -26 -14 -5 6 -17 89 -26 185 -25 250 -19 234 -94 238 -34 2 -62 -1 -62 -5z"></path><path id="psFcerd0R" d="M1599 2948 l3 -192 57 -56 c41 -39 70 -81 101 -142 l44 -88 57 0 c53 0 57 2 67 28 6 15 13 50 16 77 4 28 20 153 36 280 41 310 43 285 -30 285 -71 0 -61 26 -91 -235 -12 -104 -25 -194 -30 -199 -4 -4 -15 5 -25 20 -10 16 -32 45 -51 64 l-32 35 -3 155 -3 155 -60 3 -60 3 4 -193z"></path></g></g><g id="l6iPFX7T4Mj8HRr0QMgUt4" fill="rgb(60,51,46)" style="transform: none;"><g><path id="p6xVeFFuE" d="M714 1612 c-17 -2 -20 -8 -16 -33 6 -41 -13 -59 -63 -59 -53 0 -75 -8 -75 -26 0 -11 17 -14 68 -14 70 0 90 8 110 45 10 17 11 18 12 3 0 -10 7 -18 15 -18 8 0 15 -9 15 -20 0 -11 7 -23 15 -26 8 -4 15 -14 15 -24 0 -10 -7 -20 -15 -24 -8 -3 -15 -17 -15 -31 0 -18 -5 -25 -20 -25 -15 0 -20 -7 -20 -25 0 -14 -6 -25 -14 -25 -7 0 -17 -15 -23 -32 -10 -35 -11 -35 -90 -22 -42 6 -43 6 -43 -20 0 -22 4 -26 30 -26 16 0 33 -7 37 -15 8 -13 14 -13 51 1 33 14 44 24 51 50 11 39 41 85 89 136 31 33 33 39 24 66 -5 16 -34 60 -63 98 -40 51 -59 68 -75 66z"></path><path id="p14zLsjIQN" d="M1330 1575 c0 -38 3 -45 20 -45 16 0 20 7 20 33 0 18 5 38 12 45 9 9 5 12 -20 12 -31 0 -32 -1 -32 -45z"></path><path id="p3GnDgoEB" d="M1518 1532 c-32 -42 -58 -87 -58 -98 0 -12 18 -44 40 -70 22 -27 50 -71 64 -99 18 -38 31 -53 58 -62 30 -11 39 -10 73 7 29 15 41 17 46 8 5 -7 8 12 7 42 0 30 0 63 1 73 2 27 38 57 71 57 39 0 40 26 4 69 -29 35 -103 61 -170 61 -49 0 -68 18 -62 60 7 48 -13 35 -74 -48z"></path><path id="pHJl4PqZY" d="M498 1473 c-14 -16 -48 -77 -48 -85 0 -2 15 -2 34 0 28 3 35 9 40 34 13 66 4 85 -26 51z"></path><path id="pFRtsR2TZ" d="M1380 1341 c0 -24 4 -31 20 -31 15 0 20 -7 20 -25 0 -21 5 -25 31 -25 l30 0 -20 28 c-31 41 -44 56 -63 71 -16 12 -18 11 -18 -18z"></path><path id="p161mhpJbs" d="M1460 1195 c0 -28 4 -35 20 -35 21 0 24 10 14 48 -10 36 -34 27 -34 -13z"></path><path id="pKuBADzdz" d="M1460 1113 c1 -5 19 -20 41 -36 44 -30 59 -60 59 -118 0 -33 3 -39 21 -39 20 0 21 4 15 53 -3 28 -6 60 -6 70 0 12 -8 17 -30 17 -27 0 -30 3 -30 30 0 28 -3 30 -35 30 -19 0 -35 -3 -35 -7z"></path><path id="pqKyjiG5P" d="M1450 1007 c0 -30 4 -37 20 -37 13 0 20 7 20 18 0 11 -9 27 -20 37 -20 18 -20 17 -20 -18z"></path><path id="pZhT726uj" d="M1650 903 l1 -38 24 28 c32 36 31 47 0 47 -22 0 -25 -4 -25 -37z"></path><path id="pURVWUvTx" d="M1240 877 c0 -17 20 -37 37 -37 7 0 13 11 13 25 0 20 -5 25 -25 25 -14 0 -25 -6 -25 -13z"></path><path id="p1Cu74SJQp" d="M1190 786 c0 -34 1 -36 35 -36 43 0 43 7 -1 43 l-34 29 0 -36z"></path><path id="phXLk6pLi" d="M610 745 c0 -20 5 -25 27 -25 l26 0 -23 25 c-13 14 -25 25 -27 25 -2 0 -3 -11 -3 -25z"></path><path id="pgebYtXYN" d="M1220 710 c0 -32 8 -32 53 3 25 21 21 27 -18 27 -32 0 -35 -2 -35 -30z"></path><path id="p9LsstZhw" d="M1535 711 c-60 -16 -137 -42 -170 -59 -68 -34 -202 -139 -255 -198 l-34 -39 27 -3 c34 -4 97 51 97 85 0 16 6 23 20 23 13 0 18 -5 14 -15 -4 -8 -10 -15 -15 -15 -5 0 -9 -27 -9 -60 0 -47 3 -60 15 -60 8 0 15 -7 15 -15 0 -11 11 -15 39 -15 52 0 71 8 71 31 0 12 7 19 20 19 16 0 20 -7 20 -32 0 -66 -33 -158 -57 -158 -7 0 -13 -4 -13 -10 0 -5 -9 -10 -20 -10 -15 0 -20 -7 -20 -25 0 -30 0 -30 53 -4 69 35 160 121 187 178 14 28 32 53 42 56 21 7 81 80 108 132 14 28 23 70 28 132 l8 91 -31 -1 c-16 0 -79 -13 -140 -28z m-17 -103 c25 -25 13 -56 -42 -102 -29 -25 -56 -46 -60 -46 -4 0 -31 -18 -61 -41 -62 -47 -94 -49 -109 -7 -8 22 -6 32 10 49 22 25 171 141 194 151 24 11 55 9 68 -4z m-170 -15 c-10 -2 -18 -11 -18 -19 0 -8 -4 -14 -10 -14 -5 0 -10 9 -10 20 0 15 6 20 28 19 16 -1 20 -3 10 -6z m-58 -53 c0 -11 -7 -20 -15 -20 -8 0 -15 9 -15 20 0 11 7 20 15 20 8 0 15 -9 15 -20z"></path><path id="pU4P3oW5U" d="M610 662 c0 -50 39 -166 65 -191 l25 -26 0 38 c0 20 -3 37 -8 37 -8 0 -31 81 -39 138 -4 23 -10 32 -24 32 -14 0 -19 -7 -19 -28z"></path><path id="pir0ECQrD" d="M700 650 c0 -27 3 -30 30 -30 36 0 38 9 7 38 -31 29 -37 28 -37 -8z"></path><path id="psqstG8OO" d="M770 565 c0 -19 4 -35 9 -35 5 0 12 -11 15 -25 4 -14 12 -25 20 -25 9 0 15 -17 19 -47 3 -26 10 -49 16 -51 20 -7 12 -42 -9 -42 -11 0 -20 -4 -20 -10 0 -5 -8 -10 -18 -10 -10 0 -30 -12 -44 -27 -24 -25 -25 -30 -13 -47 14 -18 16 -17 55 18 22 20 50 36 63 37 84 3 152 39 73 39 -34 0 -35 1 -60 77 -26 76 -83 183 -98 183 -4 0 -8 -16 -8 -35z"></path><path id="pqAvSE1oF" d="M700 390 c-7 -16 -16 -30 -21 -30 -5 0 0 -9 11 -20 24 -24 30 -25 30 -5 0 8 5 15 10 15 6 0 10 16 10 35 0 44 -23 47 -40 5z"></path><path id="ptYM6dof2" d="M1066 384 c-12 -32 -6 -54 14 -54 16 0 20 7 20 35 0 37 -22 49 -34 19z"></path><path id="p12Itp9ujo" d="M1054 275 c-7 -28 -74 -65 -117 -65 -35 0 -34 -11 3 -33 17 -10 30 -13 30 -8 0 6 11 11 25 11 14 0 25 5 25 10 0 6 9 10 20 10 11 0 20 7 20 15 0 8 7 15 15 15 10 0 15 11 15 35 0 42 -26 49 -36 10z"></path><path id="pwbfJ8fTE" d="M1000 155 c0 -9 20 -20 52 -30 69 -20 98 -20 98 3 0 13 -14 21 -53 30 -70 16 -97 15 -97 -3z"></path><path id="pwvtU0jCj" d="M1180 130 c0 -20 22 -26 54 -14 30 12 18 34 -19 34 -28 0 -35 -4 -35 -20z"></path></g></g><g id="l2XvMKupR2m2Wz3CqOjZdII" fill="rgb(47,64,75)" style="transform: none;"><g><path id="pXARjoKge" d="M106 3098 c3 -24 28 -176 54 -338 27 -162 62 -390 79 -505 33 -231 40 -256 79 -299 45 -47 97 -66 190 -66 45 0 82 2 82 5 0 3 -16 26 -36 52 -44 58 -58 87 -51 105 2 8 37 27 76 43 40 16 74 32 76 35 2 4 -18 39 -46 79 -49 68 -50 73 -35 94 27 37 157 209 240 318 44 57 116 147 161 199 44 52 98 116 118 142 21 25 44 49 52 52 19 7 75 -42 122 -107 20 -29 66 -86 102 -127 35 -41 89 -109 120 -150 30 -41 73 -97 96 -125 23 -27 70 -90 104 -138 l63 -88 -50 -73 -50 -74 76 -38 c45 -23 78 -46 80 -56 2 -10 -15 -44 -37 -76 -23 -32 -41 -61 -41 -65 0 -13 147 -7 192 9 97 33 119 82 157 359 37 263 59 412 71 480 9 47 60 380 60 390 0 3 -51 5 -114 5 l-113 0 -12 -87 c-6 -49 -23 -180 -37 -293 -29 -239 -35 -260 -73 -260 -24 0 -32 10 -71 88 -31 62 -60 103 -101 143 l-58 56 -1 177 -2 176 -469 -2 -468 -3 -4 -178 c-3 -165 -4 -180 -22 -190 -42 -22 -95 -90 -137 -174 -37 -75 -47 -88 -70 -91 -18 -2 -30 3 -37 16 -9 17 -38 215 -72 497 -16 138 -2 125 -134 125 l-115 0 6 -42z"></path><path id="pbaSG9h5O" d="M1137 2708 c-24 -82 -71 -254 -127 -462 -46 -170 -50 -190 -35 -199 9 -5 40 -28 68 -51 29 -23 66 -52 83 -64 l32 -22 31 23 c87 62 160 123 161 134 0 6 -15 67 -34 135 -18 67 -59 218 -91 333 -31 116 -60 214 -65 218 -4 5 -15 -15 -23 -45z m72 -268 c56 -209 93 -342 98 -357 3 -7 -2 -13 -10 -13 -9 0 -20 -6 -24 -13 -4 -8 -15 -16 -23 -19 -12 -4 -14 3 -12 42 5 62 -13 80 -78 80 -76 0 -80 -3 -80 -74 0 -35 5 -67 12 -74 9 -9 8 -12 -5 -12 -10 0 -17 8 -17 20 0 11 -8 24 -17 27 -46 18 -47 27 -13 151 18 64 45 167 60 227 50 190 52 198 61 184 4 -8 26 -84 48 -169z m-28 -320 c23 -13 25 -53 3 -74 -19 -20 -24 -20 -52 0 -26 18 -29 59 -4 73 22 13 29 13 53 1z m-1 -135 c-7 -8 -20 -15 -30 -15 -10 0 -20 7 -24 15 -4 12 3 15 31 15 30 0 34 -2 23 -15z"></path><path id="pnbUZIJmv" d="M954 2634 c-49 -63 -96 -125 -104 -137 -8 -12 -54 -75 -103 -139 -58 -76 -86 -121 -81 -130 4 -7 25 -36 47 -65 50 -68 45 -85 -39 -125 -35 -17 -64 -32 -64 -35 0 -18 162 -255 170 -247 5 5 25 74 45 154 52 207 130 500 181 679 24 85 43 156 41 158 -3 2 -44 -49 -93 -113z m-62 -301 c-32 -120 -74 -280 -92 -355 l-33 -137 -44 67 c-25 37 -47 70 -49 74 -3 4 13 15 35 24 23 9 41 22 41 30 0 8 7 14 15 14 11 0 15 13 15 54 0 46 -4 58 -31 87 -37 39 -34 60 16 113 19 21 35 43 35 51 0 7 7 15 15 19 8 3 15 12 15 20 0 7 7 16 15 20 8 3 15 10 15 16 0 6 9 20 20 32 11 12 20 29 20 39 0 9 9 19 20 22 12 3 20 14 21 29 0 12 3 18 5 11 3 -6 -21 -110 -54 -230z"></path><path id="pCbn4EqGT" d="M1270 2734 c0 -12 17 -81 39 -155 73 -253 102 -360 160 -590 32 -126 62 -233 66 -237 3 -4 10 0 15 8 5 8 43 66 84 129 42 62 73 117 71 121 -3 5 -26 15 -52 24 -94 32 -104 65 -43 141 22 28 40 55 40 60 0 11 -86 130 -259 360 -50 66 -97 129 -106 140 -14 20 -14 20 -15 -1z m120 -210 c0 -7 8 -19 18 -26 9 -7 23 -25 31 -40 8 -16 18 -28 23 -28 4 0 8 -7 8 -15 0 -7 6 -18 13 -22 6 -4 19 -21 27 -37 8 -16 23 -31 33 -34 9 -2 17 -13 17 -23 0 -10 6 -22 13 -26 18 -11 28 -41 17 -48 -6 -4 -10 -15 -10 -26 0 -10 -7 -19 -15 -19 -20 0 -35 -32 -35 -75 0 -52 15 -75 50 -75 17 0 30 -5 30 -11 0 -7 7 -17 16 -23 13 -10 9 -20 -30 -79 -25 -37 -47 -64 -49 -59 -3 4 -13 41 -22 82 -20 82 -99 383 -138 522 -19 66 -21 85 -11 81 8 -3 14 -11 14 -19z"></path><path id="pJ1JdRlVa" d="M910 1878 c-12 -46 -30 -113 -40 -150 l-18 -66 44 -32 44 -31 0 31 c0 24 -5 33 -20 37 -12 3 -20 11 -18 17 2 6 14 55 28 109 15 60 29 97 37 97 7 0 13 -4 13 -10 0 -5 8 -10 19 -10 10 0 21 -9 24 -20 3 -11 13 -23 24 -27 10 -3 22 -12 26 -20 4 -7 15 -13 22 -13 8 0 15 -5 15 -11 0 -17 102 -3 116 16 6 8 15 15 21 15 5 0 26 15 46 34 55 50 65 51 76 8 48 -185 48 -178 21 -185 -15 -4 -20 -14 -20 -37 l0 -31 46 33 c35 25 44 37 40 53 -4 11 -20 74 -37 140 -17 66 -34 124 -38 128 -4 4 -56 -28 -115 -73 -64 -48 -112 -77 -119 -73 -7 4 -55 40 -108 80 -53 40 -99 73 -102 73 -2 0 -15 -37 -27 -82z"></path><path id="pBQXnYX04" d="M703 1570 c0 -32 4 -40 19 -40 14 0 18 8 18 40 0 32 -4 40 -18 40 -15 0 -19 -8 -19 -40z"></path><path id="pIDMAPEcS" d="M1330 1500 c0 -70 3 -90 14 -90 17 0 26 31 26 90 0 59 -9 90 -26 90 -11 0 -14 -20 -14 -90z"></path><path id="pB9WmxQqQ" d="M760 1538 c0 -31 4 -38 20 -38 15 0 20 -7 20 -25 0 -14 5 -25 10 -25 6 0 10 -13 10 -30 0 -34 5 -37 27 -15 13 13 13 20 2 47 -7 18 -19 39 -27 48 -7 8 -24 29 -38 45 l-24 30 0 -37z"></path><path id="p2OXWsIjJ" d="M549 1503 c-18 -7 -40 -22 -49 -32 -22 -25 -51 -83 -45 -89 3 -3 5 0 5 6 0 7 7 12 15 12 8 0 15 5 15 10 0 6 5 10 11 10 7 0 22 11 34 24 12 13 36 27 53 31 18 3 32 12 32 20 0 20 -34 24 -71 8z"></path><path id="pIB8WqOgE" d="M750 1355 c0 -8 -4 -15 -10 -15 -5 0 -10 -16 -10 -35 0 -24 -5 -35 -15 -35 -8 0 -15 -6 -15 -14 0 -16 -43 -30 -48 -16 -5 13 -82 13 -82 0 0 -5 8 -10 18 -10 15 0 15 -2 2 -11 -12 -8 -9 -10 13 -6 18 3 30 0 34 -9 6 -16 39 -19 48 -4 4 6 10 8 15 5 11 -7 33 22 37 48 2 12 10 28 18 37 8 9 15 22 15 28 0 7 3 12 8 12 4 0 13 9 20 20 11 18 10 20 -18 20 -20 0 -30 -5 -30 -15z"></path><path id="phRZrnDHw" d="M841 1268 c-11 -24 -25 -67 -31 -95 -7 -32 -17 -53 -25 -53 -8 0 -16 -10 -18 -22 l-4 -23 -2 23 c-1 24 -20 28 -52 12 -27 -15 -24 -30 6 -30 22 0 24 -3 15 -19 -14 -28 -13 -81 3 -81 6 0 21 19 31 41 15 34 29 46 77 68 64 29 77 51 28 51 -33 0 -33 4 -3 79 16 38 19 91 5 91 -5 0 -18 -19 -30 -42z"></path><path id="pFMVmrrqv" d="M1440 1273 c0 -44 9 -63 31 -63 27 0 24 33 -6 67 l-24 28 -1 -32z"></path><path id="pGoyTNdql" d="M1472 1146 c4 -35 13 -51 45 -79 43 -39 42 -37 43 -149 l0 -78 27 0 c27 1 63 20 63 34 0 3 -11 6 -24 6 -23 0 -24 3 -28 82 -2 53 -8 83 -16 86 -23 7 -13 32 13 32 15 0 25 6 25 15 0 13 -21 19 -90 28 -8 1 -18 17 -24 35 -5 17 -16 32 -24 32 -11 0 -14 -10 -10 -44z"></path><path id="p1GWaEgsWT" d="M1000 1126 c0 -8 12 -17 27 -21 38 -9 85 -44 77 -57 -4 -7 -2 -8 4 -4 13 8 20 -17 24 -79 2 -29 8 -41 21 -43 13 -3 17 4 17 32 0 19 4 46 10 60 7 21 6 26 -5 26 -8 0 -15 7 -15 15 0 8 -4 15 -10 15 -5 0 -10 7 -10 15 0 8 -7 15 -15 15 -8 0 -15 5 -15 10 0 6 -9 10 -20 10 -11 0 -20 5 -20 10 0 6 -16 10 -35 10 -23 0 -35 -5 -35 -14z"></path><path id="pRXJDM5nw" d="M1233 1133 c-7 -2 -13 -16 -13 -30 0 -13 3 -23 8 -21 4 2 24 10 45 18 46 18 49 40 5 39 -18 0 -39 -3 -45 -6z"></path><path id="p35vES0vN" d="M1630 1070 c0 -20 5 -30 15 -30 9 0 15 -9 15 -25 0 -18 5 -25 20 -25 12 0 20 7 20 16 0 22 -29 68 -51 82 -17 11 -19 9 -19 -18z"></path><path id="pNKGTlnad" d="M630 1041 c-16 -31 -12 -51 10 -51 16 0 20 7 20 35 0 39 -14 46 -30 16z"></path><path id="pxs80foZ6" d="M842 1017 c-28 -29 -29 -57 -2 -57 13 0 20 7 20 20 0 13 7 20 20 20 13 0 20 7 20 20 0 27 -31 26 -58 -3z"></path><path id="p4A2jHpXM" d="M1000 1020 c0 -16 7 -20 37 -20 35 0 36 0 18 20 -10 11 -26 20 -37 20 -11 0 -18 -7 -18 -20z"></path><path id="p18NYE68zA" d="M1258 1015 c-24 -32 -23 -55 2 -55 13 0 20 7 20 20 0 11 7 20 15 20 8 0 15 9 15 20 0 28 -31 25 -52 -5z"></path><path id="piV4Wt1cb" d="M1420 1020 c0 -13 7 -20 20 -20 18 0 20 -7 20 -75 0 -60 3 -75 15 -75 8 0 15 8 16 18 4 82 0 124 -15 146 -20 32 -56 35 -56 6z"></path><path id="p3aGLjloJ" d="M620 945 c0 -46 43 -90 108 -109 18 -6 22 -4 22 13 0 16 -6 21 -25 21 -16 0 -25 6 -25 15 0 8 -6 15 -14 15 -7 0 -16 14 -19 30 -5 21 -12 30 -27 30 -11 0 -20 -7 -20 -15z"></path><path id="p13Uu2YKra" d="M1660 925 c0 -39 6 -43 26 -17 20 26 17 52 -6 52 -16 0 -20 -7 -20 -35z"></path><path id="pupbsDbHd" d="M1340 920 c0 -5 6 -10 14 -10 15 0 26 -21 26 -51 0 -12 7 -19 20 -19 21 0 26 23 14 68 -5 17 -14 22 -40 22 -19 0 -34 -4 -34 -10z"></path><path id="pAmi223Op" d="M983 909 c9 -5 17 -18 17 -29 0 -40 10 -49 41 -38 31 11 42 48 14 48 -8 0 -15 7 -15 15 0 11 -11 15 -37 15 -31 -1 -35 -3 -20 -11z"></path><path id="pQ3wYPsbc" d="M890 875 c0 -28 4 -35 19 -35 14 0 20 9 23 35 4 31 1 35 -19 35 -20 0 -23 -5 -23 -35z"></path><path id="puUXkhfDd" d="M1240 884 c0 -20 24 -44 44 -44 20 0 21 27 2 46 -19 19 -46 18 -46 -2z"></path><path id="p7jSvnJ9r" d="M1160 815 c0 -14 5 -25 10 -25 6 0 10 -7 10 -15 0 -10 10 -15 30 -15 20 0 30 -5 30 -15 0 -8 -7 -15 -15 -15 -8 0 -15 -4 -15 -10 0 -5 -7 -10 -15 -10 -8 0 -15 -7 -15 -15 0 -9 -10 -15 -26 -15 -17 0 -28 -6 -31 -20 -3 -11 -13 -20 -22 -20 -24 0 -61 -42 -61 -68 0 -15 -6 -22 -19 -22 -11 0 -23 -5 -27 -11 -5 -8 -9 -8 -14 1 -4 6 -17 10 -28 8 l-21 -3 21 -47 c11 -27 24 -48 28 -48 5 0 24 22 44 48 43 60 118 131 177 167 24 16 49 34 56 41 7 7 26 18 43 26 33 14 39 28 13 28 -45 0 -89 21 -106 50 -22 37 -47 40 -47 5z"></path><path id="pTOCiMU6m" d="M1038 768 c-52 -14 -50 -38 2 -38 36 0 40 3 40 25 0 14 -1 25 -2 24 -2 -1 -20 -6 -40 -11z"></path><path id="pRIkVrk3V" d="M610 750 c0 -13 7 -20 20 -20 15 0 20 -7 20 -26 0 -27 66 -104 89 -104 6 0 11 -9 11 -20 0 -15 7 -20 25 -20 14 0 25 4 25 8 0 21 -70 98 -158 175 -30 25 -32 26 -32 7z"></path><path id="pY9bcYWbt" d="M833 698 c15 -18 41 -57 59 -85 18 -29 36 -53 40 -53 14 0 8 68 -7 84 -8 8 -15 19 -15 25 0 6 -6 11 -14 11 -8 0 -16 10 -18 23 -2 17 -11 23 -37 25 l-35 4 27 -34z"></path><path id="psBZL43Mw" d="M1398 666 c-23 -17 -23 -26 2 -26 14 0 20 -7 20 -22 1 -18 2 -20 9 -8 5 8 11 27 15 43 5 22 3 27 -11 27 -10 0 -26 -7 -35 -14z"></path><path id="p15zqrkfZO" d="M619 643 c-1 -10 0 -22 1 -28 1 -5 4 -17 5 -25 2 -8 4 -16 5 -17 2 -2 4 -7 5 -13 1 -5 3 -11 5 -12 1 -2 3 -14 4 -26 2 -13 7 -27 12 -30 36 -25 68 -112 42 -112 -11 0 -10 -38 1 -45 5 -3 17 2 26 11 12 12 15 31 13 73 -3 49 -6 56 -25 59 -13 2 -23 10 -23 18 0 34 -46 164 -57 164 -7 0 -14 -8 -14 -17z"></path><path id="pDdMv12UC" d="M1317 625 c-15 -8 -33 -20 -41 -27 -7 -7 -28 -24 -46 -38 -46 -34 -160 -151 -161 -164 0 -6 -2 -21 -5 -33 -7 -38 33 -30 41 7 4 17 11 30 16 30 5 0 9 7 9 15 0 8 7 15 15 15 9 0 15 9 15 24 0 19 6 25 28 28 19 2 28 9 30 26 3 16 10 22 28 22 17 0 24 5 24 20 0 15 7 20 25 20 14 0 25 -4 25 -10 0 -5 -9 -10 -20 -10 -16 0 -20 -7 -20 -31 0 -28 2 -30 17 -18 10 8 22 17 28 22 5 4 24 19 40 32 l30 25 -40 1 c-22 1 -32 3 -22 6 10 3 17 14 17 29 0 28 2 28 -33 9z"></path><path id="p1ALPaPvFB" d="M810 501 c0 -42 10 -61 31 -61 24 0 24 23 2 61 -22 37 -33 37 -33 0z"></path><path id="p1DjOEkpw4" d="M1385 440 c-18 -20 -17 -20 8 -20 20 0 27 5 27 20 0 11 -4 20 -8 20 -5 0 -17 -9 -27 -20z"></path><path id="pSssXroxP" d="M852 380 c3 -36 1 -40 -24 -45 -21 -5 -28 -12 -28 -31 0 -14 3 -23 8 -21 24 13 50 20 69 18 12 -1 34 5 50 13 l28 15 -32 7 c-18 3 -31 9 -29 13 7 11 -22 71 -35 71 -7 0 -10 -14 -7 -40z"></path><path id="pu2FYxDpt" d="M1320 390 l-35 -30 38 0 c35 0 37 2 37 30 0 17 -1 30 -2 30 -2 0 -19 -14 -38 -30z"></path><path id="paTU8gw9B" d="M1059 295 c-3 -28 -4 -31 -19 -46 -13 -13 -40 -28 -62 -34 -5 -2 -22 -3 -40 -4 -32 -1 -32 -1 -11 -20 19 -18 89 -58 106 -60 4 -1 8 -1 10 -2 12 -4 47 -11 70 -14 22 -4 27 -1 27 15 0 13 -7 20 -20 20 -11 0 -38 7 -60 16 -34 14 -37 18 -25 30 7 8 18 14 24 14 6 0 11 7 11 15 0 8 5 15 10 15 6 0 10 16 10 35 0 24 -5 35 -15 35 -8 0 -16 -7 -16 -15z"></path><path id="p4PUkhQ3y" d="M1340 186 c0 -18 4 -23 18 -19 10 2 23 13 30 24 11 17 9 19 -18 19 -25 0 -30 -4 -30 -24z"></path><path id="pDZzea2gE" d="M1228 157 c-26 -7 -38 -16 -38 -29 0 -15 6 -17 38 -12 44 7 102 33 102 45 0 12 -55 9 -102 -4z"></path></g></g><g id="l5gRTeOqaD3eCiDX7IsMgSi" fill="rgb(88,70,63)" style="transform: none;"><g><path id="pjEDqTTM4" d="M1337 1633 c-4 -3 -7 -21 -7 -40 0 -23 5 -33 15 -33 8 0 15 5 15 12 0 7 12 25 27 40 l27 28 -35 0 c-20 0 -39 -3 -42 -7z"></path><path id="ptnsiHW3K" d="M706 1583 c9 -48 -14 -66 -95 -74 -77 -7 -108 -25 -137 -81 -14 -27 -13 -27 21 -34 51 -9 75 -45 75 -110 0 -50 1 -53 30 -59 16 -4 34 -13 38 -22 14 -23 81 4 93 37 18 48 43 88 81 131 21 23 38 52 38 64 0 29 -110 175 -132 175 -14 0 -16 -6 -12 -27z"></path><path id="pqm5FcfxY" d="M1330 1385 c0 -34 1 -35 37 -35 l36 0 -21 23 c-12 13 -22 29 -22 35 0 7 -7 12 -15 12 -10 0 -15 -11 -15 -35z"></path><path id="pcPvTm4r1" d="M908 1350 c-50 -47 -84 -112 -96 -183 -7 -41 -9 -42 -55 -49 -81 -11 -137 -62 -137 -124 0 -29 36 -12 53 25 14 32 25 41 68 54 28 10 55 15 60 12 11 -7 69 23 69 35 0 6 -6 10 -14 10 -11 0 -13 9 -9 38 3 20 10 39 15 40 4 2 8 16 8 32 0 19 6 29 20 33 12 3 20 14 20 26 0 14 6 21 20 21 23 0 33 18 28 52 -3 22 -5 21 -50 -22z"></path><path id="pPcptbOJ" d="M1410 1306 c0 -29 4 -36 20 -36 16 0 20 -7 20 -33 0 -17 4 -46 9 -62 l8 -30 -115 0 c-83 0 -116 -3 -119 -12 -3 -7 -11 -13 -19 -13 -8 0 -14 -4 -14 -10 0 -5 -7 -10 -15 -10 -8 0 -15 -7 -15 -15 0 -21 -13 -19 -30 5 -8 11 -18 20 -23 20 -5 0 -15 7 -23 15 -19 19 -84 20 -84 2 0 -7 15 -18 34 -25 46 -17 83 -56 90 -97 7 -35 36 -51 36 -20 0 30 30 74 67 100 33 22 48 25 122 25 143 0 203 -44 206 -150 3 -116 4 -120 23 -120 29 0 80 37 98 71 24 48 15 122 -22 160 -28 30 -77 49 -126 49 -24 0 -28 5 -39 58 -12 59 -46 129 -73 152 -14 11 -16 8 -16 -24z m238 -251 c2 -2 6 -37 9 -79 l6 -76 -26 0 c-14 0 -28 -6 -30 -12 -3 -7 -6 22 -6 65 -1 44 -5 77 -11 77 -5 0 -10 9 -10 20 0 17 5 19 33 13 17 -3 33 -7 35 -8z"></path><path id="p13w6S1PxT" d="M848 1018 c-35 -34 -35 -48 -3 -48 28 0 38 16 33 52 l-3 23 -27 -27z"></path><path id="pHyTO0AwF" d="M1261 1014 c-27 -34 -27 -64 -1 -64 15 0 20 7 20 25 0 18 5 25 20 25 13 0 20 7 20 20 0 29 -34 25 -59 -6z"></path><path id="ph9qYHnUR" d="M1410 1024 c0 -22 29 -43 58 -44 27 0 28 14 2 40 -24 24 -60 27 -60 4z"></path><path id="pznrS7mL" d="M1030 1000 c0 -23 4 -30 20 -30 23 0 27 29 8 48 -19 19 -28 14 -28 -18z"></path><path id="p1BWbqlUYU" d="M620 956 c0 -50 59 -116 104 -116 24 0 20 37 -5 45 -30 10 -59 42 -59 65 0 13 -7 20 -20 20 -11 0 -20 -6 -20 -14z"></path><path id="pEnSC8EBC" d="M906 934 c-9 -9 -16 -32 -16 -55 0 -33 3 -39 21 -39 15 0 19 4 15 16 -11 29 13 56 45 52 25 -4 29 -1 29 19 0 20 -5 23 -39 23 -23 0 -46 -7 -55 -16z"></path><path id="pq4NfbFqs" d="M1293 943 c-7 -2 -13 -11 -13 -19 0 -8 -9 -14 -20 -14 -26 0 -27 -31 -2 -53 30 -27 50 -21 54 16 3 28 7 32 33 32 24 0 31 -5 39 -32 13 -47 36 -43 36 7 0 33 -3 40 -20 40 -11 0 -20 7 -20 15 0 11 -10 15 -37 14 -21 0 -44 -3 -50 -6z"></path><path id="pFEj34LzY" d="M1010 860 c0 -23 29 -27 48 -8 19 19 14 28 -18 28 -23 0 -30 -4 -30 -20z"></path><path id="pgd2n6x7q" d="M1088 798 c-21 -22 -38 -42 -38 -44 0 -10 67 -3 78 8 13 13 17 79 5 77 -5 -1 -25 -20 -45 -41z"></path><path id="p14Opnp6na" d="M1170 805 c0 -24 5 -35 15 -35 8 0 15 -7 15 -15 0 -8 8 -15 18 -16 13 0 12 -2 -5 -9 -13 -5 -23 -14 -23 -19 0 -5 -11 -12 -25 -15 -16 -4 -25 -13 -25 -26 0 -15 -7 -20 -25 -20 -21 0 -25 -5 -25 -30 0 -27 -3 -30 -30 -30 -27 0 -30 -3 -30 -30 0 -23 -4 -30 -20 -30 -14 0 -28 16 -46 53 -15 28 -30 54 -35 55 -5 2 -9 10 -9 18 0 8 -7 14 -15 14 -8 0 -15 9 -15 20 0 13 -7 20 -20 20 -15 0 -20 7 -20 25 0 22 -4 25 -36 25 l-36 0 52 -57 c31 -35 70 -97 98 -155 26 -53 49 -97 52 -97 3 -1 16 15 29 34 45 67 127 141 224 205 79 52 94 66 75 68 -53 7 -89 25 -105 53 -23 38 -33 37 -33 -6z"></path><path id="piUgKhSFC" d="M613 691 c8 -93 34 -177 69 -223 29 -38 36 -76 17 -95 -15 -15 3 -67 35 -108 l24 -30 29 26 c38 36 66 49 102 49 16 0 38 3 48 7 15 6 13 8 -10 13 -26 4 -31 13 -51 76 -13 38 -36 95 -52 124 -29 55 -161 202 -198 222 -18 10 -19 8 -13 -61z"></path><path id="pZkP3kzdd" d="M1365 649 c-74 -38 -161 -107 -237 -186 -57 -61 -61 -69 -70 -177 -4 -39 -46 -69 -106 -76 l-47 -5 45 -27 c74 -44 130 -61 210 -62 82 -1 151 19 206 60 38 28 57 104 52 213 l-3 73 -59 -46 c-33 -25 -65 -46 -71 -46 -19 0 -45 34 -45 59 0 27 15 43 110 116 80 61 84 65 94 108 8 35 -3 35 -79 -4z"></path></g></g><g id="lh6yro9vZJ5CKX5MQ3Sia4" fill="rgb(192,94,80)" style="transform: none;"><g><path id="pe0UAou6E" d="M1330 1605 c0 -24 5 -35 15 -35 8 0 15 7 15 15 0 8 9 19 20 25 31 16 24 30 -15 30 -33 0 -35 -2 -35 -35z"></path><path id="p17LJ5OxMy" d="M1103 1560 c-84 -12 -101 -19 -128 -48 -20 -21 -25 -37 -25 -77 0 -28 -5 -56 -12 -63 -24 -24 39 -12 108 20 45 21 83 32 110 32 41 -1 184 -59 184 -75 0 -5 14 -9 30 -9 27 0 30 -3 30 -30 0 -19 5 -30 14 -30 7 0 16 -13 20 -30 7 -35 46 -44 46 -11 0 22 -70 115 -100 134 -17 10 -20 23 -20 98 l0 86 -37 7 c-48 7 -153 6 -220 -4z"></path><path id="plwP7rHZx" d="M1115 1316 c-5 -2 -21 -7 -35 -10 -14 -3 -40 -17 -58 -32 -26 -22 -32 -34 -32 -65 l0 -39 104 0 c56 0 131 -3 165 -6 l61 -7 0 51 c0 46 -3 53 -35 78 -27 20 -49 27 -97 30 -35 2 -67 2 -73 0z"></path><path id="pNUkPpTtY" d="M1470 1156 c0 -10 -11 -12 -45 -8 -37 4 -45 2 -45 -11 0 -11 13 -18 38 -23 20 -4 49 -13 64 -20 36 -19 88 -18 88 0 0 8 -14 17 -30 21 -21 5 -32 14 -36 31 -6 25 -34 34 -34 10z"></path><path id="pBGeKJGc0" d="M1260 1140 c0 -5 -11 -10 -25 -10 -21 0 -25 -5 -25 -31 l0 -30 28 19 c15 11 42 23 60 27 44 9 43 35 -3 35 -19 0 -35 -4 -35 -10z"></path><path id="pMbV51crH" d="M1610 1075 c0 -22 4 -25 38 -25 l37 1 -28 24 c-36 32 -47 31 -47 0z"></path><path id="p8JeD147M" d="M1400 1020 c0 -15 7 -20 25 -20 18 0 25 -5 25 -20 0 -13 7 -20 20 -20 29 0 25 34 -6 59 -34 27 -64 27 -64 1z"></path><path id="pAaSnBlop" d="M1563 1005 c6 -19 16 -35 24 -35 8 0 13 13 13 35 0 30 -3 35 -24 35 -23 0 -24 -2 -13 -35z"></path><path id="pXNqky8Ry" d="M1263 1018 c-6 -7 -13 -21 -16 -30 -5 -14 -1 -18 18 -18 21 0 25 5 25 30 0 32 -11 39 -27 18z"></path><path id="pzJPUB8S9" d="M1660 985 c0 -35 -6 -52 -25 -70 -13 -14 -29 -25 -35 -25 -5 0 -10 -11 -10 -25 0 -27 15 -26 62 7 32 22 52 85 43 129 -11 48 -35 36 -35 -16z"></path><path id="pQmPMAguy" d="M1320 935 c0 -8 -9 -15 -20 -15 -11 0 -20 5 -20 10 0 6 -9 10 -20 10 -15 0 -20 -7 -20 -26 0 -62 53 -91 65 -35 3 16 13 32 22 35 17 7 63 -18 63 -34 0 -6 5 -10 10 -10 17 0 12 67 -6 74 -31 12 -74 7 -74 -9z"></path><path id="pCobfn9BR" d="M1240 735 c0 -22 -4 -25 -35 -25 -31 0 -35 -3 -35 -25 0 -14 3 -25 7 -25 11 0 132 85 133 93 0 4 -16 7 -35 7 -31 0 -35 -3 -35 -25z"></path></g></g><g id="l5Ajq6OHNRSvSCHpNwUNhRY" fill="rgb(200,115,99)" style="transform: none;"><g><path id="pGDYeMbMy" d="M1129 1693 l0 -58 -90 -59 c-85 -56 -89 -61 -88 -95 0 -20 4 -45 9 -56 l9 -20 1 20 c1 22 37 67 66 83 32 17 185 34 242 27 48 -6 55 -10 67 -38 14 -31 14 -30 15 41 0 57 3 72 15 72 26 0 16 28 -27 75 -39 42 -45 45 -95 45 -29 0 -53 5 -53 10 0 6 -16 10 -35 10 l-35 0 -1 -57z"></path><path id="pFeg4ayGJ" d="M1061 1443 c-57 -23 -65 -43 -17 -43 20 0 36 5 36 10 0 6 26 10 58 10 43 0 73 -8 120 -30 35 -17 70 -30 78 -30 8 0 14 -7 14 -15 0 -8 9 -15 20 -15 13 0 20 -7 20 -20 0 -16 7 -20 31 -20 l30 0 -20 29 c-74 104 -261 167 -370 124z"></path><path id="pzLhRFrcz" d="M953 1385 l-28 -24 38 -1 c33 0 37 3 37 25 0 31 -11 32 -47 0z"></path><path id="pDpUFlCoG" d="M1072 1309 c-33 -13 -52 -34 -52 -58 0 -12 -4 -21 -10 -21 -5 0 -10 -16 -10 -35 0 -33 2 -35 35 -35 28 0 35 4 35 20 0 15 -7 20 -25 20 -31 0 -32 11 -1 37 41 35 68 46 122 47 42 0 58 -5 88 -27 20 -16 36 -36 36 -46 0 -15 -7 -17 -57 -13 -32 2 -64 10 -72 16 -11 8 -15 8 -18 -1 -3 -7 -11 -13 -19 -13 -23 0 -16 -16 11 -28 27 -13 134 -16 173 -6 18 5 22 13 22 45 0 22 -4 39 -9 39 -5 0 -11 8 -13 18 -8 31 -69 52 -145 51 -37 0 -78 -4 -91 -10z"></path><path id="picdTR3Ge" d="M1453 1200 l6 -50 -34 0 c-40 0 -49 -24 -12 -34 35 -9 47 -7 47 9 0 27 29 16 32 -12 2 -23 8 -29 36 -31 40 -4 44 19 4 34 -23 9 -29 19 -40 72 -9 45 -17 62 -29 62 -13 0 -15 -8 -10 -50z"></path><path id="pnTqTJtdV" d="M1173 1095 c-15 -17 -17 -75 -3 -75 6 0 10 4 10 9 0 5 17 25 37 45 l37 36 -34 0 c-19 -1 -41 -7 -47 -15z"></path><path id="pTChKbgLh" d="M1640 1050 c0 -16 5 -30 10 -30 6 0 10 -20 10 -45 0 -32 4 -45 14 -45 19 0 27 38 17 83 -15 65 -51 91 -51 37z"></path><path id="p12WIZdAt" d="M1551 1035 c12 -19 25 -35 30 -35 5 0 9 16 9 35 0 32 -2 35 -30 35 l-29 0 20 -35z"></path><path id="pV9CIzjTb" d="M865 1032 c-5 -4 -16 -15 -24 -24 -12 -16 -11 -18 18 -18 26 0 31 4 31 25 0 25 -7 30 -25 17z"></path><path id="p1CfGFMlHF" d="M1270 1020 c-11 -11 -22 -31 -26 -45 -9 -36 4 -95 21 -95 12 0 15 14 15 60 0 57 1 60 25 60 18 0 25 5 25 20 0 26 -34 26 -60 0z"></path><path id="pCB8QJgos" d="M1360 1021 c0 -18 6 -21 45 -21 41 0 45 -2 45 -25 0 -18 5 -25 20 -25 25 0 26 30 2 60 -12 15 -33 24 -65 27 -43 5 -47 4 -47 -16z"></path><path id="p10JGVu1I7" d="M1290 913 l0 -37 20 22 c12 12 27 22 35 22 8 0 15 7 15 15 0 10 -11 15 -35 15 -34 0 -35 -1 -35 -37z"></path><path id="peUTnAXk2" d="M1450 860 c0 -13 7 -20 20 -20 13 0 20 7 20 20 0 13 -7 20 -20 20 -13 0 -20 -7 -20 -20z"></path><path id="pD7rNJzjm" d="M1570 860 c0 -22 12 -25 41 -10 28 16 23 30 -11 30 -23 0 -30 -4 -30 -20z"></path><path id="pJ2yOWwPh" d="M1136 809 c-9 -48 -7 -119 4 -119 6 0 10 -11 10 -25 0 -25 3 -24 85 32 l86 58 -42 7 c-45 8 -75 29 -84 59 -4 11 -16 19 -29 19 -18 0 -25 -7 -30 -31z m84 -46 c0 -10 -5 -25 -10 -33 -7 -11 -10 -7 -10 18 0 17 5 32 10 32 6 0 10 -8 10 -17z"></path><path id="pjQw8OZ9m" d="M818 720 l37 -41 3 31 c4 38 6 37 -40 45 l-37 7 37 -42z"></path></g></g><g id="l6GUgyHKTWSTLn3DXfKhxh9" fill="rgb(202,128,112)" style="transform: none;"><g><path id="p3j6RzqgO" d="M1124 1765 c4 -33 10 -70 12 -81 6 -22 -33 -74 -55 -74 -6 0 -11 -4 -11 -10 0 -5 -7 -10 -15 -10 -9 0 -18 -7 -21 -15 -4 -8 -12 -15 -20 -15 -8 0 -14 -4 -14 -9 0 -5 -11 -12 -25 -15 -21 -5 -25 -12 -25 -44 0 -20 4 -32 8 -26 5 7 128 94 201 141 3 2 4 29 4 61 0 31 1 45 4 30 5 -31 15 -35 33 -13 9 11 17 12 32 4 13 -7 23 -7 32 0 10 8 20 3 42 -22 17 -17 33 -40 36 -49 5 -11 14 -15 28 -11 48 13 29 58 -37 90 -18 8 -33 21 -33 28 0 7 -23 30 -52 53 -44 34 -55 38 -74 30 -18 -8 -28 -7 -40 3 -16 13 -16 9 -10 -46z"></path><path id="pWcUwbyTt" d="M910 1630 c0 -5 9 -15 20 -22 11 -7 20 -18 20 -25 0 -7 7 -13 15 -13 10 0 15 11 15 35 0 33 -2 35 -35 35 -19 0 -35 -4 -35 -10z"></path><path id="pmNkNsd9H" d="M1093 1451 c-147 -37 -273 -168 -277 -288 -1 -39 -4 -43 -26 -43 -41 0 -70 -11 -70 -26 0 -9 11 -14 30 -14 17 0 30 -5 30 -11 0 -6 15 0 33 13 27 19 47 24 125 26 84 4 92 6 92 24 0 18 -6 19 -90 16 l-91 -3 7 39 c3 22 13 46 20 54 8 7 14 22 14 32 0 10 9 20 21 23 11 3 23 15 26 26 3 12 14 21 24 21 10 0 22 6 26 13 8 13 42 30 106 53 l37 13 0 -49 c0 -46 -2 -50 -24 -50 -35 0 -56 -10 -56 -26 0 -8 -8 -14 -18 -14 -30 0 -42 -21 -42 -72 l0 -48 70 0 70 0 0 -40 c0 -27 -4 -40 -14 -40 -10 0 -8 -11 8 -45 12 -24 26 -44 31 -44 6 0 19 19 30 41 14 30 33 49 65 66 39 21 55 23 128 20 72 -4 88 -8 125 -34 56 -40 67 -65 67 -161 0 -46 2 -83 5 -83 18 0 75 31 94 51 17 18 21 35 21 83 -1 87 -46 136 -126 136 -50 0 -58 9 -74 80 -7 30 -18 66 -26 80 -56 112 -257 209 -371 181z m142 -177 c35 -16 70 -58 61 -73 -9 -13 -129 -7 -134 7 -3 9 -8 10 -15 3 -14 -11 -114 -18 -123 -8 -10 10 36 57 71 73 41 18 100 17 140 -2z"></path><path id="p1AmNa80kt" d="M847 1012 c-32 -34 -35 -62 -7 -62 15 0 20 7 20 25 0 20 5 25 25 25 18 0 25 5 25 20 0 29 -31 25 -63 -8z"></path><path id="pYueponJ2" d="M990 1024 c0 -22 29 -43 58 -44 27 0 28 14 2 40 -24 24 -60 27 -60 4z"></path><path id="pnQRupHcQ" d="M1290 1034 c-30 -12 -40 -38 -40 -106 0 -56 3 -69 19 -78 27 -14 31 -13 31 11 0 31 19 59 40 59 26 0 50 -27 50 -56 0 -24 3 -25 48 -22 l47 3 0 77 c0 56 -4 82 -15 92 -16 16 -153 31 -180 20z"></path><path id="pcZAGfO8N" d="M710 930 c0 -83 1 -90 20 -90 19 0 20 7 20 90 0 83 -1 90 -20 90 -19 0 -20 -7 -20 -90z"></path><path id="p9gdboVS4" d="M620 968 c0 -30 13 -58 26 -58 9 0 14 12 14 35 0 28 -4 35 -20 35 -11 0 -20 -6 -20 -12z"></path><path id="pQYOMbrAb" d="M940 930 c0 -13 5 -17 14 -14 16 6 76 -46 76 -65 0 -9 5 -9 20 -1 11 6 20 20 20 30 0 13 -7 20 -20 20 -13 0 -20 7 -20 19 0 21 -19 31 -61 31 -22 0 -29 -5 -29 -20z"></path><path id="pZ6myv5XI" d="M820 860 c0 -13 7 -20 20 -20 13 0 20 7 20 20 0 13 -7 20 -20 20 -13 0 -20 -7 -20 -20z"></path><path id="pAyW26uZe" d="M1109 811 c-10 -17 -32 -35 -53 -42 -44 -16 -48 -39 -7 -39 42 0 61 10 61 31 0 10 5 19 10 19 6 0 10 -27 10 -60 0 -47 -3 -60 -15 -60 -10 0 -15 -10 -15 -31 l0 -32 33 27 c17 15 64 48 104 74 40 26 72 50 72 55 1 4 -13 7 -30 7 -22 0 -42 11 -71 40 -49 48 -77 51 -99 11z"></path><path id="p13bkwPhsd" d="M841 695 c50 -69 59 -74 59 -31 0 20 -4 36 -9 36 -5 0 -11 9 -14 20 -4 15 -14 20 -37 20 l-31 0 32 -45z"></path><path id="pgl0nnSvs" d="M912 602 c22 -57 65 -141 70 -139 5 1 28 27 53 57 41 50 43 55 24 58 -33 5 -49 -5 -49 -32 0 -18 -4 -24 -15 -20 -8 4 -15 12 -15 20 0 32 -24 64 -47 64 -14 0 -23 -4 -21 -8z"></path></g></g><g id="l3ypBxcEXOWOFz4OYbSi8zo" fill="rgb(231,186,166)" style="transform: none;"><g><path id="p1GkyTeZ20" d="M1071 1786 c-18 -18 -59 -55 -92 -82 -47 -39 -59 -54 -57 -74 2 -14 9 -24 16 -23 9 2 12 -16 12 -67 l0 -70 105 72 105 71 0 87 c0 71 -3 90 -18 103 -26 24 -34 22 -71 -17z"></path><path id="pdnCTkBOu" d="M1177 1807 c-16 -11 -10 -18 54 -72 127 -106 119 -101 119 -67 0 33 -27 62 -58 62 -14 0 -22 7 -24 23 -2 14 -11 23 -24 25 -12 2 -24 12 -27 23 -6 22 -16 24 -40 6z"></path><path id="piIVgxMIU" d="M1093 1444 c-151 -39 -255 -145 -278 -281 -6 -39 -9 -43 -43 -48 -74 -12 -85 -16 -113 -44 -56 -56 -46 -164 20 -208 55 -37 61 -32 61 47 0 83 16 126 59 163 85 71 268 57 326 -26 8 -12 15 -43 15 -69 0 -36 4 -48 15 -48 13 0 14 19 9 138 -4 75 -8 139 -10 141 -2 2 -9 -1 -16 -6 -7 -5 -37 -10 -65 -10 -45 -1 -53 2 -53 17 0 25 77 80 112 80 l28 0 0 79 c0 44 -3 82 -7 84 -5 3 -32 -1 -60 -9z"></path><path id="pnDMBUs3y" d="M849 1010 c-28 -28 -30 -34 -27 -97 l3 -68 48 -3 c44 -3 47 -2 47 22 0 27 23 56 45 56 21 0 45 -29 45 -56 0 -28 21 -32 44 -8 11 11 16 35 16 79 0 57 -3 66 -26 84 -21 17 -41 21 -96 21 -64 0 -72 -2 -99 -30z"></path><path id="ppnzXiFDn" d="M1099 799 l-36 -39 -138 0 -139 0 31 -32 c43 -46 108 -146 139 -214 l26 -57 26 34 c14 19 54 62 89 97 l63 63 0 94 c0 109 -6 115 -61 54z"></path></g></g><g id="lbwEBGxMOB6sialaZkvgoc" fill="rgb(203,206,200)" style="transform: none;"><g><path id="pM6OvQ5CB" d="M1120 2638 c-18 -62 -45 -160 -60 -218 -14 -58 -42 -163 -61 -234 l-34 -128 21 -14 c12 -8 52 -39 90 -69 38 -30 73 -55 80 -55 8 0 153 108 186 139 4 4 -8 63 -27 131 -19 69 -60 219 -91 335 -31 116 -60 214 -64 218 -4 4 -22 -43 -40 -105z m61 -109 c55 -192 117 -443 112 -455 -2 -6 -13 -14 -24 -17 -10 -3 -19 -12 -19 -21 0 -9 -3 -16 -7 -16 -5 0 -6 25 -5 55 3 48 1 59 -19 75 -34 31 -129 26 -129 -6 0 -8 -4 -14 -10 -14 -5 0 -10 -20 -10 -45 0 -25 -4 -45 -10 -45 -5 0 -10 5 -10 10 0 6 -6 10 -14 10 -8 0 -16 6 -19 13 -5 15 133 541 141 533 1 -2 12 -36 23 -77z m13 -415 c22 -22 20 -41 -9 -70 -30 -30 -31 -34 -5 -34 28 0 25 -28 -2 -32 -29 -4 -63 11 -77 34 -9 15 -8 18 11 18 17 0 19 3 10 12 -16 16 -15 75 1 81 25 11 56 7 71 -9z"></path><path id="p1F9709O2m" d="M1273 2725 c61 -210 161 -573 181 -650 13 -55 37 -148 52 -207 15 -60 30 -108 33 -108 6 1 161 234 161 243 0 3 -29 19 -64 35 -75 35 -89 60 -58 101 12 14 33 43 48 63 l26 37 -49 63 c-27 35 -71 95 -98 133 -49 70 -210 281 -228 300 -6 6 -7 3 -4 -10z m137 -226 c0 -10 6 -22 13 -26 7 -4 18 -20 24 -35 7 -16 17 -28 23 -28 5 0 10 -7 10 -15 0 -9 7 -18 15 -21 8 -4 15 -12 15 -20 0 -8 5 -14 10 -14 6 0 10 -7 10 -15 0 -8 9 -20 20 -27 11 -7 20 -19 20 -26 0 -7 6 -15 14 -18 18 -7 9 -34 -16 -52 -10 -7 -18 -20 -18 -28 0 -8 -4 -14 -10 -14 -5 0 -10 -25 -10 -55 0 -42 3 -55 15 -55 8 0 15 -6 15 -13 0 -8 17 -22 39 -31 35 -16 37 -20 27 -42 -6 -13 -14 -24 -18 -24 -5 0 -8 -7 -8 -15 0 -8 -4 -15 -10 -15 -5 0 -10 -5 -10 -11 0 -6 -6 -17 -14 -25 -13 -12 -17 -7 -30 40 -9 30 -16 59 -16 65 0 11 -73 285 -123 462 -23 82 -23 86 -6 82 11 -3 19 -14 19 -24z"></path><path id="pT6HHN2dR" d="M954 2628 c-43 -57 -112 -148 -152 -203 -40 -55 -88 -120 -106 -145 l-34 -44 44 -56 c64 -82 59 -105 -38 -150 -27 -12 -48 -26 -48 -31 0 -6 29 -53 63 -107 35 -53 70 -108 77 -122 l13 -25 12 35 c7 19 27 96 45 170 34 138 194 734 206 764 12 31 -3 15 -82 -86z"></path><path id="p1Es6yL3nL" d="M897 1812 l-38 -146 38 -33 c34 -29 39 -30 51 -16 17 23 15 33 -7 33 -30 0 -33 38 -9 138 17 71 26 92 39 92 9 0 19 -7 23 -15 3 -8 17 -15 31 -15 18 0 25 -5 25 -20 0 -11 8 -24 18 -27 9 -4 22 -14 28 -22 10 -13 14 -13 28 -2 9 8 15 17 14 21 -4 10 -103 89 -158 127 l-45 31 -38 -146z"></path><path id="p13244Omez" d="M1335 1927 c-24 -17 -141 -106 -164 -124 -3 -2 3 -11 12 -21 12 -11 20 -13 25 -6 4 6 15 13 25 17 9 3 17 13 17 22 0 8 9 15 20 15 11 0 20 7 20 15 0 8 8 15 18 15 10 0 23 5 30 12 6 6 13 10 16 7 2 -2 15 -44 28 -94 25 -96 21 -135 -14 -135 -22 0 -23 -13 -3 -30 11 -9 21 -6 50 15 19 15 35 35 34 44 -1 34 -66 265 -75 267 -5 1 -23 -8 -39 -19z"></path></g></g><g id="l1148jN4FWUcrp4j6djNtUP" fill="rgb(221,224,216)" style="transform: none;"><g><path id="pfbw78wgM" d="M1150 2731 c0 -5 -3 -16 -6 -25 -4 -11 -1 -16 10 -16 18 0 22 35 6 45 -5 3 -10 2 -10 -4z"></path><path id="pkcrAVStz" d="M1305 2633 c14 -49 38 -137 55 -198 40 -143 122 -449 145 -545 34 -139 26 -138 110 -12 41 61 75 116 75 121 0 6 -21 19 -47 31 -97 43 -103 68 -39 150 l44 56 -89 119 c-99 135 -273 365 -276 365 -1 0 9 -39 22 -87z"></path><path id="pG0yaejW0" d="M1071 2450 c-14 -67 -14 -70 8 -70 18 0 31 39 31 98 0 44 -28 23 -39 -28z"></path><path id="pbHIQ4cWY" d="M1230 2365 c0 -28 4 -35 20 -35 21 0 24 10 14 48 -10 36 -34 27 -34 -13z"></path><path id="pNFV3vL3U" d="M1036 2318 c-10 -38 -7 -48 14 -48 16 0 20 7 20 35 0 40 -24 49 -34 13z"></path><path id="pp1ouYOqH" d="M1270 2205 c0 -28 4 -35 20 -35 21 0 24 10 14 48 -10 36 -34 27 -34 -13z"></path><path id="p18qG8wYJj" d="M1006 2208 c-10 -38 -7 -48 14 -48 16 0 20 7 20 35 0 40 -24 49 -34 13z"></path><path id="pFB9zDPoA" d="M1070 2121 c0 -10 3 -39 6 -65 5 -36 11 -46 25 -46 11 0 19 -4 19 -10 0 -5 11 -10 25 -10 14 0 25 -4 25 -10 0 -5 -16 -10 -36 -10 -32 0 -35 -2 -24 -16 31 -36 49 -37 92 -2 l42 33 -29 6 c-17 4 -22 7 -12 8 13 1 17 10 17 38 l0 37 -20 -22 c-25 -27 -61 -28 -83 -4 -22 25 -21 48 3 72 l20 20 -35 0 c-27 0 -35 -4 -35 -19z"></path><path id="pg52AyDWH" d="M976 2095 c-8 -30 -1 -45 20 -45 9 0 14 11 14 35 0 42 -24 49 -34 10z"></path><path id="p3wabeDLN" d="M937 1943 c-7 -11 -47 -167 -47 -182 0 -6 8 -11 18 -11 25 0 69 167 48 188 -7 8 -16 10 -19 5z"></path><path id="pCzsvmOLv" d="M1344 1927 l-29 -26 38 -1 c38 0 41 2 28 34 -7 17 -9 17 -37 -7z"></path><path id="pnVBsRvme" d="M1010 1871 c0 -29 3 -31 36 -31 39 0 38 9 -6 40 l-30 21 0 -30z"></path><path id="p18hophtL7" d="M1240 1850 l-35 -29 38 -1 c35 0 37 2 37 30 0 17 -1 30 -3 30 -1 0 -18 -13 -37 -30z"></path><path id="plOgMygza" d="M1390 1776 c0 -52 12 -86 31 -86 22 0 23 6 8 66 -12 47 -39 61 -39 20z"></path><path id="pcC1YCBPn" d="M890 1644 c26 -31 48 -36 69 -15 19 19 19 19 -2 25 -12 3 -35 6 -51 6 -25 0 -27 -2 -16 -16z"></path><path id="pe08tQ9JZ" d="M1360 1641 c0 -31 16 -33 47 -6 l28 24 -37 1 c-31 0 -38 -4 -38 -19z"></path></g></g><g id="l31dMmQlOpYynpSde2xqXWX" fill="rgb(253,254,254)" style="transform: none;"><g><path id="p1Bwt6KVFh" d="M1113 2593 c-23 -81 -62 -227 -88 -323 -25 -96 -48 -183 -51 -192 -5 -16 24 -41 146 -130 l38 -28 92 71 c75 58 91 75 87 93 -23 103 -165 624 -176 644 -4 7 -26 -54 -48 -135z m75 -469 c24 -17 29 -51 10 -76 -31 -41 -98 -15 -98 37 0 23 32 55 55 55 6 0 21 -7 33 -16z"></path><path id="pWRJgu1Bo" d="M931 1917 c-5 -18 -21 -76 -36 -129 -14 -54 -28 -104 -30 -110 -3 -7 13 -25 34 -40 l38 -27 89 78 c130 113 126 100 49 161 -37 29 -82 63 -100 76 l-34 23 -10 -32z"></path><path id="pYbRc9WeE" d="M1345 1927 c-17 -11 -63 -45 -104 -76 l-73 -55 33 -29 c19 -16 66 -57 104 -92 66 -58 72 -62 90 -48 11 8 28 20 37 27 17 12 16 21 -18 152 -20 76 -37 140 -37 141 -1 1 -16 -8 -32 -20z"></path></g></g></svg>
